<svg id="Capa_1" data-name="Capa 1" xmlns="http://www.w3.org/2000/svg" viewBox="0 0 48.06 82.56"><defs><style>.cls-1{fill:#515151;}</style></defs><title>arrow_popup</title><path class="cls-1" d="M300.25,393.61a55.14,55.14,0,0,0,14.9-15.21,71.66,71.66,0,0,0,6.91-13.82,115.67,115.67,0,0,0,5-16.1c1.63-7.09,1.83-14.3,2-21.51,0-1.32,0-2.63,0-4.09l1.65,1.36,8.46,6.91a1.7,1.7,0,0,0,1.75.35c0.3-.29.09-1-0.47-1.69l0-.05q-7.37-7.88-14.74-15.75c-1.12-1.2-2.29-1.11-3.28.22-0.45.61-.76,1.33-1.17,2q-4.41,7-8.83,14.05c-1.2,1.92-2.41,3.83-3.55,5.79a6.56,6.56,0,0,0-.61,2,0.62,0.62,0,0,0,.75.81,4.09,4.09,0,0,0,1.66-.62,11,11,0,0,0,2-2c2.51-3.22,5-6.49,7.44-9.74,0.93-1.22,1.87-2.42,2.92-3.79,0,0.45,0,.7,0,0.95-0.15,3.59-.23,7.19-0.49,10.78-0.32,4.33-.55,8.69-1.25,13a80.25,80.25,0,0,1-8.74,25.38,54.16,54.16,0,0,1-11,14.11,79,79,0,0,1-7.84,6C292.31,393.82,292.61,398.33,300.25,393.61Z" transform="translate(-293.05 -313.17)"/></svg>