<svg xmlns="http://www.w3.org/2000/svg" preserveAspectRatio="xMidYMid" width="32" height="32" viewBox="0 0 32 32"><path d="M16 31C7.715 31 1 24.285 1 16S7.715 1 16 1s15 6.715 15 15-6.715 15-15 15zm0-28C8.83 3 3 8.83 3 16s5.83 13 13 13 13-5.83 13-13S23.17 3 16 3zm6.433 13.097h-11.5l4.638 4.886c.222.233.222.61 0 .844-.22.232-.578.232-.8 0l-5.603-5.904c-.107-.112-.165-.266-.167-.422 0-.157.062-.307.167-.42l5.603-5.904c.222-.234.58-.233.8 0 .222.232.222.61 0 .842l-4.638 4.886h11.5c.315 0 .568.268.568.597 0 .33-.253.597-.567.597z"/></svg>