<svg xmlns="http://www.w3.org/2000/svg" id="Capa_1" viewBox="0 0 120.6 108.3"><path d="M58 75.7c-11.5 0-20.9-9.4-20.9-20.9S46.5 33.9 58 33.9c7.1 0 13.7 3.6 17.6 9.6L68 48.4C65.8 45 62.1 43 58 43c-6.5 0-11.9 5.3-11.9 11.9S51.5 66.7 58 66.7c4.4 0 8.4-2.4 10.5-6.3l7.2 5.7c-3.6 6.9-9.9 9.6-17.7 9.6z" class="st0"/><path d="M59.3 94.4c-.8 0-3.7-.1-4.3-.1-22.1-.2-37.9-18.3-37.9-40.5 0-22.3 18.2-40.5 40.5-40.5 12.3 0 23.8 4.8 31.4 13.1 6.9 7.5 10 17.1 9.1 27.8-.7 8.5-3.5 14.6-8.3 18.1-5 3.7-10.3 3.2-11.6 3-4.8-.6-8.6-2.9-10.9-6.6-6.1-10 1.6-29 2.3-30.9l3.3 2.4 5.5 2C76.2 48 73 59.7 75.8 64.4c.6 1 .7 1.7 3.4 2l.4.1c.4.1 2.7.3 4.8-1.4 2.5-1.9 4.1-5.9 4.6-11.6.7-8.1-1.6-15.3-6.7-20.9-5.9-6.5-14.9-10.2-24.8-10.2C40.1 22.4 26 36.5 26 53.9c0 17.2 14 31.3 31.2 31.5h.1c5.8.1 13-.8 15.2-1.6l5.4 7.4c-4.1 2.5-13.9 3.2-18.6 3.2z" class="st0"/></svg>
