<svg xmlns="http://www.w3.org/2000/svg" id="Capa_2" data-name="Capa 2" viewBox="0 0 150 150"><path d="M18.43 59.77c1.27-.18 4.73 1.82 3.64 4.28s-.36 3.1-.36 3.1c1.27.36 3.37-4.55 3.37-4.55 8.2-30.32 20.21-30.23 20.21-30.23 32.6-4.64 53.72-1.37 64.38.73s17.57 30.78 17.57 30.78a15 15 0 0 0 2 3.46c.82.73.55.09.73-3.92s4.46-3.64 4.46-3.64c11.66 2.91 10.11 5.83 10.11 5.83 0 2.64-3.92 4.46-7.47 4.55s-4.19 5.19-4.19 5.19c2.46 27-.55 25.59-.55 25.59v24.31c-.09 1.55-2.09 2.09-2.09 2.09h-9.93a3.23 3.23 0 0 1-2.09-1.91v-11c-39.15 10.93-84.32 0-84.32 0v10.93c0 1.27-2.09 2.09-2.09 2.09H21.25c-.91-.18-1.82-1.91-1.82-1.91v-24.4c-3.64-2.19-.46-25-.64-27.13s-.64-3.55-4.55-3.92-6.73-3.95-6.74-4.58c-.09-4.19 9.65-5.51 10.93-5.74zm14 5.37a.94.94 0 0 0 1.27.91C60.13 63 118 66 119 65.87s.55-.73.55-.73-5.65-20.4-8.1-23.95-4.73-3.46-4.73-3.46c-12.17-3.36-56.51-1.73-60.79-.81s-4.73 3.73-4.73 3.73-8.84 23.22-8.75 24.49zm69.66 15.93s-2.55 2.64-.91 4.64a4.79 4.79 0 0 0 3.37 2s20.85-1.09 23.49-4c0 0 1.09-1 0-7.92 0 0-.91-7.1-8.38-4s-16.19 7.83-17.55 9.29zm-69.24-9.28c-7.17-3.1-8 4-8 4-1 6.92 0 7.92 0 7.92 2.53 2.91 22.54 4 22.54 4a4.54 4.54 0 0 0 3.23-2c1.57-2-.87-4.64-.87-4.64-1.35-1.45-9.75-6.19-16.9-9.28z" class="cls-1"/></svg>
