<svg xmlns="http://www.w3.org/2000/svg" width="111.053" height="127.773" viewBox="0 0 111.05333 127.77333"><path fill="none" stroke="#af1e2d" stroke-width="3.7999050000000003" stroke-miterlimit="10" d="M78.712 64.994c16.813 0 30.44 13.627 30.44 30.44 0 16.81-13.627 30.44-30.44 30.44-16.81 0-30.44-13.63-30.44-30.44 0-16.813 13.63-30.44 30.44-30.44z"/><path fill="none" stroke="#af1e2d" stroke-width="3.679908" d="M91.072 67.714l-.173-44H14.11s-13 .24-12.24-12.747c.56-9.573 10.667-9.12 10.667-9.12h78.825" stroke-linecap="round" stroke-linejoin="round"/><path fill="none" stroke="#af1e2d" stroke-width="3.359916" d="M20.166 12.727h69.386" stroke-linecap="round" stroke-linejoin="round"/><path fill="none" stroke="#af1e2d" stroke-width="3.853237" stroke-miterlimit="10" d="M2.765 16.86v92.226c.058 4.897 4.075 8.82 8.97 8.762h46.017" stroke-linecap="round"/><path d="M79.098 76.327c1.253 0 2.268 1.015 2.268 2.266v30.627c0 1.252-1.015 2.266-2.268 2.266-1.25 0-2.266-1.014-2.266-2.266V78.593c0-1.25 1.015-2.266 2.266-2.266"/><path d="M92.028 100.015l.008.01c.676.91.484 2.197-.427 2.872l-11.355 8.417c-.91.676-2.197.484-2.87-.427l-.01-.01c-.675-.91-.485-2.197.427-2.873l11.354-8.417c.91-.674 2.197-.484 2.872.428"/><path d="M80.387 110.702l-.008.01c-.692.9-1.98 1.07-2.88.38l-11.21-8.61c-.9-.69-1.07-1.98-.377-2.877l.007-.012c.69-.9 1.98-1.068 2.88-.378l11.21 8.608c.898.69 1.068 1.98.377 2.88"/></svg>
