<svg xmlns="http://www.w3.org/2000/svg" height="45.009" width="32.566" viewBox="0 0 32.566 45.009"><defs><clipPath id="a"><path d="M0 0v45h45V0H0"/></clipPath></defs><g clip-path="url(#a)" transform="matrix(1.25 0 0 -1.25 -11.68 50.63)"><path d="M9.347 6.027v32.946c0 .843.684 1.527 1.527 1.527h13.35l11.43-11.43V6.027c0-.843-.685-1.527-1.528-1.527H10.874c-.843 0-1.527.684-1.527 1.527z" fill-rule="evenodd"/><path d="M24.223 40.5l11.43-11.43H25.75c-.843 0-1.527.684-1.527 1.527V40.5z" fill="#525252" fill-rule="evenodd"/><path d="M16.727 9.318v-.656h-3.29v5.514h3.228v-.648H14.21v-1.646h2.318v-.648H14.21V9.318h2.517zm3.158 2.19l1.83-2.846h-.937l-1.397 2.342-1.387-2.342h-.93l1.824 2.845-1.694 2.67h.91l1.28-2.15 1.287 2.15h.908l-1.693-2.67zm5.708-2.19v-.656h-3.29v5.514h3.228v-.648H23.08v-1.646h2.317v-.648h-2.317V9.318h2.516z" fill="#e6e6e6"/><path d="M55.574 6.545V38.44c0 .815.663 1.477 1.478 1.477h12.923L81.04 28.852V6.545c0-.816-.662-1.478-1.48-1.478H57.053c-.815 0-1.478.662-1.478 1.478z" stroke-miterlimit="10" fill="none" stroke="#2b2b2b" stroke-width="1.148"/><path d="M62.72 9.736V9.1h-3.184v5.34h3.124v-.628h-2.376v-1.594h2.244v-.627h-2.244V9.738h2.437zm3.057 2.12L67.55 9.1h-.908l-1.352 2.27-1.345-2.27h-.9l1.765 2.755-1.64 2.584h.88l1.24-2.084 1.247 2.082h.88l-1.64-2.585zm5.528-2.12V9.1H68.12v5.34h3.124v-.628h-2.376v-1.594h2.244v-.627h-2.244V9.738h2.437z" fill="#2b2b2b"/></g></svg>
