<svg xmlns="http://www.w3.org/2000/svg" height="45" width="32.884" viewBox="0 0 32.884 45"><defs><clipPath id="a"><path d="M0 0v45h45V0H0"/></clipPath></defs><g clip-path="url(#a)" transform="matrix(1.25 0 0 -1.25 -11.68 50.63)"><path d="M9.347 6.027v32.946c0 .843.684 1.527 1.527 1.527h13.35l11.43-11.43V6.027c0-.843-.685-1.527-1.528-1.527H10.874c-.843 0-1.527.684-1.527 1.527z" fill-rule="evenodd"/><path d="M24.223 40.5l11.43-11.43H25.75c-.843 0-1.527.684-1.527 1.527V40.5z" fill="#525252" fill-rule="evenodd"/><path d="M17.99 13.477c.55-.52.825-1.21.825-2.066 0-.855-.275-1.544-.824-2.064-.546-.52-1.22-.78-2.02-.78-.797 0-1.47.26-2.02.78s-.823 1.21-.823 2.066c0 .858.274 1.547.823 2.067.548.52 1.222.78 2.02.78.8 0 1.473-.26 2.02-.78zm-.558-3.62c.394.393.59.916.59 1.572 0 .653-.196 1.177-.59 1.57-.395.39-.882.585-1.462.585s-1.067-.195-1.46-.587c-.395-.392-.592-.916-.592-1.57 0-.652.197-1.174.59-1.568.395-.394.882-.59 1.462-.59s1.067.194 1.462.586zm6.008 3.6c.57-.522.854-1.202.854-2.04 0-.835-.285-1.514-.855-2.037-.525-.48-1.21-.718-2.06-.718h-1.664v5.514h1.662c.852 0 1.54-.24 2.06-.718zm.062-2.036c0 .64-.22 1.168-.656 1.58-.36.343-.85.513-1.467.513h-.89v-4.18h.89c.617 0 1.106.172 1.465.512.437.417.656.942.656 1.577zm5.065-1.225c0-.483-.192-.883-.577-1.197-.352-.29-.802-.434-1.35-.434-.224 0-.436.032-.635.094-.2.062-.375.15-.53.265-.155.115-.273.21-.353.287-.08.077-.168.17-.262.283l.453.52c.158-.214.362-.4.61-.557.25-.157.512-.236.79-.236.31 0 .567.084.77.252.205.168.308.393.308.677 0 .13-.03.25-.086.357-.06.106-.148.198-.267.275-.12.077-.21.13-.268.16-.06.03-.15.068-.27.115-.434.172-.726.295-.88.37-.224.102-.408.232-.554.39-.24.25-.36.57-.36.96 0 .427.17.78.504 1.062.324.27.75.406 1.27.41.602 0 1.13-.24 1.582-.715l-.406-.527c-.372.394-.777.592-1.214.592-.283 0-.514-.067-.692-.2-.178-.135-.267-.324-.267-.57 0-.12.02-.23.058-.323.04-.094.1-.174.178-.24.078-.067.15-.12.22-.157.07-.037.154-.077.256-.12l1.014-.424c.265-.123.474-.27.625-.446.223-.278.335-.588.335-.93z" fill="#e6e6e6"/></g></svg>
