<svg xmlns="http://www.w3.org/2000/svg" height="45" width="32.884" viewBox="0 0 32.884 45"><defs><clipPath id="a"><path d="M0 0v45h45V0H0"/></clipPath></defs><g clip-path="url(#a)" transform="matrix(1.25 0 0 -1.25 -11.68 50.63)"><path d="M9.347 6.027v32.946c0 .843.684 1.527 1.527 1.527h13.35l11.43-11.43V6.027c0-.843-.685-1.527-1.528-1.527H10.874c-.843 0-1.527.684-1.527 1.527z" fill-rule="evenodd"/><path d="M24.223 40.5l11.43-11.43H25.75c-.843 0-1.527.684-1.527 1.527V40.5z" fill="#525252" fill-rule="evenodd"/><path d="M16.81 10.195c0-.483-.193-.883-.578-1.197-.352-.29-.802-.434-1.35-.434-.224 0-.436.032-.635.094-.2.062-.375.15-.53.265-.155.115-.273.21-.353.287-.08.077-.168.17-.262.283l.453.52c.158-.214.362-.4.61-.557.25-.157.512-.236.79-.236.31 0 .567.084.77.252.205.168.308.393.308.677 0 .13-.03.25-.088.357-.06.106-.148.198-.267.275-.12.077-.21.13-.268.16-.058.03-.15.068-.27.115-.433.172-.725.295-.88.37-.223.102-.407.232-.553.39-.24.25-.36.57-.36.96 0 .427.17.78.504 1.062.327.27.75.406 1.274.41.6 0 1.128-.24 1.58-.715l-.405-.527c-.373.394-.778.592-1.215.592-.283 0-.514-.067-.692-.2-.178-.135-.267-.324-.267-.57 0-.12.02-.23.058-.323.04-.094.098-.174.176-.24.077-.067.15-.12.22-.157.068-.037.153-.077.255-.12l1.014-.424c.263-.123.472-.27.623-.446.223-.278.335-.588.335-.93zm6.27 1.218c0-.82-.256-1.494-.77-2.025l.61-.695-.504-.445-.632.726c-.463-.27-.98-.407-1.55-.41-.797 0-1.47.26-2.02.78s-.823 1.21-.823 2.067c0 .86.276 1.548.825 2.068.55.52 1.223.78 2.02.78.8 0 1.474-.26 2.022-.778.55-.52.824-1.21.824-2.067zm-.792.016c0 .653-.197 1.177-.59 1.57-.396.39-.883.585-1.463.585-.58 0-1.067-.195-1.46-.587-.395-.392-.592-.916-.592-1.57 0-.652.197-1.174.59-1.568.395-.394.882-.59 1.462-.59.383 0 .734.088 1.054.268l-.467.527.504.448.472-.542c.324.397.487.88.487 1.457zm4.41-2.105v-.663h-2.716v5.514h.772v-4.85h1.944z" fill="#e6e6e6"/></g></svg>
