<svg xmlns="http://www.w3.org/2000/svg" height="45" width="32.884" viewBox="0 0 32.884 45"><defs><clipPath id="a"><path d="M0 0v45h45V0H0"/></clipPath></defs><g clip-path="url(#a)" transform="matrix(1.25 0 0 -1.25 -11.68 50.63)"><path d="M9.347 6.027v32.946c0 .843.684 1.527 1.527 1.527h13.35l11.43-11.43V6.027c0-.843-.685-1.527-1.528-1.527H10.874c-.843 0-1.527.684-1.527 1.527z" fill-rule="evenodd"/><path d="M24.223 40.5l11.43-11.43H25.75c-.843 0-1.527.684-1.527 1.527V40.5z" fill="#525252" fill-rule="evenodd"/><path d="M17.16 13.458c.57-.523.855-1.202.855-2.04 0-.835-.285-1.515-.855-2.038-.522-.478-1.21-.718-2.06-.718h-1.662v5.514H15.1c.853 0 1.54-.24 2.06-.718zm.063-2.037c0 .64-.218 1.17-.656 1.583-.36.34-.85.51-1.467.51h-.89V9.335h.89c.62 0 1.108.17 1.467.51.438.417.656.942.656 1.577zm6.247 2.058c.55-.52.824-1.21.824-2.067 0-.855-.274-1.543-.823-2.064-.547-.52-1.22-.78-2.02-.78s-1.472.26-2.02.78c-.55.52-.824 1.21-.824 2.066 0 .86.274 1.547.823 2.068.55.52 1.222.78 2.02.78.8 0 1.473-.26 2.022-.78zm-.56-3.62c.395.392.592.915.592 1.57 0 .657-.197 1.18-.59 1.572-.395.39-.882.587-1.463.587-.58 0-1.07-.196-1.463-.587-.394-.392-.59-.915-.59-1.57 0-.65.196-1.174.59-1.568.394-.394.88-.59 1.46-.59.582 0 1.07.195 1.463.586zm6.473.092l.335-.57c-.483-.543-1.155-.815-2.013-.815-.814 0-1.488.263-2.02.788-.535.526-.8 1.212-.8 2.058 0 .85.267 1.535.805 2.06.537.526 1.21.79 2.015.79.81 0 1.46-.244 1.955-.73l-.324-.625c-.127.164-.34.317-.636.46-.297.143-.618.215-.964.215-.6 0-1.093-.2-1.477-.598-.386-.398-.577-.916-.577-1.555 0-.64.193-1.156.58-1.553.385-.397.876-.595 1.472-.595.687 0 1.236.222 1.647.67z" fill="#e6e6e6"/></g></svg>
