<svg xmlns="http://www.w3.org/2000/svg" height="45" width="32.884" viewBox="0 0 32.884 45"><defs><clipPath id="a"><path d="M0 0v45h45V0H0"/></clipPath></defs><g clip-path="url(#a)" transform="matrix(1.25 0 0 -1.25 -11.68 50.63)"><path d="M9.347 6.027v32.946c0 .843.684 1.527 1.527 1.527h13.35l11.43-11.43V6.027c0-.843-.685-1.527-1.528-1.527H10.874c-.843 0-1.527.684-1.527 1.527z" fill-rule="evenodd"/><path d="M24.223 40.5l11.43-11.43H25.75c-.843 0-1.527.684-1.527 1.527V40.5z" fill="#525252" fill-rule="evenodd"/><path d="M16.856 12.604c0-.49-.178-.884-.534-1.183-.305-.26-.75-.39-1.335-.392h-.776V8.662h-.77v5.514h1.55c.583 0 1.03-.13 1.333-.39.356-.31.534-.704.534-1.182zm-1.135-.738c.225.166.337.412.337.738 0 .325-.112.567-.335.725-.202.14-.468.213-.795.213h-.714V11.66h.715c.33 0 .595.068.796.206zm5.682 1.592c.57-.523.855-1.202.855-2.04 0-.835-.285-1.515-.855-2.038-.522-.478-1.21-.718-2.06-.718H17.68v5.514h1.662c.853 0 1.54-.24 2.06-.718zm.063-2.037c0 .64-.218 1.17-.656 1.583-.363.34-.85.51-1.47.51h-.89V9.335h.89c.62 0 1.11.17 1.468.51.437.417.655.942.655 1.577zm4.753 2.756v-.648h-2.286V11.69h2.15v-.647h-2.15v-2.38h-.773v5.513h3.057z" fill="#e6e6e6"/></g></svg>
