<svg xmlns="http://www.w3.org/2000/svg" preserveAspectRatio="xMidYMid" width="28" height="28" viewBox="0 0 28 28">
  <path d="M14 28C6.267 28 0 21.733 0 14S6.267 0 14 0s14 6.267 14 14-6.267 14-14 14zm0-26C7.383 2 2 7.383 2 14s5.383 12 12 12 12-5.383 12-12S20.617 2 14 2zm3.43 11.292c-.26.31-.71.716-1.35 1.213-.544.428-.908.782-1.093 1.064-.185.28-.277.657-.277 1.13v.397h-1.723v-.562c0-.645.117-1.18.353-1.61.234-.427.643-.87 1.23-1.326.697-.55 1.147-.98 1.348-1.285.203-.305.303-.668.303-1.09 0-.49-.16-.87-.49-1.133-.33-.263-.8-.396-1.415-.396-.556 0-1.07.08-1.547.237-.474.16-.938.35-1.39.57l-.736-1.546c1.19-.662 2.464-.993 3.823-.993 1.15 0 2.06.282 2.735.844.674.562 1.01 1.338 1.01 2.328 0 .44-.064.83-.193 1.173-.13.343-.323.67-.585.98zm-3.512 5.282c.422 0 .746.117.967.348.224.23.334.56.334.98 0 .416-.114.745-.34.99-.225.242-.545.364-.963.364-.415 0-.734-.12-.957-.356-.222-.24-.333-.57-.333-.998 0-.885.43-1.328 1.29-1.328z"/>
</svg>
