<svg id="Capa_1" xmlns="http://www.w3.org/2000/svg" viewBox="0 0 424.5 268"><path id="XMLID_32_" class="st0" d="M252.5 48.9c0 15.9-14.9 27.9-31.9 27.9h-23.9s0-3.4 2.4-5.8 5.5-2.2 5.5-2.2h8c12 0 19.9-10.2 19.9-19.9 0-8-6.4-19.9-19.9-19.9h-23.9s-5.3-.2-9.6-1.7c-5.3-2-10.3-6.3-10.3-6.3h43.8c3.5 0 7.7.2 12.1.9 4.4.7 8.9 1.9 13.1 3.8 3.1 1.4 5.9 3.3 8.3 5.7.8.8 1.5 1.7 2.2 2.6 2.5 3.7 4.2 8.8 4.2 14.9m20 51.9V21.2s0-20.1-20.1-20.1h-79.6s-20.1 0-20.1 20.1v79.6s0 20.1 20.1 20.1h24.3l18 25.4s2.1 2.4 5.6 2.4h23.6-.3c-3.3-.2-5.2-2.4-5.2-2.4s-34.9-49.5-36.4-51c-2.3-2.3-5.1-2.4-5.6-2.4h23.8c3.1 0 5.1 1.8 5.6 2.3l.1.1 18.3 25.6h7.9c-.1 0 20 0 20-20.1"/><path id="XMLID_18_" class="st1" d="M282.4 257.4h-7.1l2.9-10.5c.1-.4.3-.6.6-.6s.5.2.6.6l3 10.5zm5.7 9.9v-.2l-5.9-20.9c-.5-2-2.1-2.4-3.2-2.4-1.2 0-2.7.5-3.3 2.4l-5.9 20.9v.2c0 .3.2.5.5.5h1.9c.3 0 .5-.2.6-.5l2.1-7.4h8.3l2.1 7.4c.1.3.3.5.5.5h1.9c.2 0 .4-.2.4-.5M264 239.2v-.7c0-.3-.2-.5-.5-.5h-1c-.3 0-.5.3-.5.5v.7c0 1.1-.3 1.4-1 1.4-.3 0-.8-.2-1.1-.4l-2.3-1.8c-.6-.4-1.2-.8-1.9-.8-1.9 0-3 1.2-3 3.5v.7c0 .3.2.5.5.5h1c.3 0 .5-.3.5-.5v-.7c0-1 .2-1.5 1-1.5.4 0 .5.1 1.3.7l2 1.6c.6.4 1.3.7 2.1.7 2.1-.1 2.9-1.2 2.9-3.4m3 27.6v-22.3c0-.3-.2-.6-.6-.6h-1.7c-.3 0-.6.3-.6.6V263.4l-.1-.1-9.8-18.7c-.3-.5-.4-.6-1.3-.6h-1.8c-.5 0-.9.4-.9.9v22.5c0 .3.3.4.6.4h1.7c.3 0 .6-.3.6-.6v-18.7-.1s.1 0 .1.1l9.9 18.8c.2.3.5.5 1 .5h2c.5 0 .9-.4.9-1m-25.1-9.4h-7.1l2.9-10.5c.1-.4.3-.6.6-.6s.5.2.6.6l3 10.5zm5.7 9.9v-.2l-5.9-20.9c-.5-2-2.1-2.4-3.2-2.4-1.2 0-2.7.5-3.3 2.4l-5.9 20.9v.2c0 .3.2.5.5.5h1.9c.3 0 .5-.2.6-.5l2.1-7.4h8.3l2.1 7.4c.1.3.3.5.5.5h1.9c.2 0 .4-.2.4-.5m-20.9-16.2c0 3.3-1.7 4.7-6.1 4.7-.8 0-2.5-.1-3.2-.1v-9.4c.8-.1 2.2-.1 3.2-.1 4.1 0 6.1 1.3 6.1 4.5v.4zm2.9 0v-.4c0-5.2-3.8-7-9-7-1.9 0-3.9.1-5.3.3-.5.1-.8.4-.8.8v22.3c0 .4.3.6.6.6h1.7c.4 0 .6-.3.6-.6v-9c.8.1 2.2.2 3.2.2 5.2 0 9-1.8 9-7.2m-18.4 10.5c0-2.6-1.3-4.3-5-6.5l-3-1.8c-2.4-1.5-3.5-2.4-3.5-3.9 0-2.3 1.4-3 4.7-3 1.9 0 4.1.1 5.5.2h.1c.3 0 .5-.2.5-.5v-1.4c0-.3-.2-.5-.5-.5-1.2-.2-3.7-.4-5.6-.4-4.9 0-7.7 1.8-7.7 5.7 0 2.6 1.5 4.2 4.4 6l3.1 1.9c2.9 1.8 3.8 2.7 3.8 4.3 0 2.2-1 3.8-4.9 3.8-1.5 0-3.8-.1-5.3-.2h-.1c-.3 0-.5.2-.5.5v1.3c0 .4.1.5.6.6 1.4.2 3.1.4 5.3.4 6.5-.1 8.1-3.4 8.1-6.5m-17 5.8v-1.6c0-.2-.1-.4-.4-.4h-6.2c-3.4 0-3.9-.9-3.9-3.3v-5.4h9.8c.4 0 .6-.3.6-.6v-1.2c0-.4-.3-.6-.6-.6h-9.8v-4.5c0-2.4.5-3.3 3.9-3.3h6.2c.2 0 .4-.2.4-.4v-1.6c0-.2-.1-.4-.3-.4-1.3-.1-4.4-.2-6.3-.2-4.5 0-6.8 1.7-6.8 6V262c0 4.3 2.3 6 6.8 6 1.9 0 5 0 6.3-.2.2 0 .3-.2.3-.4m-24 0v-1.6c0-.2-.1-.4-.4-.4h-6.2c-3.4 0-3.9-.9-3.9-3.3v-5.4h9.8c.4 0 .6-.3.6-.6v-1.2c0-.4-.3-.6-.6-.6h-9.8v-4.5c0-2.4.5-3.3 3.9-3.3h6.2c.2 0 .4-.2.4-.4v-1.6c0-.2-.1-.4-.3-.4-1.3-.1-4.4-.2-6.3-.2-4.5 0-6.8 1.7-6.8 6V262c0 4.3 2.3 6 6.8 6 1.9 0 5 0 6.3-.2.2 0 .3-.2.3-.4m-19.8-9.4c0 5.8-3 7.5-6.8 7.5-1.5 0-2.5 0-3.6-.1v-19.1c1.1-.1 2.1-.1 3.6-.1 3.8 0 6.8 1.7 6.8 7.5v4.3zm2.9 0v-4.3c0-6.9-3.8-10-9.7-10-2.4 0-4.9.2-5.8.3-.4.1-.7.4-.7.8v22c0 .5.3.7.7.8.9.2 3.4.3 5.8.3 5.9.1 9.7-3 9.7-9.9"/><path id="XMLID_17_" class="st1" d="M41.8 226.7l-14.4-20.3 1.1-.4c5.8-2.3 9.6-6.9 9.6-14.5v-.6c0-12.1-9.5-16-20.4-16-5.2 0-10.2.4-13.9.9-1.4.2-2.3.7-2.3 2.1v48.8c0 .8.6 1.4 1.4 1.4H10c.8 0 1.3-.6 1.3-1.4v-43.1c1.3-.1 4.8-.3 6.3-.3 7.1 0 10.6 2.3 10.6 7.6v.6c0 6.2-3.3 8.2-10.6 8.2h-2.1c-2.1 0-2.2 2.2-.6 4.5 1.3 1.8 3.2 4.5 3.2 4.5l12.9 18c.5.7 1.1 1.4 1.9 1.4h8.2c.6 0 .9-.3.9-.8 0-.1-.1-.4-.2-.6"/><path id="XMLID_16_" class="st1" d="M77.4 209.6v-4c0-10.6-6-18-16.9-18-10.8 0-17 6.9-17 18v5.2c0 14 10.1 17.8 17.2 17.8 6.4 0 9.1-.4 13.8-1.2 1.3-.2 1.5-.7 1.5-1.8V221c0-.7-.6-1.1-1.3-1.1h-.2c-3 .3-7.9.7-13 .7-6.8 0-8.5-4.9-8.5-9l.1-7.2c0-5.6 3.2-8.7 7.6-8.7s7.4 3.2 7.4 8.7v.3H39.2c-1.8 0-1 1.5-.6 2 .3.5 2.7 3.8 2.7 3.8s.3.4.6.6c.3.2.9.2.9.2h33.1c1 .1 1.5-.5 1.5-1.7"/><path id="XMLID_15_" class="st1" d="M115.3 228v-36.6c0-1.1-.3-1.5-1.9-1.9-4.4-1.1-9.7-1.8-14.2-1.8-11.4 0-16.9 6.7-16.9 17.8v5.5c0 11.1 5.5 17.8 16.9 17.8.8 0 1.9-.1 3.1-.2 1.4-.2 1.5-.2 1.8-.3 1.7-.4.2-2.4.2-2.4l-2-2.7s-.7-1.1-1.3-1.6c-.5-.5-1.5-.4-2-.4-6.1 0-7.6-4.3-7.6-10.1v-5.5c0-5.8 1.5-10.1 7.6-10.1 2.6 0 5.5.4 6.8.6v32.5c0 4.9-.9 6.3-6.6 6.3-3.3 0-10-.6-13.2-.9-.8 0-1.3.5-1.3 1.2v3.8c0 1 .4 1.4 1.4 1.7 2.6.9 7.3 1.7 13.3 1.7 10.8-.1 15.9-4.3 15.9-14.4"/><path id="XMLID_14_" class="st1" d="M132.5 181.4v-6.2c0-.8-.6-1.4-1.4-1.4h-6.9c-.8 0-1.5.6-1.5 1.4v6.2c0 .8.7 1.4 1.5 1.4h6.9c.8 0 1.4-.6 1.4-1.4"/><path id="XMLID_13_" class="st1" d="M132.3 226.6v-37.1c0-.8-.6-1.4-1.4-1.4h-6.5c-.8 0-1.4.6-1.4 1.4v37.1c0 .8.6 1.5 1.4 1.5h6.5c.7 0 1.4-.7 1.4-1.5"/><path id="XMLID_12_" class="st1" d="M166.8 217.6c0-3.6-.9-7.2-6.8-10.8l-9.3-5.7c-1.8-1.1-2.8-1.8-2.8-2.9 0-2.2 1.5-3 4.9-3 4 0 9.7.6 11.7.9h.3c.7 0 1.1-.5 1.1-1.3v-4.1c0-.9-.4-1.4-1.3-1.6-3.6-.8-6.9-1.4-12.6-1.4-9 0-13.5 3.5-13.5 10.6 0 4.1 2.5 7.7 6 9.8l9.7 6c2.3 1.4 3.1 2.3 3.1 3.6 0 1.9-.6 3.4-5 3.4-2.1 0-8.5-.4-11.9-.8h-.3c-.7 0-1.2.6-1.2 1.1v4.3c0 .9.5 1.4 1.3 1.6 4 1.1 9.9 1.4 12.7 1.4 9.3 0 13.9-4.9 13.9-11.1"/><path id="XMLID_11_" class="st1" d="M189.5 221.6c-.3-.2-1.1-.2-1.1-.2h-2.1c-3 0-4.3-.5-4.3-3.3v-22.9h10c.8 0 1.4-.6 1.4-1.4v-4.2c0-.8-.6-1.4-1.4-1.4h-10v-6.9c0-.7-.6-1.4-1.2-1.4h-.2L174 181c-.8.1-1.4.6-1.4 1.4v35.7c0 8.2 4.2 10.6 11.2 10.6 3 0 6.6-.3 8.3-.6.9-.1 1.2-.7 1.2-1 .1-.2 0-.6-.3-1l-.6-.8-2.1-2.9-.8-.8"/><path id="XMLID_10_" class="st1" d="M216.3 194.3v-5.4c0-1.1-1.2-1.2-2.1-1.2-6.1 0-9.9.6-14.4 2.1-1.3.4-1.9 1.2-1.9 2.1v34.8c0 .8.6 1.5 1.4 1.5h6.6c.8 0 1.3-.7 1.3-1.5V196c1.7-.4 4.6-.5 6.9-.5 1.8 0 2.2-.5 2.2-1.2"/><path id="XMLID_9_" class="st1" d="M250.5 226.7v-25.5c0-9.1-5.5-13.5-15.6-13.5-4.9 0-9 .6-11.8 1.1-.9.2-1.3.7-1.3 1.5v4.5c0 1 .6 1.2 1.3 1.2h.4c2.3-.3 7-.6 11.6-.6 4.2 0 6.2 1.1 6.2 5.7v3.1h-4.5c-12.3 0-17.3 4.2-17.3 12.3v.3c0 9.6 6.4 11.8 12.3 11.8 2.5 0 4.9-.6 7.3-1.7.6-.3 1.1-.8 1.2-1.2.1-.5-.4-1.2-.4-1.2l-1.8-2.5s-.6-.8-1-.9c-.4-.1-.9-.1-1.5 0-.5.1-1 .1-1.5.1-3.5 0-5.1-.9-5.1-4.4v-.3c0-4 1.4-6 7.9-6h4.5v16.2c0 .8.6 1.4 1.4 1.4h6.5c.6 0 1.2-.6 1.2-1.4"/><path id="XMLID_8_" class="st1" d="M289.7 224.9v-49.3c0-.8-.6-1.4-1.4-1.4h-6.5c-.8 0-1.4.6-1.4 1.4v44.9c-1.3.3-4.3.5-6.8.5-6.1 0-7.6-4.3-7.6-10.1v-5.5c0-5.8 1.5-10.1 7.6-10.1 1 0 2.4.1 3.9.2 1 .1 1.7-.3 1.7-.8 0-.7-.8-1.7-.8-1.7l-2.6-3.6s-.6-.9-.9-1.3c-.3-.4-1-.5-1.3-.5-11.4 0-16.9 6.7-16.9 17.8v5.5c0 11.1 5.5 17.8 16.9 17.8 4.5 0 9.9-.7 14.2-1.8 1.6-.5 1.9-.9 1.9-2"/><path id="XMLID_5_" class="st1" d="M320.4 211.1c0 5.8-2.6 9.6-7.6 9.6s-7.6-3.8-7.6-9.6v-5.7c0-5.8 2.6-9.6 7.6-9.6s7.6 3.8 7.6 9.6v5.7zm9.4 0v-5.7c0-10.1-5.8-17.7-16.9-17.7-11.1 0-16.9 7.5-16.9 17.7v5.7c0 10.1 5.8 17.7 16.9 17.7 11.1-.1 16.9-7.6 16.9-17.7"/><path id="XMLID_4_" class="st1" d="M354.4 194.3v-5.4c0-1.1-1.2-1.2-2.1-1.2-6.1 0-9.9.6-14.4 2.1-1.3.4-1.9 1.2-1.9 2.1v34.8c0 .8.6 1.5 1.4 1.5h6.6c.8 0 1.3-.7 1.3-1.5V196c1.7-.4 4.6-.5 6.9-.5 1.8 0 2.2-.5 2.2-1.2"/><path id="XMLID_3_" class="st1" d="M423.7 217.6c0-3.6-.9-7.2-6.8-10.8l-9.3-5.7c-1.8-1.1-2.8-1.8-2.8-2.9 0-2.2 1.5-3 4.9-3 4 0 9.7.6 11.7.9h.3c.7 0 1.1-.5 1.1-1.3v-4.1c0-.9-.4-1.4-1.3-1.6-3.6-.8-6.9-1.4-12.6-1.4-9 0-13.5 3.5-13.5 10.6 0 4.1 2.5 7.7 6 9.8l9.7 6c2.3 1.4 3.1 2.3 3.1 3.6 0 1.9-.6 3.4-5 3.4-2.1 0-8.5-.4-11.9-.8h-.3c-.7 0-1.2.6-1.2 1.1v4.3c0 .9.5 1.4 1.3 1.6 4 1.1 9.9 1.4 12.7 1.4 9.3 0 13.9-4.9 13.9-11.1"/><path id="XMLID_2_" class="st1" d="M390.6 209.6v-4c0-10.6-6-18-16.9-18-10.8 0-17 6.9-17 18v5.2c0 14 10.1 17.8 17.2 17.8 6.4 0 9.1-.4 13.8-1.2 1.3-.2 1.5-.7 1.5-1.8V221c0-.7-.6-1.1-1.3-1.1h-.2c-3 .3-7.9.7-13 .7-6.8 0-8.5-4.9-8.5-9l.1-7.2c0-5.6 3.2-8.7 7.6-8.7 4.4 0 7.4 3.2 7.4 8.7v.3h-28.7c-1.8 0-1 1.5-.6 2 .3.5 2.7 3.8 2.7 3.8s.3.4.6.6c.3.2.9.2.9.2h33.1c.9.1 1.3-.5 1.3-1.7"/></svg>
