<svg xmlns="http://www.w3.org/2000/svg" width="361" height="136" viewBox="0 0 361 136"><path fill-rule="evenodd" clip-rule="evenodd" fill="#EC2127" d="M338.787 54.75c0-3.838 2.975-6.943 6.607-6.943 3.652 0 6.596 3.105 6.596 6.942 0 3.842-2.943 6.947-6.596 6.947-3.632 0-6.607-3.105-6.607-6.948zm6.608 5.302c2.776 0 5.042-2.382 5.042-5.303 0-2.907-2.266-5.268-5.042-5.268-2.765 0-5.042 2.36-5.042 5.267 0 2.92 2.277 5.302 5.042 5.302zm-.9-2.26h-1.352v-6.116h2.453c.5 0 1.06.03 1.488.337.47.345.74.924.74 1.537 0 .678-.386 1.312-1 1.542l1.06 2.7h-1.504l-.895-2.397h-.99v2.397zm0-3.437h.755c.277 0 .598.01.83-.127.23-.15.33-.446.33-.708 0-.23-.132-.507-.33-.615-.202-.137-.61-.106-.846-.106h-.738v1.555zM244.322 8.583l-1.81 11.773c-3.926-2.09-6.813-2.91-9.897-2.91-8.23 0-14.05 8.366-14.05 20.31 0 8.248 3.908 13.218 10.333 13.218 2.727 0 5.724-.876 9.39-2.797l-1.93 12.39c-4.056 1.166-6.702 1.58-9.77 1.58-11.92 0-19.333-8.99-19.333-23.422 0-19.413 10.244-32.97 24.898-32.97 1.893 0 3.584.186 4.958.584l4.557 1.193c1.356.537 1.66.62 2.655 1.05zM207.633 16.652c-.347-.066-.73-.114-1.13-.114-3.643 0-5.702 1.927-9.084 7.185l.98-6.707H188.39L181.6 61.15h11.108c3.972-26.975 4.988-31.633 10.313-31.633.325 0 .355 0 .81.045.98-5.318 2.326-9.228 4.18-12.794l-.377-.116zM141.453 60.61c-3.005 1-5.38 1.455-7.93 1.455-5.643 0-8.724-3.437-8.724-9.708 0-1.23.09-2.557.314-3.957l.684-4.303.507-3.515 4.796-30.114h10.99l-1.26 6.548h5.656l-1.553 10.728h-5.642l-2.92 18.42c-.1.812-.184 1.412-.184 1.827 0 2.26 1.153 3.27 3.766 3.27 1.275 0 2.236-.132 2.975-.41l-1.474 9.76zM97.878 30.972c0 5.57 2.566 9.422 8.377 12.3 4.45 2.214 5.157 2.86 5.157 4.868 0 2.742-1.975 4.012-6.325 4.012-3.28 0-6.348-.548-9.883-1.767l-1.53 10.18.5.106 2.03.43c.653.14 1.614.264 2.882.4 2.636.247 4.657.365 6.087.365 11.596 0 16.96-4.682 16.96-14.734 0-6.04-2.235-9.61-7.76-12.285-4.612-2.197-5.135-2.715-5.135-4.764 0-2.393 1.83-3.623 5.38-3.623 2.166 0 5.103.257 7.907.657l1.575-10.19c-2.882-.492-7.162-.87-9.698-.87-12.304 0-16.57 6.772-16.524 14.918zM332.37 61.15h-10.462l.55-4.325c-3.048 3.416-6.175 4.907-10.215 4.907-8.085 0-13.383-7.285-13.383-18.32 0-14.68 8.233-27.073 18.01-27.073 4.296 0 7.544 1.86 10.603 6.04l2.406-15.503h10.895L332.37 61.15zm-16.315-10.392c5.165 0 8.775-6.133 8.775-14.868 0-5.61-2.06-8.664-5.88-8.664-5.01 0-8.57 6.158-8.57 14.843 0 5.778 1.917 8.688 5.675 8.688zM176.467 60.222c-3.782 1.188-7.438 1.788-11.358 1.772-12.328 0-18.77-6.784-18.77-19.755 0-15.168 8.193-26.332 19.33-26.332 9.083 0 14.917 6.257 14.917 16.063 0 3.248-.393 6.414-1.377 10.887h-21.98c-.092.672-.106.98-.106 1.37 0 5.157 3.288 7.755 9.72 7.755 3.944 0 7.494-.855 11.468-2.807l-1.845 11.047zm-6.202-26.28c.063-.922.078-1.674.078-2.233 0-3.608-1.946-5.714-5.234-5.714-3.507 0-6.02 2.813-7.05 7.916l12.205.03zM53.497 61.15H42.453l6.325-41.706L34.645 61.15h-7.57l-.914-41.46L19.5 61.15H9.154l8.63-54.274H33.7l.438 33.584L44.88 6.876H62.06l-8.56 54.273M81.955 41.49c-1.17-.14-1.683-.19-2.475-.19-6.263 0-9.437 2.28-9.437 6.737 0 2.748 1.56 4.5 3.973 4.5 4.496 0 7.755-4.5 7.94-11.047zm8.04 19.66H80.84l.2-4.583c-2.79 3.654-6.517 5.35-11.582 5.35-6.01 0-10.113-4.92-10.113-12.025 0-10.774 7.17-17.03 19.428-17.03 1.252 0 2.85.098 4.496.328.344-1.46.437-2.09.437-2.864 0-2.915-1.92-4.02-7.102-4.02-3.127 0-6.717.475-9.19 1.26l-1.538.445-.968.287 1.52-9.898c5.52-1.716 9.153-2.377 13.25-2.377 9.498 0 14.532 4.482 14.532 12.94 0 2.197-.16 3.827-.914 8.755l-2.313 15.637-.377 2.824-.284 2.248-.192 1.537-.138 1.184zM263.363 41.49c-1.15-.14-1.684-.19-2.456-.19-6.288 0-9.472 2.28-9.472 6.737 0 2.748 1.577 4.5 3.99 4.5 4.518 0 7.74-4.5 7.938-11.047zm8.047 19.66h-9.166l.213-4.583c-2.788 3.654-6.523 5.35-11.58 5.35-6.01 0-10.13-4.92-10.13-12.025 0-10.774 7.162-17.03 19.444-17.03 1.246 0 2.86.098 4.494.328.34-1.46.438-2.09.438-2.864 0-2.915-1.92-4.02-7.1-4.02-3.145 0-6.725.475-9.178 1.26l-1.572.445-.956.287 1.538-9.898c5.526-1.716 9.152-2.377 13.22-2.377 9.513 0 14.547 4.482 14.547 12.94 0 2.197-.19 3.827-.905 8.755l-2.33 15.637-.343 2.824-.31 2.248-.2 1.537-.122 1.184zM302.288 16.652c-.327-.066-.69-.114-1.112-.114-3.63 0-5.704 1.927-9.102 7.185l.986-6.707h-10L276.3 61.15h11.07c3.976-26.975 5.02-31.633 10.31-31.633.342 0 .32-.03.772.045 1.002-5.318 2.354-9.228 4.212-12.794l-.376-.116z"/><g fill-rule="evenodd" clip-rule="evenodd" fill="#F89620"><path d="M255.903 103.95c0 10.006-3.097 15.897-7.98 15.897-3.563.11-5.724-3.862-5.724-9.803 0-7.026 3.156-14.99 8.222-14.99 4.072 0 5.48 4.316 5.48 8.897zm10.872.185c0-11.12-5.495-19.777-15.823-19.777-11.89 0-19.59 10.526-19.59 26.022 0 11.094 4.55 20.165 15.808 20.165 11.36 0 19.605-8.043 19.605-26.41zM234.915 76.55l-1.69 11.76c-3.675-2.074-6.35-2.935-9.24-2.935-7.723 0-13.118 8.4-13.118 20.344 0 8.244 3.613 13.232 9.63 13.232 2.567 0 5.375-.876 8.783-2.8l-1.79 12.382c-3.82 1.177-6.314 1.58-9.15 1.58-11.13 0-18.06-8.995-18.06-23.43 0-19.42 9.566-32.975 23.27-32.975 1.773 0 3.343.224 4.64.582l4.23 1.2c1.304.518 1.574.61 2.495 1.06zM166.56 84.632c-.314-.087-.677-.122-1.06-.122-3.352 0-5.318 1.935-8.46 7.175l.914-6.695h-9.347l-6.31 44.138h10.32c3.714-27 4.696-31.647 9.647-31.647.292 0 .322 0 .753.05.93-5.338 2.184-9.25 3.92-12.822l-.376-.076zM301.39 128.656h-9.753l.502-4.308c-2.838 3.397-5.79 4.9-9.564 4.9-7.52 0-12.487-7.296-12.487-18.328 0-14.655 7.707-27.085 16.82-27.085 4.02 0 7.072 1.9 9.89 6.082l2.278-15.52h10.16l-7.848 54.26zm-15.26-10.382c4.862 0 8.214-6.128 8.214-14.87 0-5.626-1.915-8.646-5.465-8.646-4.696 0-8.032 6.135-8.032 14.848 0 5.75 1.79 8.668 5.282 8.668zM69.766 128.474c-3.51 1.21-6.932 1.797-10.574 1.797-11.528 0-17.545-6.797-17.545-19.764 0-15.146 7.654-26.32 18.044-26.32 8.51 0 13.934 6.247 13.934 16.053 0 3.24-.37 6.416-1.252 10.89H51.798c-.062.66-.085.987-.085 1.372 0 5.146 3.082 7.742 9.07 7.742 3.688 0 7.023-.86 10.72-2.795l-1.737 11.024zm-5.772-26.26c.047-.932.077-1.675.077-2.242 0-3.6-1.812-5.705-4.88-5.705-3.296 0-5.64 2.833-6.585 7.902l11.39.045zM192.556 128.474c-3.522 1.21-6.95 1.797-10.58 1.797-11.55 0-17.56-6.797-17.56-19.764 0-15.146 7.663-26.32 18.045-26.32 8.51 0 13.953 6.247 13.953 16.053 0 3.24-.385 6.416-1.3 10.89h-20.528c-.063.66-.1.987-.1 1.372 0 5.146 3.074 7.742 9.06 7.742 3.69 0 7.034-.86 10.732-2.795l-1.72 11.024zm-5.804-26.26c.068-.932.106-1.675.106-2.242 0-3.6-1.828-5.705-4.882-5.705-3.298 0-5.64 2.833-6.594 7.902l11.37.045zM336.612 128.474c-3.568 1.21-6.95 1.797-10.606 1.797-11.527 0-17.56-6.797-17.56-19.764 0-15.146 7.678-26.32 18.06-26.32 8.507 0 13.927 6.247 13.927 16.053 0 3.24-.354 6.416-1.27 10.89h-20.55c-.07.66-.086.987-.086 1.372 0 5.146 3.084 7.742 9.07 7.742 3.694 0 7.023-.86 10.73-2.795l-1.715 11.024zm-5.803-26.26c.045-.932.075-1.675.075-2.242 0-3.6-1.805-5.705-4.88-5.705-3.297 0-5.63 2.833-6.587 7.902l11.39.045zM39.21 86.627c-2.02-1.352-4.757-2.533-8.623-2.533-4.173 0-7.53.865-7.53 5.305 0 7.84 15.215 4.912 15.215 21.703 0 15.294-10.043 19.26-19.128 19.26-4.042 0-8.692-1.338-12.12-2.86l2.468-11.24c2.068 1.88 6.24 3.166 9.652 3.166 3.25 0 8.346-.89 8.346-6.563 0-8.885-15.208-5.58-15.208-21.175 0-14.266 8.884-18.54 17.454-18.54 4.826 0 9.36.71 12.02 2.476l-2.546 11zM99.99 128.458c-2.128 1.024-4.97 1.698-9.167 1.698-9.022 0-14.617-9.018-14.617-19.997 0-14.37 8.093-25.833 20.004-25.833 2.598 0 6.563 1.124 9.69 2.937l-2.282 10.54c-2.214-1.454-4.52-2.38-6.893-2.38-5.52 0-9.46 5.06-9.46 14.122 0 5.218 2.858 9.498 7.376 9.498 2.69 0 4.582-.567 6.896-1.92l-1.545 11.334zM138.603 117.406c-.53 3.797-1.022 7.483-1.315 11.444h-9.937l.84-7.134h-.102c-3.112 4.85-6.332 8.15-11.958 8.15-6.24 0-9.62-6.565-9.62-15.14 0-2.954.184-4.622.844-9.237l2.813-20.43h11.06l-2.968 20.49c-.3 2.2-.723 4.383-.723 6.66 0 2.582 1.176 5.194 4.158 5.034 4.533 0 7.208-5.545 7.97-12.015l3.05-20.17h10.706l-4.817 32.346zM346.914 128.317h-1.672v-7.32h-2.418v-1.568h6.508v1.567h-2.418v7.32M358 128.317h-1.562v-7.43h-.022l-1.493 7.43h-1.638l-1.458-7.43h-.023v7.43h-1.558v-8.888h2.438l1.45 7.006h.023l1.425-7.007H358v8.887"/></g></svg>