<svg xmlns="http://www.w3.org/2000/svg" viewBox="0 0 316 56.7"><path class="st0" d="M38.4 19.7c0-2.2-.6-4.1-1.6-5.5-1-1.4-2.3-2.4-3.9-3.1-1.5-.7-3.2-1.1-4.8-1.4-1.6-.3-3.2-.3-4.5-.3H7.4s1.9 1.6 3.8 2.3c1.6.6 3.5.6 3.5.6h8.9c5 0 7.4 4.4 7.4 7.4 0 3.6-3 7.4-7.4 7.4h-3s-1.2-.1-2.1.8c-.9.9-.9 2.1-.9 2.1h8.9c6.3 0 11.9-4.4 11.9-10.3m5.7 36.9c-.3 0-1.2-.1-2-.9L28.6 36.9s-.8-.9-2.1-.9h-8.8c.2 0 1.2 0 2.1.9.6.6 13.5 18.9 13.5 18.9s.8.9 2.1.9h8.7z" fill="none"/><path d="M313.1 25.2h-4.4l1.8-6.5c.1-.2.2-.4.4-.4s.3.1.4.4l1.8 6.5zm3.5 6.1v-.1L313 18.3c-.3-1.2-1.3-1.5-2-1.5s-1.7.3-2 1.5l-3.6 12.8v.1c0 .2.1.3.3.3h1.2c.2 0 .3-.1.4-.3l1.3-4.5h5.1l1.3 4.5c0 .2.2.3.3.3h1.2c0 .1.1 0 .1-.2M301.8 14v-.5c0-.2-.1-.3-.3-.3h-.6c-.2 0-.3.2-.3.3v.5c0 .7-.2.9-.6.9-.2 0-.5-.1-.7-.3l-1.4-1.1c-.4-.3-.7-.5-1.2-.5-1.2 0-1.9.7-1.9 2.1v.4c0 .2.1.3.3.3h.6c.2 0 .3-.2.3-.3v-.4c0-.6.1-.9.6-.9.2 0 .3.1.8.4l1.2 1c.4.3.8.4 1.3.4 1.4.1 1.9-.6 1.9-2m1.9 17V17.3c0-.2-.1-.4-.4-.4h-1c-.2 0-.4.2-.4.4v11.6-.1l-6.1-11.5c-.2-.3-.3-.4-.8-.4h-1.1c-.3 0-.6.2-.6.6v13.9c0 .2.2.2.4.2h1c.2 0 .4-.2.4-.4V19.7v-.1l.1.1 6.1 11.6c.1.2.3.3.6.3h1.2c.3 0 .6-.3.6-.6m-15.4-5.8h-4.4l1.8-6.5c.1-.2.2-.4.4-.4s.3.1.4.4l1.8 6.5zm3.4 6.1v-.1l-3.6-12.9c-.3-1.2-1.3-1.5-2-1.5s-1.7.3-2 1.5l-3.6 12.8v.1c0 .2.1.3.3.3h1.2c.2 0 .3-.1.4-.3l1.3-4.5h5.1l1.3 4.5c0 .2.2.3.3.3h1.2c0 .1.1 0 .1-.2m-12.8-10c0 2-1 2.9-3.7 2.9-.5 0-1.5-.1-2-.1v-5.8c.5 0 1.4-.1 2-.1 2.5 0 3.7.8 3.7 2.8v.3zm1.8 0V21c0-3.2-2.3-4.3-5.5-4.3-1.1 0-2.4.1-3.3.2-.3 0-.5.2-.5.5v13.7c0 .2.2.4.4.4h1.1c.2 0 .4-.2.4-.4v-5.5c.5 0 1.3.1 2 .1 3 .1 5.4-1.1 5.4-4.4m-11.3 6.5c0-1.6-.8-2.7-3.1-4l-1.8-1.1c-1.5-.9-2.1-1.5-2.1-2.4 0-1.4.9-1.9 2.9-1.9 1.1 0 2.5.1 3.4.1.2 0 .3-.1.3-.3v-.8c0-.2-.1-.3-.3-.3-.7-.1-2.3-.2-3.4-.2-3 0-4.7 1.1-4.7 3.5 0 1.6.9 2.6 2.7 3.7l1.9 1.2c1.8 1.1 2.4 1.7 2.4 2.6 0 1.4-.6 2.3-3 2.3-.9 0-2.3 0-3.3-.1h-.1c-.2 0-.3.1-.3.3v.8c0 .2 0 .3.4.4.9.1 1.9.3 3.3.3 3.8-.2 4.8-2.2 4.8-4.1m-10.5 3.6v-1c0-.1-.1-.2-.2-.2h-3.8c-2.1 0-2.4-.6-2.4-2v-3.3h6.1c.2 0 .4-.2.4-.4v-.7c0-.2-.2-.4-.4-.4h-6.1v-2.7c0-1.5.3-2 2.4-2h3.8c.1 0 .2-.1.2-.2v-1c0-.1-.1-.3-.2-.3-.8-.1-2.7-.1-3.8-.1-2.8 0-4.2 1-4.2 3.7v7.6c0 2.6 1.4 3.7 4.2 3.7 1.2 0 3.1 0 3.8-.1.1-.4.2-.5.2-.6m-14.7 0v-1c0-.1-.1-.2-.2-.2h-3.8c-2.1 0-2.4-.6-2.4-2v-3.3h6.1c.2 0 .4-.2.4-.4v-.7c0-.2-.2-.4-.4-.4h-6.1v-2.7c0-1.5.3-2 2.4-2h3.8c.1 0 .2-.1.2-.2v-1c0-.1-.1-.3-.2-.3-.8-.1-2.7-.1-3.8-.1-2.8 0-4.2 1-4.2 3.7v7.6c0 2.6 1.4 3.7 4.2 3.7 1.2 0 3.1 0 3.8-.1.1-.4.2-.5.2-.6M232 25.6c0 3.5-1.8 4.6-4.2 4.6h-2.2V18.4c.6 0 1.3-.1 2.2-.1 2.4 0 4.2 1 4.2 4.6v2.7zm1.8 0v-2.7c0-4.3-2.3-6.1-6-6.1-1.5 0-3 .1-3.6.2-.3 0-.4.2-.4.5V31c0 .3.2.5.4.5.6.1 2.1.2 3.6.2 3.6 0 6-1.9 6-6.1"/><path class="st1" d="M75.9 31.1l-5.3-7.5.4-.2c2.2-.8 3.5-2.6 3.5-5.4v-.2c0-4.5-3.5-5.9-7.6-5.9-1.9 0-3.8.1-5.1.3-.5.1-.8.3-.8.8v18.1c0 .3.2.5.5.5h2.6c.3 0 .5-.2.5-.5v-16c.5-.1 1.8-.1 2.3-.1 2.6 0 3.9.8 3.9 2.8v.2c0 2.3-1.2 3-3.9 3h-.8c-.8 0-.8.8-.2 1.6.5.7 1.2 1.7 1.2 1.7l4.8 6.7c.2.2.4.5.7.5h3c.2 0 .4-.1.4-.3 0 .1 0 0-.1-.1"/><path class="st1" d="M89.1 24.8v-1.5c0-3.9-2.2-6.7-6.3-6.7-4 0-6.3 2.6-6.3 6.7v1.9c0 5.2 3.7 6.6 6.4 6.6 2.4 0 3.4-.1 5.1-.4.5-.1.6-.3.6-.7V29c0-.3-.2-.4-.5-.4H88c-1.1.1-2.9.3-4.8.3-2.5 0-3.2-1.8-3.2-3.3v-2.7c0-2.1 1.2-3.2 2.8-3.2 1.6 0 2.8 1.2 2.8 3.2v.1H74.9c-.7 0-.4.6-.2.7.1.2 1 1.4 1 1.4l.2.2c.1.1.4.1.4.1h12.2c.4.1.6-.2.6-.6M103.1 31.6V18c0-.4-.1-.6-.7-.7-1.6-.4-3.6-.7-5.3-.7-4.2 0-6.3 2.5-6.3 6.6v2c0 4.1 2 6.6 6.3 6.6.3 0 .7 0 1.2-.1s.6-.1.7-.1c.6-.2.1-.9.1-.9l-.7-1s-.3-.4-.5-.6c-.2-.1-.6-.1-.8-.1-2.3 0-2.8-1.6-2.8-3.8v-2c0-2.2.6-3.8 2.8-3.8.9 0 2 .1 2.5.2v12.1c0 1.8-.3 2.3-2.4 2.3-1.2 0-3.7-.2-4.9-.3h-.1c-.3 0-.5.2-.5.4v1.4c0 .4.2.5.5.6 1 .3 2.7.6 4.9.6 4.1.2 6-1.4 6-5.1M109.5 14.3V12c0-.3-.2-.5-.5-.5h-2.5c-.3 0-.6.2-.6.5v2.3c0 .3.3.5.6.5h2.5c.3.1.5-.2.5-.5M109.4 31.1V17.4c0-.3-.2-.5-.5-.5h-2.4c-.3 0-.5.2-.5.5v13.7c0 .3.2.6.5.6h2.4c.3 0 .5-.3.5-.6M122.2 27.8c0-1.3-.3-2.7-2.5-4l-3.4-2.1c-.7-.4-1.1-.7-1.1-1.1 0-.8.6-1.1 1.8-1.1 1.5 0 3.6.2 4.3.3h.1c.3 0 .4-.2.4-.5v-1.5c0-.3-.2-.5-.5-.6-1.3-.3-2.5-.5-4.7-.5-3.3 0-5 1.3-5 3.9 0 1.5.9 2.8 2.2 3.6l3.6 2.2c.8.5 1.2.8 1.2 1.3 0 .7-.2 1.3-1.9 1.3-.8 0-3.2-.1-4.4-.3h-.1c-.3 0-.4.2-.4.4v1.6c0 .3.2.5.5.6 1.5.4 3.7.5 4.7.5 3.5.1 5.2-1.8 5.2-4M130.6 29.2c-.1-.1-.4-.1-.4-.1h-.8c-1.1 0-1.6-.2-1.6-1.2v-8.5h3.7c.3 0 .5-.2.5-.5v-1.5c0-.3-.2-.5-.5-.5h-3.7v-2.6c0-.3-.2-.5-.4-.5h-.1l-2.4.4c-.3.1-.5.2-.5.5v13.2c0 3 1.5 3.9 4.1 3.9 1.1 0 2.4-.1 3.1-.2.3-.1.4-.3.5-.4 0-.1 0-.2-.1-.4s-.2-.3-.2-.3l-.8-1.1c-.1.1-.3-.1-.4-.2M140.5 19.1v-2c0-.4-.4-.4-.8-.4-2.3 0-3.6.2-5.3.8-.5.2-.7.4-.7.8v12.9c0 .3.2.6.5.6h2.4c.3 0 .5-.3.5-.6V19.8c.6-.1 1.7-.2 2.6-.2.7 0 .8-.2.8-.5M153.2 31.1v-9.5c0-3.4-2-5-5.8-5-1.8 0-3.3.2-4.4.4-.3.1-.5.3-.5.6v1.7c0 .4.2.4.5.4h.1c.9-.1 2.6-.2 4.3-.2 1.5 0 2.3.4 2.3 2.1v1.2H148c-4.6 0-6.4 1.5-6.4 4.5v.1c0 3.5 2.4 4.4 4.5 4.4.9 0 1.8-.2 2.7-.6.2-.1.4-.3.4-.5s-.2-.5-.2-.5l-.7-.9s-.2-.3-.4-.3h-1.1c-1.3 0-1.9-.3-1.9-1.6v-.1c0-1.5.5-2.2 2.9-2.2h1.7v6c0 .3.2.5.5.5h2.4c.6.1.8-.2.8-.5M167.7 30.5V12.2c0-.3-.2-.5-.5-.5h-2.4c-.3 0-.5.2-.5.5v16.6c-.5.1-1.6.2-2.5.2-2.3 0-2.8-1.6-2.8-3.8v-2c0-2.2.6-3.8 2.8-3.8.4 0 .9 0 1.4.1.4 0 .6-.1.6-.3 0-.3-.3-.6-.3-.6l-.9-1.3s-.2-.3-.3-.5c-.1-.1-.4-.2-.5-.2-4.2 0-6.3 2.5-6.3 6.6v2c0 4.1 2 6.6 6.3 6.6 1.7 0 3.7-.3 5.3-.7.5-.1.6-.2.6-.6M179.1 25.3c0 2.2-1 3.5-2.8 3.5-1.8 0-2.8-1.4-2.8-3.5v-2.1c0-2.2 1-3.5 2.8-3.5 1.8 0 2.8 1.4 2.8 3.5v2.1zm3.5 0v-2.1c0-3.8-2.2-6.5-6.3-6.5s-6.3 2.8-6.3 6.5v2.1c0 3.8 2.2 6.5 6.3 6.5 4.1.1 6.3-2.7 6.3-6.5M191.7 19.1v-2c0-.4-.4-.4-.8-.4-2.3 0-3.6.2-5.3.8-.5.2-.7.4-.7.8v12.9c0 .3.2.6.5.6h2.4c.3 0 .5-.3.5-.6V19.8c.6-.1 1.7-.2 2.6-.2.6 0 .8-.2.8-.5M217.4 27.8c0-1.3-.3-2.7-2.5-4l-3.4-2.1c-.7-.4-1.1-.7-1.1-1.1 0-.8.6-1.1 1.8-1.1 1.5 0 3.6.2 4.3.3h.1c.3 0 .4-.2.4-.5v-1.5c0-.3-.2-.5-.5-.6-1.3-.3-2.5-.5-4.7-.5-3.3 0-5 1.3-5 3.9 0 1.5.9 2.8 2.2 3.6l3.6 2.2c.8.5 1.2.8 1.2 1.3 0 .7-.2 1.3-1.9 1.3-.8 0-3.2-.1-4.4-.3h-.1c-.3 0-.4.2-.4.4v1.6c0 .3.2.5.5.6 1.5.4 3.7.5 4.7.5 3.5.1 5.2-1.8 5.2-4"/><path class="st1" d="M205.1 24.8v-1.5c0-3.9-2.2-6.7-6.3-6.7-4 0-6.3 2.6-6.3 6.7v1.9c0 5.2 3.7 6.6 6.4 6.6 2.4 0 3.4-.1 5.1-.4.5-.1.6-.3.6-.7V29c0-.3-.2-.4-.5-.4h-.1c-1.1.1-2.9.3-4.8.3-2.5 0-3.2-1.8-3.2-3.3v-2.7c0-2.1 1.2-3.2 2.8-3.2 1.6 0 2.8 1.2 2.8 3.2v.1H191c-.7 0-.4.6-.2.7.1.2 1 1.4 1 1.4l.2.2c.1.1.4.1.4.1h12.2c.4.1.5-.2.5-.6"/><path class="st2" d="M38 19.6c0 5.7-5.3 10-11.4 10H18s0-1.2.9-2.1c.9-.9 2-.8 2-.8h2.9c3.7 0 6.4-2.8 7-5.8.1-.4.1-.9.1-1.3 0-.7-.1-1.5-.4-2.3-.1-.4-.3-.8-.5-1.2-.2-.4-.5-.8-.8-1.1-1.2-1.4-3-2.5-5.4-2.5h-8.6s-1.9-.1-3.4-.6C9.8 11.2 8 9.6 8 9.6h15.7c1.3 0 2.8.1 4.4.3 1.6.2 3.2.7 4.7 1.4s2.8 1.7 3.7 3c.9 1.3 1.5 3.1 1.5 5.3m7.1 18.6V9.7s0-7.2-7.2-7.2H9.4s-7.2 0-7.2 7.2v28.5s0 7.2 7.2 7.2h8.7c3.2 4.6 6.4 9.1 6.4 9.1s.7.9 2 .9h8.4c-1.2-.1-1.9-.8-1.9-.8s-1.2-1.7-2.9-4.1c-.3-.5-.7-1-1.1-1.5-.9-1.3-1.9-2.7-2.9-4.1-2-2.8-3.9-5.5-5.1-7.1-.3-.5-.6-.8-.8-1.1-.1-.2-.2-.3-.2-.3-.8-.8-1.8-.9-2-.9h8.6c.6 0 1.2.2 1.5.4.2.1.3.2.4.3l.1.1 6.6 9.2H38c0-.1 7.1-.1 7.1-7.3"/></svg>