<svg xmlns="http://www.w3.org/2000/svg" height="19.1" viewBox="0 0 63 19.1" width="63"><path fill="#3c58bf" d="M28.2 18.6h-5.1l3.2-18h5"/><path fill="#293688" d="M28.2 18.6h-5.1l4.1-18h4.1"/><path d="M46.3.8c-1-.4-2.6-.8-4.6-.8-5 0-8.6 2.5-8.6 6.1 0 2.7 2.5 4.1 4.5 5 2 .9 2.6 1.5 2.6 2.3 0 1.2-1.6 1.8-3 1.8-2 0-3.1-.3-4.8-1l-.7-.3L31 18c1.2.5 3.4 1 5.7 1 5.3 0 8.8-2.5 8.8-6.3 0-2.1-1.3-3.7-4.3-5-1.8-.9-2.9-1.4-2.9-2.3 0-.8.9-1.6 2.9-1.6 1.7 0 2.9.3 3.8.7l.5.2.8-3.9z" fill="#3c58bf"/><path d="M46.3.8c-1-.4-2.6-.8-4.6-.8-5 0-7.7 2.5-7.7 6.1 0 2.7 1.6 4.1 3.6 5 2 .9 2.6 1.5 2.6 2.3 0 1.2-1.6 1.8-3 1.8-2 0-3.1-.3-4.8-1l-.7-.3L31 18c1.2.5 3.4 1 5.7 1 5.3 0 8.8-2.5 8.8-6.3 0-2.1-1.3-3.7-4.3-5-1.8-.9-2.9-1.4-2.9-2.3 0-.8.9-1.6 2.9-1.6 1.7 0 2.9.3 3.8.7l.5.2.8-3.9z" fill="#293688"/><path d="M54.9.6c-1.2 0-2.1.1-2.6 1.3l-7.5 16.7h5.4l1-3h6.4l.6 3H63L58.8.6h-3.9zm-2.3 12c.3-.9 2-5.3 2-5.3s.4-1.1.7-1.8l.3 1.7s1 4.5 1.2 5.5h-4.2v-.1z" fill="#3c58bf"/><path d="M56.1.6c-1.2 0-2.1.1-2.6 1.3l-8.7 16.7h5.4l1-3h6.4l.6 3H63L58.8.6h-2.7zm-3.5 12c.4-1 2-5.3 2-5.3s.4-1.1.7-1.8l.3 1.7s1 4.5 1.2 5.5h-4.2v-.1z" fill="#293688"/><path d="M13.9 13.2l-.5-2.6c-.9-3-3.8-6.3-7-7.9l4.5 16h5.4l8.1-18H19l-5.1 12.5z" fill="#3c58bf"/><path d="M13.9 13.2l-.5-2.6c-.9-3-3.8-6.3-7-7.9l4.5 16h5.4l8.1-18H20l-6.1 12.5z" fill="#293688"/><path d="M0 .6l.9.2c6.4 1.5 10.8 5.3 12.5 9.8l-1.8-8.5C11.3.9 10.4.6 9.3.6H0z" fill="#ffbc00"/><path d="M0 .6C6.4 2.1 11.7 6 13.4 10.5l-1.7-7.1c-.3-1.2-1.3-1.9-2.4-1.9L0 .6z" fill="#f7981d"/><path d="M0 .6C6.4 2.1 11.7 6 13.4 10.5l-1.2-3.9c-.3-1.2-.7-2.4-2.1-2.9L0 .6z" fill="#ed7c00"/><path d="M18.9 12.6l-3.4-3.4-1.6 3.8-.4-2.5c-.9-3-3.8-6.3-7-7.9l4.5 16h5.4l2.5-6zM28.2 18.6l-4.3-4.4-.8 4.4M39.7 12.4c.4.4.6.7.5 1.1 0 1.2-1.6 1.8-3 1.8-2 0-3.1-.3-4.8-1l-.7-.3-.7 4.1c1.2.5 3.4 1 5.7 1 3.2 0 5.8-.9 7.3-2.5l-4.3-4.2zM45.5 18.6h4.7l1-3h6.4l.6 3H63l-1.7-7.3-6-5.8.3 1.6s1 4.5 1.2 5.5h-4.2c.4-1 2-5.3 2-5.3s.4-1.1.7-1.8" fill="#051244"/></svg>