<svg id="logo-registradores" xmlns="http://www.w3.org/2000/svg" viewBox="0 0 433.5 183"><path class="st0" d="M416.5 40.6c0 13.5-12.7 23.7-27.1 23.7h-20.3s0-2.9 2.1-4.9c2-2 4.7-1.9 4.7-1.9h6.8c8.9 0 15.2-6.7 16.6-13.8.2-1 .3-2.1.3-3.1 0-1.7-.3-3.6-1-5.5-.3-1-.8-1.9-1.3-2.8-.5-.9-1.1-1.8-1.8-2.7-2.8-3.4-7-5.9-12.8-5.9h-20.3s-4.5-.1-8.1-1.5c-4.5-1.7-8.8-5.3-8.8-5.3h37.2c3 0 6.6.2 10.3.8 3.7.6 7.6 1.6 11.1 3.2s6.6 3.9 8.9 7.1c2.1 3.1 3.5 7.5 3.5 12.6m17 44.1V17s0-17-17-17h-67.7s-17 0-17 17v67.7s0 17 17 17h20.6c7.7 10.8 15.3 21.6 15.3 21.6s1.7 2 4.8 2h20.1-.2c-2.8-.2-4.4-2-4.4-2s-2.9-4.1-6.9-9.8c-.8-1.1-1.7-2.3-2.5-3.6-2.2-3.1-4.6-6.5-7-9.8-4.7-6.7-9.4-13.1-12.1-16.9-.8-1.1-1.5-2-1.9-2.6-.3-.4-.5-.6-.6-.7-1.9-1.9-4.3-2-4.8-2h20.3c1.5 0 2.7.5 3.5 1 .4.3.7.5.9.7l.3.3 15.6 21.8h6.7c-.1.1 17 .1 17-17"/><path class="st1" d="M354 174h-6l2.5-9c.1-.3.2-.5.5-.5s.4.2.5.5l2.5 9zm4.8 8.4v-.2l-5-17.8c-.5-1.7-1.7-2-2.8-2-1 0-2.3.4-2.8 2.1l-5 17.8v.2c0 .2.2.4.5.4h1.6c.2 0 .4-.2.5-.4l1.7-6.3h7.1l1.8 6.3c.1.2.2.4.5.4h1.6c.2-.1.3-.3.3-.5m-20.5-23.9v-.6c0-.2-.2-.5-.4-.5h-.9c-.2 0-.5.2-.5.5v.6c0 .9-.3 1.2-.8 1.2-.2 0-.7-.2-1-.4l-1.9-1.5c-.5-.4-1-.7-1.6-.7-1.6 0-2.6 1-2.6 3v.6c0 .2.2.5.4.5h.8c.2 0 .5-.2.5-.5v-.6c0-.8.2-1.3.8-1.3.3 0 .5.1 1.1.6l1.7 1.3c.5.4 1.1.6 1.7.6 2 0 2.7-1 2.7-2.8m2.6 23.5v-19c0-.3-.2-.5-.5-.5H339c-.3 0-.5.2-.5.5v16.1l-.1-.1-8.4-15.9c-.2-.4-.4-.5-1.1-.5h-1.5c-.4 0-.8.3-.8.8v19.2c0 .3.2.3.5.3h1.4c.3 0 .5-.2.5-.5v-15.9-.1s.1 0 .1.1l8.4 16c.1.3.4.4.9.4h1.7c.4-.1.8-.5.8-.9m-21.4-8h-6l2.5-9c.1-.3.2-.5.5-.5s.4.2.5.5l2.5 9zm4.9 8.4v-.2l-5-17.8c-.5-1.7-1.7-2-2.8-2-1 0-2.3.4-2.8 2.1l-5 17.8v.2c0 .2.2.4.5.4h1.6c.2 0 .4-.2.5-.4l1.7-6.3h7.1l1.8 6.3c.1.2.2.4.5.4h1.6c.1-.1.3-.3.3-.5m-17.8-13.8c0 2.8-1.4 4-5.2 4-.7 0-2.1-.1-2.7-.1v-8c.7-.1 1.9-.1 2.7-.1 3.5 0 5.2 1.1 5.2 3.8v.4zm2.4 0v-.4c0-4.4-3.2-5.9-7.6-5.9-1.6 0-3.4.1-4.5.2-.4.1-.7.3-.7.7v19c0 .3.2.5.5.5h1.5c.3 0 .5-.3.5-.5v-7.7c.7.1 1.9.1 2.7.1 4.4.1 7.6-1.4 7.6-6m-15.6 8.9c0-2.2-1.1-3.7-4.3-5.6l-2.5-1.5c-2.1-1.3-3-2-3-3.3 0-2 1.2-2.6 4-2.6 1.6 0 3.5.1 4.7.2h.1c.3 0 .5-.2.5-.4v-1.2c0-.3-.2-.4-.5-.5-1-.2-3.1-.3-4.7-.3-4.1 0-6.5 1.5-6.5 4.8 0 2.2 1.3 3.6 3.8 5.1l2.6 1.6c2.5 1.5 3.3 2.3 3.3 3.7 0 1.9-.9 3.2-4.1 3.2-1.3 0-3.2-.1-4.5-.2h-.1c-.2 0-.5.1-.5.4v1.1c0 .3.1.4.5.5 1.2.2 2.6.4 4.5.4 5.3.1 6.7-2.7 6.7-5.4m-14.5 5v-1.4c0-.2-.1-.3-.3-.3h-5.3c-2.9 0-3.4-.8-3.4-2.8v-4.6h8.4c.3 0 .5-.2.5-.5v-1c0-.3-.2-.5-.5-.5H270v-3.8c0-2.1.5-2.8 3.4-2.8h5.3c.2 0 .3-.1.3-.3v-1.4c0-.2-.1-.4-.3-.4-1.1-.1-3.7-.2-5.3-.2-3.8 0-5.8 1.4-5.8 5.1v10.5c0 3.6 2 5.1 5.8 5.1 1.6 0 4.3 0 5.3-.1.1-.3.2-.5.2-.6m-20.4 0v-1.4c0-.2-.1-.3-.3-.3H253c-2.9 0-3.4-.8-3.4-2.8v-4.6h8.4c.3 0 .5-.2.5-.5v-1c0-.3-.2-.5-.5-.5h-8.4v-3.8c0-2.1.5-2.8 3.4-2.8h5.3c.2 0 .3-.1.3-.3v-1.4c0-.2-.1-.4-.3-.4-1.1-.1-3.7-.2-5.3-.2-3.8 0-5.8 1.4-5.8 5.1v10.5c0 3.6 2 5.1 5.8 5.1 1.6 0 4.3 0 5.3-.1.1-.3.2-.5.2-.6m-16.8-8c0 4.9-2.5 6.4-5.8 6.4-1.3 0-2.2 0-3-.1v-16.3c.9-.1 1.7-.1 3-.1 3.3 0 5.8 1.4 5.8 6.4v3.7zm2.4 0v-3.7c0-5.9-3.2-8.5-8.3-8.5-2.1 0-4.2.1-5 .3-.4.1-.6.3-.6.7V182c0 .4.2.6.6.7.8.1 2.9.3 5 .3 5.1 0 8.3-2.7 8.3-8.5M34.3 147.8L22 130.6l1-.3c4.9-1.9 8.1-5.9 8.1-12.3v-.5c0-10.3-8.1-13.6-17.4-13.6-4.4 0-8.7.3-11.8.8-1.2.2-1.9.6-1.9 1.8V148c0 .7.5 1.2 1.2 1.2h6c.7 0 1.1-.5 1.1-1.2v-36.6c1.1-.1 4.1-.2 5.4-.2 6 0 9 1.9 9 6.4v.5c0 5.3-2.8 7-9 7h-1.8c-1.8 0-1.9 1.9-.5 3.8 1.1 1.5 2.8 3.8 2.8 3.8l11 15.3c.4.6 1 1.2 1.6 1.2h6.9c.5 0 .8-.3.8-.7 0-.3-.1-.5-.2-.7"/><path class="st1" d="M64.5 133.3v-3.4c0-9-5.1-15.3-14.3-15.3-9.2 0-14.5 5.9-14.5 15.3v4.5c0 11.9 8.6 15.1 14.6 15.1 5.4 0 7.8-.3 11.7-1 1.1-.2 1.3-.6 1.3-1.6v-4c0-.6-.5-.9-1.1-.9H62c-2.5.2-6.7.6-11.1.6-5.8 0-7.2-4.2-7.2-7.7l.1-6.1c0-4.8 2.7-7.4 6.4-7.4s6.3 2.7 6.3 7.4v.2H32c-1.5 0-.8 1.3-.5 1.7.3.4 2.3 3.2 2.3 3.2s.2.3.5.5.8.2.8.2h28.1c.9.2 1.3-.3 1.3-1.3M96.7 148.9v-31.1c0-.9-.2-1.3-1.6-1.6-3.7-1-8.3-1.6-12.1-1.6-9.7 0-14.4 5.7-14.4 15.1v4.6c0 9.4 4.7 15.1 14.4 15.1.7 0 1.6-.1 2.6-.2 1.2-.1 1.3-.2 1.6-.2 1.4-.4.2-2.1.2-2.1l-1.7-2.3s-.6-1-1.1-1.4c-.5-.4-1.2-.3-1.7-.3-5.2 0-6.4-3.7-6.4-8.6v-4.6c0-4.9 1.3-8.6 6.4-8.6 2.2 0 4.6.3 5.8.5V149.3c0 4.2-.7 5.4-5.6 5.4-2.8 0-8.5-.5-11.2-.7h-.1c-.7 0-1.1.4-1.1 1v3.2c0 .8.4 1.2 1.2 1.4 2.2.7 6.2 1.4 11.3 1.4 9.2.1 13.5-3.5 13.5-12.1M111.4 109.3V104c0-.7-.5-1.2-1.2-1.2h-5.8c-.7 0-1.3.5-1.3 1.2v5.3c0 .7.6 1.2 1.3 1.2h5.8c.6 0 1.2-.5 1.2-1.2M111.2 147.8v-31.5c0-.7-.5-1.2-1.2-1.2h-5.5c-.7 0-1.2.5-1.2 1.2v31.5c0 .7.5 1.3 1.2 1.3h5.5c.6-.1 1.2-.7 1.2-1.3M140.5 140.1c0-3.1-.7-6.1-5.8-9.2l-7.9-4.8c-1.5-.9-2.4-1.5-2.4-2.5 0-1.9 1.3-2.5 4.2-2.5 3.4 0 8.3.5 9.9.7h.2c.6 0 1-.4 1-1.1v-3.5c0-.7-.4-1.2-1.1-1.4-3.1-.7-5.8-1.2-10.7-1.2-7.7 0-11.4 3-11.4 9 0 3.5 2.1 6.5 5.1 8.3l8.3 5.1c1.9 1.2 2.7 1.9 2.7 3.1 0 1.6-.5 2.9-4.3 2.9-1.8 0-7.2-.3-10.1-.7h-.2c-.6 0-1 .5-1 1v3.6c0 .7.4 1.2 1.1 1.4 3.4.9 8.4 1.2 10.8 1.2 7.7 0 11.6-4.1 11.6-9.4M159.8 143.5c-.2-.1-.9-.2-.9-.2H157c-2.6 0-3.7-.4-3.7-2.8V121h8.5c.7 0 1.2-.5 1.2-1.2v-3.6c0-.7-.5-1.2-1.2-1.2h-8.5v-5.9c0-.6-.5-1.2-1-1.2h-.2l-5.6 1c-.7.1-1.2.5-1.2 1.2v30.4c0 7 3.6 9 9.5 9 2.5 0 5.6-.2 7-.5.8-.1 1-.6 1.1-.8.1-.2 0-.5-.3-.9-.2-.3-.5-.7-.5-.7l-1.8-2.5c.2.1-.3-.5-.5-.6M182.6 120.2v-4.6c0-.9-1-1-1.7-1-5.2 0-8.4.5-12.2 1.7-1.1.4-1.6 1-1.6 1.8v29.6c0 .7.5 1.3 1.2 1.3h5.6c.7 0 1.1-.6 1.1-1.3v-26c1.4-.3 3.9-.4 5.9-.4 1.3 0 1.7-.4 1.7-1.1M211.7 147.8v-21.7c0-7.7-4.7-11.5-13.3-11.5-4.2 0-7.7.5-10.1 1-.8.2-1.1.6-1.1 1.3v3.9c0 .8.5 1 1.1 1h.3c2-.2 6-.5 9.8-.5 3.6 0 5.3 1 5.3 4.9v2.7h-3.8c-10.5 0-14.7 3.6-14.7 10.4v.2c0 8.1 5.4 10.1 10.4 10.1 2.1 0 4.2-.5 6.2-1.4.5-.2.9-.7 1-1.1.1-.4-.4-1-.4-1l-1.5-2.1s-.5-.7-.9-.8c-.3-.1-.8 0-1.2 0-.4.1-.9.1-1.3.1-3 0-4.3-.8-4.3-3.7v-.2c0-3.4 1.2-5.1 6.7-5.1h3.8V148c0 .7.5 1.2 1.2 1.2h5.6c.6-.2 1.2-.7 1.2-1.4M244.9 146.3v-41.9c0-.7-.5-1.2-1.2-1.2h-5.5c-.7 0-1.2.5-1.2 1.2v38.2c-1.1.2-3.6.4-5.8.4-5.2 0-6.4-3.7-6.4-8.6v-4.6c0-4.9 1.3-8.6 6.4-8.6.8 0 2.1.1 3.3.2.9.1 1.5-.2 1.5-.7 0-.6-.7-1.5-.7-1.5l-2.2-3.1s-.5-.8-.8-1.1c-.3-.3-.8-.4-1.1-.4-9.7 0-14.4 5.7-14.4 15.1v4.6c0 9.4 4.7 15.1 14.4 15.1 3.9 0 8.4-.6 12.1-1.6 1.4-.2 1.6-.6 1.6-1.5M271.1 134.5c0 4.9-2.2 8.1-6.4 8.1s-6.4-3.2-6.4-8.1v-4.9c0-4.9 2.2-8.1 6.4-8.1s6.4 3.2 6.4 8.1v4.9zm7.9 0v-4.9c0-8.6-4.9-15-14.4-15s-14.4 6.4-14.4 15v4.9c0 8.6 4.9 15 14.4 15s14.4-6.4 14.4-15M299.9 120.2v-4.6c0-.9-1-1-1.7-1-5.2 0-8.4.5-12.2 1.7-1.1.4-1.6 1-1.6 1.8v29.6c0 .7.5 1.3 1.2 1.3h5.6c.7 0 1.1-.6 1.1-1.3v-26c1.4-.3 3.9-.4 5.9-.4 1.4 0 1.7-.4 1.7-1.1M358.9 140.1c0-3.1-.7-6.1-5.8-9.2l-7.9-4.8c-1.5-.9-2.4-1.5-2.4-2.5 0-1.9 1.3-2.5 4.2-2.5 3.4 0 8.3.5 9.9.7h.2c.6 0 1-.4 1-1.1v-3.5c0-.7-.4-1.2-1.1-1.4-3.1-.7-5.8-1.2-10.7-1.2-7.7 0-11.4 3-11.4 9 0 3.5 2.1 6.5 5.1 8.3l8.3 5.1c1.9 1.2 2.7 1.9 2.7 3.1 0 1.6-.5 2.9-4.3 2.9-1.8 0-7.2-.3-10.1-.7h-.2c-.6 0-1 .5-1 1v3.6c0 .7.4 1.2 1.1 1.4 3.4.9 8.4 1.2 10.8 1.2 7.7 0 11.6-4.1 11.6-9.4"/><path class="st1" d="M330.7 133.3v-3.4c0-9-5.1-15.3-14.3-15.3-9.2 0-14.5 5.9-14.5 15.3v4.5c0 11.9 8.6 15.1 14.6 15.1 5.4 0 7.8-.3 11.7-1 1.1-.2 1.3-.6 1.3-1.6v-4c0-.6-.5-.9-1.1-.9h-.2c-2.5.2-6.7.6-11.1.6-5.8 0-7.2-4.2-7.2-7.7l.1-6.1c0-4.8 2.7-7.4 6.4-7.4s6.3 2.7 6.3 7.4v.2h-24.4c-1.5 0-.8 1.3-.5 1.7.3.4 2.3 3.2 2.3 3.2s.2.3.5.5.8.2.8.2h28.1c.9.2 1.2-.3 1.2-1.3"/></svg>
