<?xml version="1.0" encoding="utf-8"?>
<!-- Generator: Adobe Illustrator 21.1.0, SVG Export Plug-In . SVG Version: 6.00 Build 0)  -->
<svg version="1.1" id="Capa_1" xmlns="http://www.w3.org/2000/svg" xmlns:xlink="http://www.w3.org/1999/xlink" x="0px" y="0px"
	 viewBox="0 0 446.2 420" style="enable-background:new 0 0 446.2 420;" xml:space="preserve">
<style type="text/css">
	.st0{fill:#FFFFFF;}
</style>
<title>Mercantil</title>
<g id="Capa_2">
	<g>
		<path class="st0" d="M14.9,152.6c-4.2,0-8.2-2.6-9.8-6.8c-2.1-5.4,0.7-11.5,6.1-13.5l171.3-64.9c2.4-0.9,5.1-0.9,7.5,0
			c27.7,10.7,71.1,27.3,83.4,31.7c17.3-8.4,100.2-55.3,151.8-84.9c5-2.9,11.4-1.1,14.3,3.9c2.9,5,1.1,11.4-3.9,14.3
			c-0.4,0.2-38.8,22.2-77.1,43.8c-22.5,12.7-40.6,22.8-53.8,30c-7.9,4.3-14.1,7.6-18.5,9.9c-7.7,4-10.6,5.3-14.6,4.5
			c-1-0.2-3.7-0.7-85.5-32.2L18.7,151.9C17.4,152.3,16.2,152.6,14.9,152.6z"/>
	</g>
	<g>
		<path d="M-607.5,691.5h4c0.3,0,0.5,0.2,0.5,0.5l0,0c0,0.3-0.2,0.5-0.5,0.5h-4c-0.3,0-0.5-0.2-0.5-0.5l0,0
			C-608,691.7-607.8,691.5-607.5,691.5z"/>
	</g>
	<g>
		<path class="st0" d="M26.1,171.8h69c6.6,0,12,5.4,12,12V394c0,6.6-5.4,12-12,12h-69c-6.6,0-12-5.4-12-12V183.8
			C14.1,177.1,19.5,171.8,26.1,171.8z"/>
	</g>
	<g>
		<path class="st0" d="M135.5,146h69c6.6,0,12,5.4,12,12v236.1c0,6.6-5.4,12-12,12h-69c-6.6,0-12-5.4-12-12V158
			C123.5,151.4,128.9,146,135.5,146z"/>
	</g>
	<g>
		<path class="st0" d="M244,172.3h69c6.6,0,12,5.4,12,12v210.3c0,6.6-5.4,12-12,12h-69c-6.6,0-12-5.4-12-12V184.3
			C232,177.7,237.4,172.3,244,172.3z"/>
	</g>
	<g>
		<path class="st0" d="M352,106.6h69c6.6,0,12,5.4,12,12v275c0,6.6-5.4,12-12,12h-69c-6.6,0-12-5.4-12-12v-275
			C340,112,345.4,106.6,352,106.6z"/>
	</g>
	<g>
		<path class="st0" d="M423.7,72.7c-0.9,0-1.8-0.1-2.8-0.4c-5.6-1.5-8.9-7.3-7.4-12.9l8.9-32.7c-15.6-2.5-33.3-5.4-35.7-5.7
			c-5.4-0.5-9.6-5-9.6-10.5c0-5.8,4.7-10.5,10.5-10.5c1.1,0,1.9,0,49.7,7.8c2.9,0.5,5.5,2.2,7.1,4.7c1.6,2.5,2.1,5.6,1.3,8.4l-12,44
			C432.5,69.6,428.3,72.7,423.7,72.7z M386.8,21c0.4,0,0.7,0,0.8,0C387.4,21,387.1,21,386.8,21z"/>
	</g>
</g>
</svg>
