<svg xmlns="http://www.w3.org/2000/svg" id="Capa_1" viewBox="0 0 54.3 84.4"><path d="M48.7 32.7H42c0-17.3-5.1-26-15.1-26s-15.1 8.8-15.1 26H5c0-9.4 1.5-17 4.4-22.4C12.7 3.8 19.5-.3 26.8 0 34.2-.3 41 3.8 44.3 10.4c2.9 5.4 4.4 12.9 4.4 22.3z" class="st0"/><path d="M48.6 84.4H5.7c-3.1 0-5.7-2.5-5.7-5.7V37.6C0 34.5 2.5 32 5.7 32h42.9c3.1 0 5.7 2.5 5.7 5.7v41.1c0 3-2.6 5.6-5.7 5.6zM21.2 76H34l-2.8-12.1s3.8-2.7 3.4-5.7c0 0 0-7.2-7.3-7.3-3.9-.2-7.3 2.7-7.6 6.7v.8s.7 4.2 3.6 5.7L21.2 76z" class="st0"/></svg>
