<svg xmlns="http://www.w3.org/2000/svg" viewBox="0 0 130.27499 108.0375" height="108.037" width="130.275"><path d="M9.025 1.937H121.25c3.915 0 7.088 3.173 7.088 7.088v72.488c0 3.914-3.173 7.087-7.088 7.087H9.025c-3.915 0-7.088-3.173-7.088-7.087V9.025c0-3.915 3.173-7.088 7.088-7.088z" fill="none" stroke="#af1e2d" stroke-width="3.875" stroke-miterlimit="10"/><path d="M8.95 17.612h113.113v-2.5H8.95v2.5zM12.525 7.45c1.097 0 1.987.89 1.987 1.987 0 1.098-.89 1.988-1.987 1.988-1.098 0-1.988-.89-1.988-1.988 0-1.097.89-1.987 1.988-1.987M19.287 7.45c1.098 0 1.988.89 1.988 1.987 0 1.098-.89 1.988-1.988 1.988-1.097 0-1.987-.89-1.987-1.988 0-1.097.89-1.987 1.987-1.987M26.462 7.537c1.098 0 1.988.89 1.988 1.988 0 1.097-.89 1.988-1.988 1.988-1.097 0-1.987-.89-1.987-1.988 0-1.098.89-1.988 1.987-1.988M15.35 29.688c-.946 0-1.71.766-1.71 1.712v.85c0 .946.764 1.713 1.71 1.713h55.025c.946 0 1.713-.767 1.713-1.713v-.85c0-.946-.767-1.712-1.713-1.712H15.35zM15.175 37.1H70.2c.946 0 1.713.767 1.713 1.712v.85c0 .946-.767 1.713-1.713 1.713H15.175c-.946 0-1.713-.767-1.713-1.713v-.85c0-.945.767-1.712 1.713-1.712M15.1 44.7h55.025c.946 0 1.712.767 1.712 1.712v.85c0 .946-.766 1.713-1.713 1.713H15.1c-.946 0-1.712-.767-1.712-1.712v-.85c0-.946.766-1.713 1.712-1.713M15.775 55.512H70.8c.946 0 1.712.767 1.712 1.712v.852c0 .944-.766 1.71-1.712 1.71H15.775c-.946 0-1.712-.766-1.712-1.71v-.85c0-.947.766-1.714 1.712-1.714M15.587 62.925h55.026c.945 0 1.713.767 1.713 1.713v.85c0 .946-.768 1.712-1.713 1.712H15.587c-.945 0-1.712-.766-1.712-1.712v-.85c0-.946.767-1.713 1.712-1.713M15.513 70.525h55.024c.946 0 1.713.767 1.713 1.712v.85c0 .947-.767 1.713-1.713 1.713H15.513c-.946 0-1.713-.766-1.713-1.712v-.85c0-.946.767-1.713 1.713-1.713M83.75 56.2h30.463v-27H83.75v27zM58.962 104.424h17.625v-8.2H58.95l.012 8.2zm21.25 3.614H55.325V92.613h24.887v15.425" /></svg>
