<svg id="Capa_1" xmlns="http://www.w3.org/2000/svg" viewBox="0 0 52 39"><style>.st0{fill:#B01F2E;}</style><path class="st0" d="M48 12h-.4L45 0H7L4.4 12H4c-2.2 0-4 1.8-4 4v17c0 1.1.9 2 2 2h3v2c0 1.1.9 2 2 2h9c1.1 0 2-.9 2-2v-2h17v2c0 1.1.9 2 2 2h9c1.1 0 2-.9 2-2v-2h2c1.1 0 2-.9 2-2V16c0-2.2-1.8-4-4-4zM17 35v2c0 .6-.4 1-1 1H7c-.6 0-1-.4-1-1v-2h11zm30 0v2c0 .6-.4 1-1 1h-9c-.6 0-1-.4-1-1v-2h11zm3-2H2V16c0-1.1.9-2 2-2h2l.3-1.6L8.6 2h34.8l2.2 10.4.4 1.6h2c1.1 0 2 .9 2 2v17z"/><path class="st0" d="M7 13h38v1H7zM12 22H8c-1.1 0-2 .9-2 2v3c0 1.1.9 2 2 2h4c1.1 0 2-.9 2-2v-3c0-1.1-.9-2-2-2zm1 5c0 .6-.4 1-1 1H8c-.6 0-1-.4-1-1v-3c0-.6.4-1 1-1h4c.6 0 1 .4 1 1v3zM44 22h-4c-1.1 0-2 .9-2 2v3c0 1.1.9 2 2 2h4c1.1 0 2-.9 2-2v-3c0-1.1-.9-2-2-2zm1 5c0 .6-.4 1-1 1h-4c-.6 0-1-.4-1-1v-3c0-.6.4-1 1-1h4c.6 0 1 .4 1 1v3zM17 27h18v1H17zM17 24h18v1H17z"/></svg>