<svg id="Capa_1" xmlns="http://www.w3.org/2000/svg" viewBox="0 0 36 53"><style>.st0{fill:#AF1E2D;}</style><path class="st0" d="M13.4 32.9c-.4-.4-.4-1 0-1.4s1-.4 1.4 0l.1.1c.4.4.4 1 0 1.4s-1 .4-1.5-.1m2.9 2.9c-.4-.4-.4-1 0-1.4.4-.4 1-.4 1.4 0l.1.1c.4.4.4 1 0 1.4-.4.4-1 .4-1.5-.1M13.9 21.9c-.4.4-1 .4-1.4 0s-.4-1 0-1.4l.1-.1c.4-.4 1-.4 1.4 0s.3 1.1-.1 1.5m2.9-2.9c-.4.4-1 .4-1.4 0-.4-.4-.4-1 0-1.4l.1-.1c.4-.4 1-.4 1.4 0 .3.4.3 1-.1 1.5M26.5 51c4.1 0 7.5-3.4 7.5-7.5S30.6 36 26.5 36 19 39.4 19 43.5s3.4 7.5 7.5 7.5m0 2c-5.2 0-9.5-4.3-9.5-9.5s4.3-9.5 9.5-9.5 9.5 4.3 9.5 9.5-4.3 9.5-9.5 9.5zM6.4 31.8c2.4 0 4.4-2 4.4-4.4 0-2.4-2-4.4-4.4-4.4S2 25 2 27.4c0 2.4 2 4.4 4.4 4.4m0 2C2.9 33.8 0 31 0 27.4 0 23.9 2.9 21 6.4 21c3.5 0 6.4 2.8 6.4 6.4 0 3.5-2.9 6.4-6.4 6.4zM26.5 17c4.1 0 7.5-3.4 7.5-7.5S30.6 2 26.5 2 19 5.4 19 9.5s3.4 7.5 7.5 7.5m0 2c-5.2 0-9.5-4.3-9.5-9.5S21.3 0 26.5 0 36 4.3 36 9.5 31.7 19 26.5 19z"/></svg>