<svg id="Capa_1" xmlns="http://www.w3.org/2000/svg" viewBox="0 0 56 53"><style>.st0{fill:#B01F2E;}</style><path class="st0" d="M48.6 15.3l7.1-6.6L55 8l-6.9 6.5c-.9-1.3-2-2.9-3.1-4.2-1.3-1.4-3.2-2.7-4.8-3.6l5.6-6L45 0l-5.8 6.2c-1.2-.6-2.2-1-2.3-1.1-.2-.1-.4-.1-.7-.1-.6 0-1.1.2-1.5.7l-8 9.3L9.4 27.3c-.7.4-1.4 1.4-2.1 2.8C6.5 32 .8 48.5.1 50.3c-.4 1 .2 2.2 1.2 2.5.3.2.5.2.7.2h.6l.2.3.3-.3h.4l18.6-5h.2c.3-.1 2.7-1 4.1-2.5 1.1-1.2 11.4-14.8 13.1-17.1l9.9-8.7c.7-.6.9-1.7.4-2.5-.1-.1-.5-.8-1.2-1.9zm-5.2-3.7c1.2 1.3 2.3 2.9 3.2 4.3l-5.9 5.5c-.6-1.1-1.5-2.5-2.6-3.8-1.6-1.7-3.6-3-4.7-3.6l5.3-5.7c1.6.7 3.5 1.9 4.7 3.3zM13.9 40.8l.7-.7c-.5-.5-.6-.9-.6-1.4 0-.7.6-1.3 1.1-1.8.8-.7 1.4-.8 3 0 .9.4 1.3 1.2 1.3 1.8.1.5-.1.9-.3 1.2-1.3 1.1-4 1-4 1L4.2 50.7 3 51h-.7l11.6-10.2c-.1 0-.1 0 0 0zm24-13.8s-12 15.9-13.1 17.1c-1.1 1.2-3.3 2-3.3 2l-15.3 4 9.1-8.1c.9 0 3-.2 4.3-1.2.5-.4.8-1.2.7-2-.1-1.1-.8-2.1-1.9-2.6-1.8-1-3-.9-4.1.2-.6.5-1.4 1.4-1.4 2.5 0 .4.1.8.3 1.2L2.6 49.4C4.1 44.9 8.5 32.5 9.2 31c.8-1.8 1.3-2 1.3-2l17.7-12.5 8-9.5s.7.3 1.6.7L32 14l.3.2-.1.1s3.1 1.6 5.2 3.9 3.3 5.3 3.3 5.3l.9-.4s-.1-.4-.4-.9l5.9-5.5c.5.9.9 1.5.9 1.5L37.9 27z"/></svg>