<svg xmlns="http://www.w3.org/2000/svg" id="Capa_1" viewBox="0 0 166.89999 250.10001" width="166.9" height="250.1"><g id="g4226"><path class="st0" d="M44.1 126.3c-23 0-39.1-12.1-39.1-29.5 0-17.5 16.7-37 39.1-37 22.4 0 39.1 19.5 39.1 37 0 17.3-16.1 29.5-39.1 29.5zm0-58.8c-17.7 0-31.4 15.7-31.4 29.3 0 15.1 15.8 21.8 31.4 21.8 15.6 0 31.4-6.8 31.4-21.8 0-13.6-13.7-29.3-31.4-29.3z" id="path4228" /></g><g id="g4230"><path class="st0" d="M88.4 250.1H18.1c-10 0-18.1-8.9-18.1-19.8v-35.8h7.8v35.8c0 6.4 4.7 11.6 10.4 11.6h70.3c5.7 0 10.4-5.2 10.4-11.6v-57.2c0-17.2-12.7-31.3-28.2-31.3H44v-8.2h26.7c19.8 0 36 17.7 36 39.5v57.2c-.2 10.9-8.3 19.8-18.3 19.8z" id="path4232" /></g><g id="g4234"><path class="st0" d="M123.7 107.8c-23 0-39.1-12.1-39.1-29.5s16.7-37 39.1-37c22.4 0 39.1 19.5 39.1 37 0 17.4-16.1 29.5-39.1 29.5zm0-58.8C106 49 92.3 64.7 92.3 78.3c0 15.1 15.8 21.8 31.4 21.8 15.7 0 31.4-6.8 31.4-21.8 0-13.5-13.7-29.3-31.4-29.3z" id="path4236"/></g><g id="g4238"><path class="st0" d="M147.7 230.9h-38.2v-8.2h38.2c6.1 0 11-5.2 11-11.6v-57.2c0-17.2-13.4-31.3-29.9-31.3h-28.3v-8.3h28.3c21 0 38.1 17.7 38.1 39.5V211c0 11-8.6 19.9-19.2 19.9z" id="path4240" /></g><g id="g4242"><path class="st0" d="M63 57.9c-20.1 0-34.1-10.6-34.1-25.7C28.9 17 43.5 0 63 0s34.1 17 34.1 32.2c0 15.1-14 25.7-34.1 25.7zm0-51.2c-15.4 0-27.4 13.7-27.4 25.5 0 13.1 13.7 19 27.4 19 13.6 0 27.4-5.9 27.4-19 0-11.8-12-25.5-27.4-25.5z" id="path4244"/></g></svg>
