<svg xmlns="http://www.w3.org/2000/svg" id="Capa_2" viewBox="0 0 150 150"><style>.st0{fill:none;stroke:#161515;stroke-width:3;stroke-miterlimit:10;} .st1{fill:none;stroke:#161515;stroke-width:3;stroke-linecap:round;stroke-miterlimit:10;} .st2{fill:none;stroke:#161515;stroke-width:3;stroke-linecap:round;stroke-linejoin:round;stroke-miterlimit:10;} .st4{fill:none;stroke:#070708;stroke-width:3.3905;stroke-miterlimit:10;} } .st6{fill:none;stroke:#070708;stroke-width:5.1674;stroke-linecap:round;stroke-linejoin:round;stroke-miterlimit:10;} .st7{fill:none;stroke:#161515;stroke-width:2.8552;stroke-linecap:round;stroke-linejoin:round;stroke-miterlimit:10;} .st8{fill:none;stroke:#161515;stroke-width:2.825;stroke-linecap:round;stroke-linejoin:round;stroke-miterlimit:10;} .st9{fill:none;stroke:#070708;stroke-width:2.8536;stroke-miterlimit:10;} .st10{fill:none;stroke:#070708;stroke-width:2.7624;stroke-linecap:round;stroke-linejoin:round;stroke-miterlimit:10;} .st11{fill:none;stroke:#070708;stroke-width:2.5249;stroke-linecap:round;stroke-linejoin:round;stroke-miterlimit:10;} .st12{fill:none;stroke:#070708;stroke-width:2.8949;stroke-linecap:round;stroke-miterlimit:10;} .st14{fill:none;stroke:#161515;stroke-width:2.903;stroke-linecap:round;stroke-linejoin:round;stroke-miterlimit:10;} .st15{fill:none;stroke:#070708;stroke-width:3.186;stroke-miterlimit:10;} .st16{fill:none;stroke:#161515;stroke-width:5.0127;stroke-linecap:round;stroke-linejoin:round;stroke-miterlimit:10;} .st17{stroke:#161515;stroke-width:1.1556;stroke-miterlimit:10;} .st18{fill:none;stroke:#161515;stroke-width:2.775;stroke-linecap:round;stroke-linejoin:round;stroke-miterlimit:10;} .st19{fill:none;stroke:#161515;stroke-width:3.0287;stroke-linecap:round;stroke-linejoin:round;stroke-miterlimit:10;} .st20{fill:none;stroke:#161515;stroke-width:2.897;stroke-linecap:round;stroke-linejoin:round;stroke-miterlimit:10;} .st21{fill:none;stroke:#070708;stroke-width:2.6253;stroke-miterlimit:10;} .st22{fill:none;stroke:#161515;stroke-width:2;stroke-linecap:round;stroke-linejoin:round;stroke-miterlimit:10;} .st23{fill:none;stroke:#161515;stroke-width:2.3448;stroke-linecap:round;stroke-linejoin:round;stroke-miterlimit:10;} .st24{fill:none;stroke:#070708;stroke-width:2.2651;stroke-miterlimit:10;} .st25{fill:none;stroke:#070708;stroke-width:4.0649;stroke-linecap:round;stroke-linejoin:round;stroke-miterlimit:10;} .st26{fill:none;stroke:#070708;stroke-width:2.4879;stroke-miterlimit:10;} .st27{fill:none;stroke:#070708;stroke-width:2.6087;stroke-linecap:round;stroke-linejoin:round;stroke-miterlimit:10;} .st30{fill:none;stroke:#000000;stroke-width:2;stroke-miterlimit:10;} .st31{fill:none;stroke:#000000;stroke-width:2.0762;stroke-miterlimit:10;} .st32{fill:none;stroke:#161515;stroke-width:2;stroke-linecap:round;stroke-miterlimit:10;} .st33{fill:none;stroke:#161515;stroke-width:2;stroke-miterlimit:10;} </style><path d="M116.9 108.1H28.3c-3.9 0-7.1-3.2-7.1-7.1V52.4c0-3.4 2.6-6.4 5.9-7 .8-.1 1.5.4 1.6 1.1.1.8-.4 1.5-1.1 1.6-2.1.3-3.6 2.1-3.6 4.2V101c0 2.4 1.9 4.3 4.3 4.3h88.6c2.4 0 4.3-1.9 4.3-4.3V52.4c0-2.4-1.9-4.3-4.3-4.3-.8 0-1.4-.6-1.4-1.4s.6-1.4 1.4-1.4c3.9 0 7 3.2 7 7.1v48.7c.1 3.9-3.1 7-7 7zM82 122.4H62.1v-12.3H82v12.3zm-17-2.9h14.1V113H65v6.5z" class="st34"/><path d="M27.2 95.6h90.5v2H27.2z" class="st34"/><circle cx="30.6" cy="101.2" r="1.6" class="st34"/><circle cx="35.4" cy="101" r="1.6" class="st34"/><circle cx="40.2" cy="101.1" r="1.6" class="st34"/><path d="M71.3 84.7c-.3 0-.6-.1-.9-.3l-5-4.3H38c-3.8 0-6.9-3.2-6.9-7.1V31.2c0-3.9 3.1-7.1 6.9-7.1h69.4c3.8 0 6.9 3.2 6.9 7.1v41.9c0 3.9-3.1 7.1-6.9 7.1h-30l-5.2 4.3c-.3.1-.6.2-.9.2zM38 26.9c-2.3 0-4.2 1.9-4.2 4.3v41.9c0 2.4 1.9 4.3 4.2 4.3h27.9c.3 0 .6.1.9.3l4.5 3.9 4.7-3.9c.2-.2.6-.3.9-.3h30.5c2.3 0 4.2-1.9 4.2-4.3V31.2c0-2.4-1.9-4.3-4.2-4.3H38z" class="st34"/><path d="M70.4 69.5c-8.1 0-14.7-6.6-14.7-14.7s6.6-14.7 14.7-14.7c3.6 0 7 1.3 9.7 3.7 3.2 2.8 5 6.8 5 11-.1 8.2-6.6 14.7-14.7 14.7zm0-27.2c-6.9 0-12.6 5.6-12.6 12.6s5.6 12.6 12.6 12.6S83 61.8 83 54.9c0-3.6-1.6-7.1-4.3-9.5-2.3-2-5.3-3.1-8.3-3.1z" class="st34"/><path d="M71 69h-2V53.6l9.5-9.6 1.5 1.5-9 8.9zM76.712 60.484L78.197 59l8.768 8.767-1.485 1.485zM59.047 38.532l1.572-1.393 7.226 8.16-1.572 1.39zM55.2 34.3H40c-.8 0-1.4-.6-1.4-1.4 0-.8.6-1.4 1.4-1.4h15.2c.8 0 1.4.6 1.4 1.4 0 .8-.7 1.4-1.4 1.4zM55.1 39.1H39.9c-.8 0-1.4-.6-1.4-1.4 0-.8.6-1.4 1.4-1.4h15.2c.8 0 1.4.6 1.4 1.4 0 .7-.6 1.4-1.4 1.4zM107.3 60.4H90.2c-.8 0-1.4-.6-1.4-1.4 0-.8.6-1.4 1.4-1.4h17.2c.8 0 1.4.6 1.4 1.4-.1.8-.7 1.4-1.5 1.4zM107.3 65.1H90.1c-.8 0-1.4-.6-1.4-1.4 0-.8.6-1.4 1.4-1.4h17.2c.8 0 1.4.6 1.4 1.4-.1.8-.7 1.4-1.4 1.4zM107.3 70H90.1c-.8 0-1.4-.6-1.4-1.4 0-.8.6-1.4 1.4-1.4h17.2c.8 0 1.4.6 1.4 1.4-.1.8-.7 1.4-1.4 1.4z" class="st34"/></svg>
