<svg xmlns="http://www.w3.org/2000/svg" id="Capa_2" data-name="Capa 2" viewBox="0 0 150 150"><path d="M61.57 43.35h-4.63v-8.28c0-2.46 2.26-4.39 5.15-4.39H91c2.89 0 5.15 1.93 5.15 4.39v8.22h-4.6v-7.88a1.29 1.29 0 0 0-.52-.1H62.09a1.29 1.29 0 0 0-.52.1z" class="cls-1"/><rect width="10.59" height="2.16" x="33.44" y="40.1" class="cls-1" rx="1.08" ry="1.08"/><rect width="10.59" height="2.16" x="108.64" y="40.09" class="cls-1" rx="1.08" ry="1.08"/><path d="M121.47 113.19H32a5.69 5.69 0 0 1-5.67-5.67V47.93A5.69 5.69 0 0 1 32 42.26h89.51a5.69 5.69 0 0 1 5.67 5.67v59.59a5.69 5.69 0 0 1-5.71 5.67zM48.08 46h-3.75v65.5h3.75zm61.5-.25h-3.75v65.5h3.75z" class="cls-1"/></svg>
