<?xml version="1.0" standalone="no"?>
<!DOCTYPE svg PUBLIC "-//W3C//DTD SVG 1.1//EN" "http://www.w3.org/Graphics/SVG/1.1/DTD/svg11.dtd" >
<svg xmlns="http://www.w3.org/2000/svg">
<metadata>Generated by IcoMoon</metadata>
<defs>
<font id="icomoon" horiz-adv-x="1024">
<font-face units-per-em="1024" ascent="960" descent="-64" />
<missing-glyph horiz-adv-x="1024" />
<glyph unicode="&#x20;" horiz-adv-x="512" d="" />
<glyph unicode="&#xe900;" glyph-name="add" d="M409.6-64v409.6h-409.6v204.8h409.6v409.6h204.8v-409.6h409.6v-204.8h-409.6v-409.6z" />
<glyph unicode="&#xe901;" glyph-name="arrow-circle" d="M512-32c-265.12 0-480 214.88-480 480s214.88 480 480 480 480-214.88 480-480-214.88-480-480-480zM512 864c-229.44 0-416-186.56-416-416s186.56-416 416-416 416 186.56 416 416-186.56 416-416 416zM717.856 444.896h-368l148.416-156.352c7.104-7.456 7.104-19.52 0-27.008-7.040-7.424-18.496-7.424-25.6 0l-179.296 188.928c-3.424 3.584-5.28 8.512-5.344 13.504 0 5.024 1.984 9.824 5.344 13.44l179.296 188.928c7.104 7.488 18.56 7.456 25.6 0 7.104-7.424 7.104-19.52 0-26.944l-148.416-156.352h368c10.080 0 18.176-8.576 18.176-19.104 0-10.56-8.096-19.104-18.144-19.104z" />
<glyph unicode="&#xe902;" glyph-name="arrow-down" d="M298.667 533.333l213.333-213.333 213.333 213.333z" />
<glyph unicode="&#xe903;" glyph-name="arrow-filled" d="M512-64c-282.761 0-512 229.239-512 512s229.239 512 512 512c282.761 0 512-229.239 512-512s-229.239-512-512-512zM731.614 485.41h-392.602l158.379 166.741c7.509 7.987 7.509 20.89 0 28.809-7.578 7.953-19.797 7.987-27.375 0l-191.283-201.557c-3.55-3.857-5.666-8.977-5.666-14.336 0.068-5.359 2.048-10.581 5.666-14.438l191.283-201.489c7.509-7.953 19.797-7.953 27.307 0 7.578 7.919 7.578 20.821 0 28.774l-158.276 166.775h392.533c10.684 0 19.354 9.114 19.354 20.343 0 11.264-8.67 20.343-19.319 20.343z" />
<glyph unicode="&#xe904;" glyph-name="arrow-simple" d="M716.8 448h-368l147.2-156.8c6.4-6.4 6.4-19.2 0-25.6s-19.2-6.4-25.6 0l-179.2 188.8c-3.2 3.2-6.4 9.6-6.4 12.8 0 6.4 3.2 9.6 6.4 12.8l179.2 188.8c6.4 6.4 19.2 6.4 25.6 0s6.4-19.2 0-25.6l-147.2-156.8h368c9.6 0 19.2-9.6 19.2-19.2s-9.6-19.2-19.2-19.2z" />
<glyph unicode="&#xe905;" glyph-name="autocomplete" horiz-adv-x="1536" d="M0 755.2v204.8h1536v-204.8h-1536zM1024 345.6h-1024v204.8h1024v-204.8zM614.4-64h-614.4v204.8h614.4v-204.8z" />
<glyph unicode="&#xe906;" glyph-name="blocked" d="M512 960c-281.6 0-512-230.4-512-512s230.4-512 512-512 512 230.4 512 512-230.4 512-512 512zM102.4 448c0 225.28 184.32 409.6 409.6 409.6 92.16 0 179.2-30.72 250.88-87.040l-573.44-573.44c-56.32 71.68-87.040 158.72-87.040 250.88zM512 38.4c-92.16 0-179.2 30.72-250.88 87.040l573.44 573.44c56.32-71.68 87.040-158.72 87.040-250.88 0-225.28-184.32-409.6-409.6-409.6z" />
<glyph unicode="&#xe907;" glyph-name="calendar" d="M938.688 864h-138.688v64c0 17.696-14.304 32-32 32s-32-14.304-32-32v-64h-192v64c0 17.696-14.336 32-32 32s-32-14.304-32-32v-64h-192v64c0 17.696-14.336 32-32 32s-32-14.304-32-32v-64h-138.656c-47.136 0-85.344-38.176-85.344-85.312v-757.344c0-47.136 38.208-85.344 85.344-85.344h853.344c47.136 0 85.312 38.208 85.312 85.344v757.344c0 47.136-38.176 85.312-85.312 85.312zM960 21.344c0-11.776-9.6-21.344-21.312-21.344h-853.344c-11.744 0-21.344 9.6-21.344 21.344v757.344c0 11.712 9.6 21.312 21.344 21.312h138.656v-64c0-17.696 14.336-32 32-32s32 14.304 32 32v64h192v-64c0-17.696 14.336-32 32-32s32 14.304 32 32v64h192v-64c0-17.696 14.304-32 32-32s32 14.304 32 32v64h138.688c11.744 0 21.312-9.6 21.312-21.312v-757.344zM224 576h128v-96h-128zM224 416h128v-96h-128zM224 256h128v-96h-128zM448 256h128v-96h-128zM448 416h128v-96h-128zM448 576h128v-96h-128zM672 256h128v-96h-128zM672 416h128v-96h-128zM672 576h128v-96h-128z" />
<glyph unicode="&#xe908;" glyph-name="check" horiz-adv-x="1303" d="M45.615 516.236l197.353 197.353 290.63-290.444 526.708 526.615 197.353-197.539-724.061-724.061z" />
<glyph unicode="&#xe909;" glyph-name="check-circle" d="M512-29.867c-263.953 0-477.867 213.914-477.867 477.867s213.914 477.867 477.867 477.867 477.867-213.914 477.867-477.867-213.914-477.867-477.867-477.867zM512 857.6c-225.894 0-409.6-183.637-409.6-409.6s183.637-409.6 409.6-409.6 409.6 183.706 409.6 409.6-183.637 409.6-409.6 409.6zM396.288 315.29l-106.496 106.496 72.363 72.465 106.598-106.564 193.058 193.058 72.363-72.363-265.455-265.557-72.465 72.431z" />
<glyph unicode="&#xe90a;" glyph-name="check-filled-circle" d="M310.303 432.485l62.061 62.061 93.091-93.091 186.182 186.182 62.061-62.061-248.242-248.242zM0 448c0-282.686 229.314-512 512-512s512 229.314 512 512c0 282.81-229.314 512-512 512s-512-229.221-512-512z" />
<glyph unicode="&#xe90b;" glyph-name="clock" d="M512 960c-281.6 0-512-230.4-512-512s230.4-512 512-512 512 230.4 512 512-230.4 512-512 512zM512 38.4c-225.28 0-409.6 184.32-409.6 409.6s184.32 409.6 409.6 409.6 409.6-184.32 409.6-409.6-184.32-409.6-409.6-409.6zM537.6 704h-76.8v-307.2l266.24-163.84 40.96 66.56-230.4 138.24v266.24z" />
<glyph unicode="&#xe90c;" glyph-name="close" horiz-adv-x="1006" d="M1006.194 13.596l-39.026-41.415-462.393 435.2-442.482-471.324-42.098 39.822 442.482 471.268-462.507 435.314 38.969 41.415 462.507-435.2 442.311 471.211 42.098-39.822-442.482-471.268 462.507-435.314z" />
<glyph unicode="&#xe90d;" glyph-name="download" d="M493.44 930.816v-739.776l-192.096 242.432c-9.184 11.584-44.8-2.112-34.24-15.456l226.336-285.568v-1.152c0-0.832 1.28-1.28 3.008-1.6 7.68-6.88 25.088-2.816 30.72 4.352l227.776 287.36c14.144 17.92-21.248 20.224-30.4 8.64l-193.984-244.8v755.552c0 4.96-37.12 0-37.12-9.984zM10.048-46.72h988.8c12.48 0 39.872 18.752 15.040 18.752h-988.768c-12.48 0-39.84-18.752-15.040-18.752z" />
<glyph unicode="&#xe90e;" glyph-name="download-file" horiz-adv-x="731" d="M0 68.987h731.429v-132.987h-731.429zM339.117 175.377c6.649-6.649 13.299-13.299 26.597-13.299s19.948 6.649 26.597 13.299l325.818 305.87c13.299 13.299 13.299 39.896 0 53.195s-39.896 13.299-53.195 0l-259.325-239.377v625.039c0 19.948-19.948 39.896-39.896 39.896s-39.896-19.948-39.896-39.896v-631.688l-259.325 246.026c-13.299 13.299-39.896 13.299-53.195 0s-13.299-39.896 0-53.195l325.818-305.87z" />
<glyph unicode="&#xe90f;" glyph-name="error-circle" d="M512-64c-282.807 0-512 229.193-512 512s229.193 512 512 512 512-229.193 512-512-229.193-512-512-512zM512 886.857c-242.030 0-438.857-196.754-438.857-438.857s196.754-438.857 438.857-438.857 438.857 196.827 438.857 438.857-196.754 438.857-438.857 438.857zM530.286 155.429c-30.354 0-54.857 29.44-54.857 65.682 0 36.279 24.503 65.719 54.857 65.719s54.857-29.44 54.857-65.719c0-36.206-24.503-65.682-54.857-65.682zM530.286 340.553c-30.354 0-54.857 24.576-54.857 54.857v217.161c0 30.281 24.503 54.857 54.857 54.857s54.857-24.576 54.857-54.857v-217.161c0-30.281-24.503-54.857-54.857-54.857z" />
<glyph unicode="&#xe911;" glyph-name="file" d="M876.494 593.74l-353.864 353.87h-374.854v-999.61h728.88v645.68l-0.16 0.060zM522.63 888.712l274.306-274.304h-274.306v274.3zM189.426-10.348v916.308h291.554v-333.204h354.028v-583.104h-645.58z" />
<glyph unicode="&#xe912;" glyph-name="filter" horiz-adv-x="1792" d="M0 704v256h1792v-256zM256 320v256h1280v-256zM512-64v256h768v-256z" />
<glyph unicode="&#xe913;" glyph-name="grow-text" horiz-adv-x="1829" d="M1554.286 566.857v274.286h-182.857v-274.286h-274.286v-182.857h274.286v-274.286h182.857v274.286h274.286v182.857zM374.857 960l-374.857-1024h246.857l73.143 228.571h365.714l73.143-228.571h246.857l-356.571 1024h-274.286zM374.857 338.286l109.714 347.429c9.143 27.429 18.286 54.857 18.286 91.429h9.143c0-36.571 9.143-64 18.286-91.429l109.714-347.429h-265.143z" />
<glyph unicode="&#xe914;" glyph-name="help-circle" d="M512-64c-282.807 0-512 229.193-512 512s229.193 512 512 512 512-229.193 512-512-229.193-512-512-512zM512 886.857c-241.993 0-438.857-196.864-438.857-438.857s196.864-438.857 438.857-438.857 438.857 196.864 438.857 438.857-196.864 438.857-438.857 438.857zM637.44 473.893c-9.509-11.337-25.966-26.185-49.371-44.361-19.895-15.653-33.207-28.599-39.973-38.912-6.766-10.24-10.13-24.027-10.13-41.326v-14.519h-63.013v20.553c0 23.589 4.279 43.154 12.91 58.88 8.558 15.616 23.515 31.817 44.983 48.494 25.49 20.114 41.947 35.84 49.298 46.994 7.424 11.154 11.081 24.43 11.081 39.863 0 17.92-5.851 31.817-17.92 41.435s-29.257 14.482-51.749 14.482c-20.334 0-39.131-2.926-56.576-8.667-17.335-5.851-34.304-12.8-50.834-20.846l-26.917 56.539c43.52 24.21 90.112 36.315 139.813 36.315 42.057 0 75.337-10.313 100.023-30.866 24.649-20.553 36.937-48.933 36.937-85.138 0-16.091-2.341-30.354-7.058-42.898-4.754-12.544-11.813-24.503-21.394-35.84zM509.001 280.722c15.433 0 27.282-4.279 35.365-12.727 8.192-8.411 12.215-20.48 12.215-35.84 0-15.214-4.169-27.246-12.434-36.206-8.229-8.85-19.931-13.312-35.218-13.312-15.177 0-26.843 4.389-34.999 13.019-8.119 8.777-12.178 20.846-12.178 36.498 0 32.366 15.726 48.567 47.177 48.567z" />
<glyph unicode="&#xe915;" glyph-name="info-circle" d="M512-64c-282.807 0-512 229.193-512 512s229.193 512 512 512 512-229.193 512-512-229.193-512-512-512zM512 886.857c-242.030 0-438.857-196.754-438.857-438.857s196.754-438.857 438.857-438.857 438.857 196.827 438.857 438.857-196.754 438.857-438.857 438.857zM550.144 598.199c-12.873 0-23.881 4.608-33.097 13.824s-13.824 20.334-13.824 33.426c0 12.983 4.571 24.137 13.678 33.39 9.143 9.216 20.114 13.824 33.28 13.824 13.239 0 24.503-4.571 33.573-13.787 9.143-9.216 13.641-20.407 13.641-33.426 0-13.166-4.608-24.247-13.824-33.463s-20.37-13.824-33.426-13.824zM570.112 544.805l-65.975-228.462c-3.657-13.166-5.486-21.687-5.486-25.783 0-2.377 0.987-4.571 2.926-6.583 1.902-2.011 4.023-3.035 6.107-3.035 3.657 0 7.241 1.573 10.898 4.754 9.728 7.936 21.285 22.309 34.743 43.154l10.971-6.473c-32.366-56.393-66.743-84.48-103.205-84.48-13.897 0-25.015 3.877-33.28 11.703-8.229 7.79-12.361 17.701-12.361 29.733 0 7.899 1.829 17.92 5.486 30.208l44.617 153.6c4.389 14.811 6.51 25.966 6.51 33.463 0 4.681-2.085 8.85-6.144 12.507-4.023 3.657-9.655 5.486-16.677 5.486-3.291 0-7.095-0.146-11.593-0.366l4.169 12.91 108.983 17.627h19.383z" />
<glyph unicode="&#xe916;" horiz-adv-x="1638" d="M1515.52 960h-1433.6c-40.96 0-81.92-40.96-81.92-81.92v-819.2c0-81.92 40.96-122.88 122.88-122.88h1392.64c81.92 0 122.88 40.96 122.88 122.88v778.24c0 81.92-40.96 122.88-122.88 122.88z" />
<glyph unicode="&#xe917;" horiz-adv-x="1638" d="M138.445 584.96l-31.744 77.312-31.539-77.312h63.283zM837.489 615.741c-6.38-3.84-13.906-3.994-22.938-3.994h-56.32v43.1h57.088c8.090 0 16.527-0.358 22.016-3.482 6.001-2.836 9.728-8.858 9.728-17.162 0-8.479-3.543-15.299-9.554-18.432 0 0 6.011 3.133 0 0zM1239.265 584.98l-32.082 77.312-31.928-77.312h64zM490.312 501.289h-47.514l-0.184 151.9-67.215-151.9h-40.714l-67.4 152.023v-152.064h-94.29l-17.818 43.254h-96.522l-18.002-43.233h-50.35l83.026 193.946h68.895l78.848-183.634v183.613h75.674l60.672-131.584 55.736 131.584h77.179v-193.946zM679.752 501.289h-154.89v193.946h154.87v-40.387h-108.483v-34.959h105.902v-39.752h-105.912v-38.738h108.493v-40.141zM898.109 643.011c0-30.925-20.644-46.899-32.666-51.712 10.138-3.85 18.811-10.67 22.938-16.323 6.554-9.656 7.68-18.278 7.68-35.604v-38.093h-46.776l-0.174 24.453c0 11.674 1.126 28.467-7.291 37.786-6.779 6.83-17.101 8.294-33.792 8.294h-49.766v-70.523h-46.377v193.946h106.629c23.695 0 41.144-0.614 56.136-9.288 14.664-8.663 23.45-21.299 23.45-42.947 0 0 0 21.647 0 0zM972.288 501.248h-47.288v193.946h47.309v-193.946zM1521.101 501.248h-65.7l-87.9 145.572v-145.572h-94.413l-18.043 43.254h-96.307l-17.51-43.254h-54.252c-22.528 0-51.067 4.977-67.226 21.453-16.282 16.466-24.781 38.769-24.781 74.035 0 28.774 5.079 55.071 25.006 75.848 14.981 15.483 38.451 22.63 70.4 22.63h44.882v-41.574h-43.95c-16.927 0-26.481-2.519-35.676-11.489-7.905-8.161-13.332-23.603-13.332-43.93 0-20.787 4.137-35.768 12.749-45.568 7.137-7.66 20.111-9.994 32.307-9.994h20.828l65.331 152.535h69.468l78.5-183.46v183.48h70.584l81.48-135.066v135.045h47.493v-193.946zM-10.24 463.176h79.217l17.859 43.069h39.987l17.818-43.080h155.853v32.963l13.926-33.075h80.896l13.906 33.567v-33.434h387.348l-0.205 70.728h7.506c5.243-0.184 6.779-0.666 6.779-9.318v-61.399h200.325v16.486c16.159-8.673 41.298-16.486 74.363-16.486h84.275l18.043 43.090h39.987l17.633-43.080h162.406v40.929l24.576-40.919h130.15v270.479h-128.809v-31.949l-18.043 31.949h-132.147v-31.949l-16.568 31.949h-178.514c-29.88 0-56.156-4.168-77.373-15.79v15.79h-123.187v-15.79c-13.517 11.981-31.908 15.79-52.367 15.79h-450.048l-30.208-69.868-31.007 69.868h-141.763v-31.949l-15.565 31.949h-120.904l-56.146-128.635v-141.906zM1638.81 320.328h-84.5c-8.438 0-14.029-0.307-18.76-3.482-4.895-3.154-6.779-7.813-6.779-13.967 0-7.322 4.137-12.288 10.138-14.438 4.895-1.72 10.138-2.212 17.869-2.212l25.108-0.676c25.354-0.614 42.291-4.987 52.603-15.616 1.864-1.454 2.99-3.113 4.301-4.782v55.194zM1638.81 192.43c-11.264-16.466-33.208-24.812-62.915-24.812h-89.539v41.574h89.17c8.847 0 15.053 1.157 18.76 4.813 3.236 2.99 5.489 7.342 5.489 12.646 0 5.632-2.253 10.138-5.663 12.82-3.379 2.949-8.264 4.301-16.333 4.301-43.52 1.475-97.843-1.352-97.843 60.047 0 28.16 17.869 57.754 66.519 57.754h92.365v38.605h-85.811c-25.876 0-44.687-6.195-58.010-15.831v15.831h-126.935c-20.275 0-44.114-5.018-55.378-15.831v15.831h-226.611v-15.831c-18.053 13.005-48.486 15.841-62.525 15.841h-149.504v-15.831c-14.254 13.824-45.978 15.841-65.331 15.841h-167.281l-38.298-41.421-35.84 41.431h-249.938v-270.694h245.228l39.444 42.086 37.151-42.086 151.142-0.133v63.693h14.868c20.050-0.307 43.704 0.481 64.573 9.503v-73.011h124.672v70.554h6.011c7.68 0 8.428-0.328 8.428-7.987v-62.566h378.726c24.044 0 49.172 6.144 63.078 17.306v-17.306h120.136c25.006 0 49.418 3.502 67.994 12.472v50.432zM1453.875 269.947c9.011-9.349 13.865-21.146 13.865-41.114 0-41.728-26.071-61.215-72.827-61.215h-90.296v41.574h89.928c8.806 0 15.032 1.157 18.944 4.813 3.174 2.99 5.468 7.342 5.468 12.646 0 5.632-2.458 10.138-5.652 12.82-3.543 2.949-8.438 4.301-16.507 4.301-43.356 1.475-97.659-1.352-97.659 60.047 0 28.16 17.664 57.754 66.253 57.754h92.959v-41.267h-85.053c-8.438 0-13.926-0.307-18.575-3.512-5.079-3.144-6.963-7.803-6.963-13.957 0-7.322 4.301-12.288 10.138-14.438 4.895-1.72 10.138-2.212 18.043-2.212l24.965-0.666c25.16-0.614 42.435-4.966 52.941-15.606 0 0-10.506 10.65 0 0zM1035.54 281.928c-6.205-3.686-13.875-3.994-22.897-3.994h-56.32v43.561h57.108c8.253 0 16.517-0.174 22.118-3.502 6.011-3.144 9.605-9.144 9.605-17.449 0-8.294-3.584-14.991-9.595-18.637 0 0 6.001 3.645 0 0zM1063.537 257.782c10.342-3.809 18.78-10.65 22.733-16.282 6.554-9.482 7.475-18.33 7.68-35.43v-38.451h-46.541v24.269c0 11.674 1.126 28.938-7.496 37.96-6.779 6.963-17.101 8.602-34.017 8.602h-49.531v-70.861h-46.592v194.048h107.039c23.47 0 40.571-1.024 55.788-9.165 14.623-8.827 23.828-20.941 23.828-43.069 0-30.966-20.644-46.766-32.87-51.61 0 0 12.227 4.844 0 0zM1122.109 361.615h154.726v-40.11h-108.544v-35.277h105.912v-39.578h-105.923v-38.605l108.544-0.174v-40.243h-154.726v193.987zM809.329 272.097h-59.904v49.398h60.447c16.732 0 28.365-6.82 28.365-23.788 0-16.773-11.090-25.6-28.908-25.6zM703.242 185.262l-71.168 79.022 71.168 76.493v-155.546zM519.434 208.046h-114.033v38.605h101.786v39.578h-101.786v35.277h116.224l50.708-56.525-52.941-56.934zM888.003 297.708c0-53.893-40.212-65.024-80.742-65.024h-57.856v-65.065h-90.092l-57.088 64.205-59.341-64.205h-183.644v193.987h186.47l57.037-63.59 58.962 63.59h148.142c36.792 0 78.131-10.189 78.131-63.918 0 0 0 53.729 0 0z" />
<glyph unicode="&#xe918;" horiz-adv-x="1420" d="M194.72 960c-109.96 0-194.72-71.016-194.72-194.72v-352.787c9.163-43.526 54.98-75.597 105.378-75.597 57.271 0 98.506 41.235 98.506 91.633v178.685h155.776v-176.394c0-98.506-125.996-148.904-217.629-148.904-52.689 0-103.087 16.036-139.74 43.526v-389.441h247.409c87.051 0 187.848 82.47 187.848 187.848v836.152h-242.828z" />
<glyph unicode="&#xe919;" horiz-adv-x="1420" d="M0 765.28v-352.787c9.163-43.526 54.98-75.597 105.378-75.597 57.271 0 98.506 41.235 98.506 91.633v178.685h155.776v-176.394c0-98.506-125.996-148.904-217.629-148.904-52.689 0-103.087 16.036-139.74 43.526v-389.441h247.409c87.051 0 187.848 82.47 187.848 187.848v836.152z" />
<glyph unicode="&#xe91a;" horiz-adv-x="1420" d="M357.369 607.213v-176.394c0-98.506-125.996-148.904-217.629-148.904-52.689 0-103.087 16.036-139.74 43.526v-389.441h247.409c87.051 0 187.848 82.47 187.848 187.848z" />
<glyph unicode="&#xe91b;" horiz-adv-x="1420" d="M1060.653 341.477h107.669c27.49 0 52.689 25.199 52.689 52.689s-25.199 52.689-52.689 52.689h-107.669v-105.378z" />
<glyph unicode="&#xe91c;" horiz-adv-x="1420" d="M1182.067 960c-112.251 0-194.72-71.016-194.72-192.43v-160.358h288.644c41.235 0 75.597-34.362 75.597-75.597s-34.362-75.597-75.597-75.597c45.817 0 82.47-32.072 82.47-73.306s-34.362-73.306-82.47-73.306h-290.935v-373.405h247.409c87.051 0 187.848 82.47 187.848 187.848v836.152h-238.246z" />
<glyph unicode="&#xe91d;" horiz-adv-x="1420" d="M985.056 765.28v-158.067h288.644c41.235 0 75.597-34.362 75.597-75.597s-34.362-75.597-75.597-75.597c45.817 0 82.47-32.072 82.47-73.306s-34.362-73.306-82.47-73.306h-288.644v-373.405h247.409c87.051 0 187.848 82.47 187.848 187.848v836.152z" />
<glyph unicode="&#xe91e;" horiz-adv-x="1420" d="M1349.298 531.615c0-41.235-34.362-75.597-75.597-75.597 45.817 0 82.47-32.072 82.47-73.306s-34.362-73.306-82.47-73.306h-288.644v-373.405h247.409c87.051 0 187.848 82.47 187.848 187.848zM1218.72 522.452c0 27.49-25.199 52.689-52.689 52.689h-105.378v-103.087h107.669c27.49 0 50.398 22.908 50.398 50.398z" />
<glyph unicode="&#xe91f;" horiz-adv-x="1420" d="M684.957 960c-112.251 0-194.72-71.016-194.72-192.43v-197.011c27.49 22.908 61.852 38.944 98.506 38.944h261.154v-54.98c-61.852 13.745-121.414 20.617-151.195 20.617-64.143 0-116.832-52.689-116.832-116.832s52.689-116.832 116.832-116.832c29.781 0 89.342 4.582 151.195 18.327v-50.398h-261.154c-36.653 0-73.306 13.745-98.506 38.944v-412.349h247.409c87.051 0 187.848 82.47 187.848 187.848v836.152h-240.537z" />
<glyph unicode="&#xe920;" horiz-adv-x="1420" d="M490.237 765.28v-197.011c27.49 22.908 61.852 38.944 98.506 38.944h261.154v-54.98c-61.852 13.745-121.414 20.617-151.195 20.617-64.143 0-116.832-52.689-116.832-116.832s52.689-116.832 116.832-116.832c29.781 0 89.342 4.582 151.195 18.327v-48.107h-261.154c-36.653 0-73.306 13.745-98.506 38.944v-412.349h247.409c87.051 0 187.848 82.47 187.848 187.848v836.152z" />
<glyph unicode="&#xe921;" horiz-adv-x="1420" d="M849.897 607.213v-54.98c-61.852 13.745-121.414 20.617-151.195 20.617-64.143 0-116.832-52.689-116.832-116.832s52.689-116.832 116.832-116.832c29.781 0 89.342 4.582 151.195 18.327v-48.107h-261.154c-36.653 0-73.306 13.745-98.506 38.944v-412.349h247.409c87.051 0 187.848 82.47 187.848 187.848z" />
<glyph unicode="&#xe922;" horiz-adv-x="1707" d="M1706.667 448c0-281.735-227.556-512-512-512-281.735 0-512 230.265-512 512s227.556 512 509.291 512c287.153 0 514.709-230.265 514.709-512z" />
<glyph unicode="&#xe923;" horiz-adv-x="1707" d="M1194.667 960c281.735 0 512-230.265 512-512s-227.556-512-512-512c-281.735 0-512 230.265-512 512z" />
<glyph unicode="&#xe924;" horiz-adv-x="1707" d="M1194.667 960c281.735 0 512-230.265 512-512s-227.556-512-512-512z" />
<glyph unicode="&#xe925;" horiz-adv-x="1707" d="M506.582 960c-279.026-2.709-506.582-230.265-506.582-512s227.556-512 512-512c132.741 0 251.937 51.471 344.042 132.741 18.963 16.254 35.217 35.217 51.471 54.18h-105.651c-13.545 16.254-27.090 35.217-37.926 51.471h181.503c10.836 16.254 21.672 35.217 29.799 54.18h-241.101c-8.127 16.254-16.254 35.217-21.672 54.18h281.735c16.254 51.471 27.090 105.651 27.090 162.54 0 37.926-5.418 73.143-10.836 108.36h-314.243c2.709 18.963 8.127 35.217 13.545 54.18h281.735c-5.418 18.963-13.545 37.926-21.672 54.18h-238.392c8.127 18.963 18.963 35.217 29.799 54.18h181.503c-10.836 18.963-24.381 37.926-40.635 54.18h-100.233c16.254 18.963 32.508 35.217 51.471 51.471-89.397 83.979-211.302 132.741-344.042 132.741 0 5.418 0 5.418-2.709 5.418z" />
<glyph unicode="&#xe926;" horiz-adv-x="1707" d="M0 448c0-281.735 227.556-512 512-512 132.741 0 251.937 51.471 344.042 132.741 18.963 16.254 35.217 35.217 51.471 54.18h-105.651c-13.545 16.254-27.090 35.217-37.926 51.471h181.503c10.836 16.254 21.672 35.217 29.799 54.18h-241.101c-8.127 16.254-16.254 35.217-21.672 54.18h281.735c16.254 51.471 27.090 105.651 27.090 162.54 0 37.926-5.418 73.143-10.836 108.36h-314.243c2.709 18.963 8.127 35.217 13.545 54.18h281.735c-5.418 18.963-13.545 37.926-21.672 54.18h-238.392c8.127 18.963 18.963 35.217 29.799 54.18h181.503c-10.836 18.963-24.381 37.926-40.635 54.18h-100.233c16.254 18.963 32.508 35.217 51.471 51.471-89.397 83.979-211.302 132.741-344.042 132.741h-2.709z" />
<glyph unicode="&#xe927;" horiz-adv-x="1707" d="M512-64c132.741 0 251.937 51.471 344.042 132.741 18.963 16.254 35.217 35.217 51.471 54.18h-105.651c-13.545 16.254-27.090 35.217-37.926 51.471h181.503c10.836 16.254 21.672 35.217 29.799 54.18h-241.101c-8.127 16.254-16.254 35.217-21.672 54.18h281.735c16.254 51.471 27.090 105.651 27.090 162.54 0 37.926-5.418 73.143-10.836 108.36h-314.243c2.709 18.963 8.127 35.217 13.545 54.18h281.735c-5.418 18.963-13.545 37.926-21.672 54.18h-238.392c8.127 18.963 18.963 35.217 29.799 54.18h181.503c-10.836 18.963-24.381 37.926-40.635 54.18h-100.233c16.254 18.963 32.508 35.217 51.471 51.471-89.397 83.979-211.302 132.741-344.042 132.741h-2.709z" />
<glyph unicode="&#xe928;" horiz-adv-x="1707" d="M693.503 317.968l8.127 46.053c-2.709 0-8.127-2.709-13.545-2.709-18.963 0-21.672 10.836-18.963 16.254l16.254 94.815h29.799l8.127 51.471h-27.090l5.418 32.508h-54.18s-32.508-178.794-32.508-200.466c0-32.508 18.963-46.053 43.344-46.053 16.254 0 29.799 5.418 35.217 8.127zM712.466 404.656c0-75.852 51.471-94.815 94.815-94.815 40.635 0 56.889 8.127 56.889 8.127l10.836 51.471s-29.799-13.545-56.889-13.545c-59.598 0-48.762 43.344-48.762 43.344h111.069s8.127 35.217 8.127 48.762c0 35.217-18.963 78.561-78.561 78.561-56.889 5.418-97.524-54.18-97.524-121.905zM807.28 483.217c29.799 0 24.381-35.217 24.381-37.926h-59.598c0 2.709 5.418 37.926 35.217 37.926zM1151.323 317.968l10.836 59.598s-27.090-13.545-46.053-13.545c-37.926 0-54.18 29.799-54.18 62.307 0 65.016 32.508 100.233 70.434 100.233 27.090 0 48.762-16.254 48.762-16.254l8.127 56.889s-32.508 13.545-62.307 13.545c-62.307 0-124.614-54.18-124.614-157.122 0-67.725 32.508-113.778 97.524-113.778 21.672 0 51.471 8.127 51.471 8.127zM395.513 531.979c-37.926 0-65.016-10.836-65.016-10.836l-8.127-46.053s24.381 10.836 59.598 10.836c18.963 0 35.217-2.709 35.217-18.963 0-10.836-2.709-13.545-2.709-13.545h-24.381c-46.053 0-97.524-18.963-97.524-81.27 0-48.762 32.508-59.598 51.471-59.598 37.926 0 54.18 24.381 56.889 24.381l-2.709-21.672h48.762l21.672 148.995c0 65.016-54.18 67.725-73.143 67.725zM406.349 410.074c0-8.127-5.418-51.471-37.926-51.471-16.254 0-21.672 13.545-21.672 21.672 0 13.545 8.127 32.508 48.762 32.508 8.127-2.709 10.836-2.709 10.836-2.709zM520.127 312.55c13.545 0 81.27-2.709 81.27 70.434 0 67.725-65.016 54.18-65.016 81.27 0 13.545 10.836 18.963 29.799 18.963 8.127 0 37.926-2.709 37.926-2.709l8.127 48.762s-18.963 5.418-51.471 5.418c-40.635 0-81.27-16.254-81.27-70.434 0-62.307 67.725-56.889 67.725-81.27 0-16.254-18.963-18.963-32.508-18.963-24.381 0-48.762 8.127-48.762 8.127l-8.127-48.762c2.709-5.418 16.254-10.836 62.307-10.836zM1601.016 575.323l-10.836-73.143s-21.672 27.090-51.471 27.090c-48.762 0-92.106-59.598-92.106-130.032 0-43.344 21.672-89.397 67.725-89.397 32.508 0 51.471 21.672 51.471 21.672l-2.709-18.963h54.18l40.635 260.063-56.889 2.709zM1576.635 431.746c0-29.799-13.545-67.725-43.344-67.725-18.963 0-29.799 16.254-29.799 43.344 0 43.344 18.963 70.434 43.344 70.434 18.963 0 29.799-13.545 29.799-46.053zM100.233 315.259l32.508 195.048 5.418-195.048h37.926l70.434 195.048-29.799-195.048h56.889l43.344 260.063h-89.397l-54.18-159.831-2.709 159.831h-78.561l-43.344-260.063h51.471zM940.021 315.259c16.254 89.397 18.963 162.54 56.889 148.995 5.418 35.217 13.545 48.762 18.963 62.307h-10.836c-24.381 0-43.344-32.508-43.344-32.508l5.418 29.799h-51.471l-35.217-211.302h59.598zM1275.937 531.979c-37.926 0-65.016-10.836-65.016-10.836l-8.127-46.053s24.381 10.836 59.598 10.836c18.963 0 35.217-2.709 35.217-18.963 0-10.836-2.709-13.545-2.709-13.545h-24.381c-46.053 0-97.524-18.963-97.524-81.27 0-48.762 32.508-59.598 51.471-59.598 37.926 0 54.18 24.381 56.889 24.381l-2.709-21.672h48.762l21.672 148.995c2.709 65.016-54.18 67.725-73.143 67.725zM1289.482 410.074c0-8.127-5.418-51.471-37.926-51.471-16.254 0-21.672 13.545-21.672 21.672 0 13.545 8.127 32.508 48.762 32.508 8.127-2.709 8.127-2.709 10.836-2.709zM1395.132 315.259c16.254 89.397 18.963 162.54 56.889 148.995 5.418 35.217 13.545 48.762 18.963 62.307h-10.836c-24.381 0-43.344-32.508-43.344-32.508l5.418 29.799h-51.471l-35.217-211.302h59.598z" />
<glyph unicode="&#xe929;" horiz-adv-x="1707" d="M609.524 355.894c0-32.508 18.963-46.053 43.344-46.053 18.963 0 35.217 5.418 40.635 8.127l8.127 46.053c-2.709 0-8.127-2.709-13.545-2.709-18.963 0-21.672 10.836-18.963 16.254l16.254 94.815h29.799l8.127 51.471h-27.090l5.418 32.508zM739.556 404.656c0-75.852 24.381-94.815 67.725-94.815 40.635 0 56.889 8.127 56.889 8.127l10.836 51.471s-29.799-13.545-56.889-13.545c-59.598 0-48.762 43.344-48.762 43.344h111.069s8.127 35.217 8.127 48.762c0 35.217-18.963 78.561-78.561 78.561-56.889 5.418-70.434-54.18-70.434-121.905zM807.28 483.217c29.799 0 35.217-35.217 35.217-37.926h-70.434c0 2.709 5.418 37.926 35.217 37.926zM1151.323 317.968l10.836 59.598s-27.090-13.545-46.053-13.545c-37.926 0-54.18 29.799-54.18 62.307 0 65.016 32.508 100.233 70.434 100.233 27.090 0 48.762-16.254 48.762-16.254l8.127 56.889s-32.508 13.545-62.307 13.545c-62.307 0-97.524-54.18-97.524-157.122 0-67.725 5.418-113.778 70.434-113.778 21.672 0 51.471 8.127 51.471 8.127zM322.37 472.381s24.381 10.836 59.598 10.836c18.963 0 35.217-2.709 35.217-18.963 0-10.836-2.709-13.545-2.709-13.545h-24.381c-46.053 0-97.524-18.963-97.524-81.27 0-48.762 32.508-59.598 51.471-59.598 37.926 0 54.18 24.381 56.889 24.381l-2.709-21.672h48.762l21.672 148.995c0 62.307-54.18 65.016-75.852 65.016zM433.439 410.074c0-8.127-32.508-51.471-65.016-51.471-16.254 0-21.672 13.545-21.672 21.672 0 13.545 8.127 32.508 48.762 32.508 8.127-2.709 37.926-2.709 37.926-2.709zM460.529 317.968s16.254-5.418 62.307-5.418c13.545 0 81.27-2.709 81.27 70.434 0 67.725-65.016 54.18-65.016 81.27 0 13.545 10.836 18.963 29.799 18.963 8.127 0 37.926-2.709 37.926-2.709l8.127 48.762s-18.963 5.418-51.471 5.418c-40.635 0-54.18-16.254-54.18-70.434 0-62.307 40.635-56.889 40.635-81.27 0-16.254-18.963-18.963-32.508-18.963zM1590.18 502.18s-21.672 27.090-51.471 27.090c-48.762 0-65.016-59.598-65.016-130.032 0-43.344-5.418-89.397 40.635-89.397 32.508 0 51.471 21.672 51.471 21.672l-2.709-18.963h54.18l40.635 260.063zM1587.471 431.746c0-29.799-24.381-67.725-54.18-67.725-18.963 0-29.799 16.254-29.799 43.344 0 43.344 18.963 70.434 43.344 70.434 18.963 0 40.635-13.545 40.635-46.053zM100.233 315.259l32.508 195.048 5.418-195.048h37.926l70.434 195.048-29.799-195.048h56.889l43.344 260.063h-67.725l-75.852-159.831-2.709 159.831h-29.799l-92.106-260.063h51.471zM883.132 315.259h56.889c16.254 89.397 18.963 162.54 56.889 148.995 5.418 35.217 13.545 48.762 18.963 62.307h-10.836c-24.381 0-43.344-32.508-43.344-32.508l5.418 29.799zM1202.794 472.381s24.381 10.836 59.598 10.836c18.963 0 35.217-2.709 35.217-18.963 0-10.836-2.709-13.545-2.709-13.545h-24.381c-46.053 0-97.524-18.963-97.524-81.27 0-48.762 32.508-59.598 51.471-59.598 37.926 0 54.18 24.381 56.889 24.381l-2.709-21.672h48.762l21.672 148.995c0 62.307-54.18 65.016-75.852 65.016zM1313.862 410.074c0-8.127-32.508-51.471-65.016-51.471-16.254 0-21.672 13.545-21.672 21.672 0 13.545 8.127 32.508 48.762 32.508 10.836-2.709 37.926-2.709 37.926-2.709zM1338.243 315.259h56.889c16.254 89.397 18.963 162.54 56.889 148.995 5.418 35.217 13.545 48.762 18.963 62.307h-10.836c-24.381 0-43.344-32.508-43.344-32.508l5.418 29.799z" />
<glyph unicode="&#xe92a;" horiz-adv-x="4007" d="M3097.441 692.87h-216.248c-12.72 0-25.441-12.72-31.801-25.441l-89.043-559.702c0-12.72 6.36-19.081 19.081-19.081h114.484c12.72 0 19.081 6.36 19.081 19.081l25.441 159.006c0 12.72 12.72 25.441 31.801 25.441h69.963c146.286 0 228.969 69.963 248.050 209.888 12.72 57.242 0 108.124-25.441 139.925-38.161 31.801-95.404 50.882-165.366 50.882zM3122.882 482.981c-12.72-76.323-69.963-76.323-127.205-76.323h-38.161l25.441 146.286c0 6.36 6.36 12.72 19.081 12.72h12.72c38.161 0 76.323 0 95.404-25.441 12.72-6.36 12.72-25.441 12.72-57.242z" />
<glyph unicode="&#xe92b;" horiz-adv-x="4007" d="M1539.18 692.87h-216.248c-12.72 0-25.441-12.72-31.801-25.441l-89.043-559.702c0-12.72 6.36-19.081 19.081-19.081h101.764c12.72 0 25.441 12.72 31.801 25.441l25.441 152.646c0 12.72 12.72 25.441 31.801 25.441h69.963c146.286 0 228.969 69.963 248.050 209.888 12.72 57.242 0 108.124-25.441 139.925-38.161 31.801-89.043 50.882-165.366 50.882zM1564.621 482.981c-12.72-76.323-69.963-76.323-127.205-76.323h-31.801l25.441 146.286c0 6.36 6.36 12.72 19.081 12.72h12.72c38.161 0 76.323 0 95.404-25.441 6.36-6.36 12.72-25.441 6.36-57.242zM2194.286 489.342h-101.764c-6.36 0-19.081-6.36-19.081-12.72l-6.36-31.801-6.36 12.72c-25.441 31.801-69.963 44.522-120.845 44.522-114.484 0-216.248-89.043-235.329-209.888-12.72-63.602 6.36-120.845 38.161-159.006s76.323-50.882 133.565-50.882c95.404 0 146.286 57.242 146.286 57.242l-6.36-31.801c0-12.72 6.36-19.081 19.081-19.081h95.404c12.72 0 25.441 12.72 31.801 25.441l57.242 356.174c-6.36 6.36-19.081 19.081-25.441 19.081zM2048 285.814c-12.72-57.242-57.242-101.764-120.845-101.764-31.801 0-57.242 12.72-69.963 25.441-12.72 19.081-19.081 44.522-19.081 76.323 6.36 57.242 57.242 101.764 114.484 101.764 31.801 0 50.882-12.72 69.963-25.441 19.081-19.081 25.441-50.882 25.441-76.323z" />
<glyph unicode="&#xe92c;" horiz-adv-x="4007" d="M3746.186 489.342h-101.764c-6.36 0-19.081-6.36-19.081-12.72l-6.36-31.801-6.36 12.72c-25.441 31.801-69.963 44.522-120.845 44.522-114.484 0-216.248-89.043-235.329-209.888-12.72-63.602 6.36-120.845 38.161-159.006s76.323-50.882 133.565-50.882c95.404 0 146.286 57.242 146.286 57.242l-6.36-31.801c0-12.72 6.36-19.081 19.081-19.081h95.404c12.72 0 25.441 12.72 31.801 25.441l57.242 356.174c-6.36 6.36-12.72 19.081-25.441 19.081zM3599.901 285.814c-12.72-57.242-57.242-101.764-120.845-101.764-31.801 0-57.242 12.72-69.963 25.441-12.72 19.081-19.081 44.522-19.081 76.323 6.36 57.242 57.242 101.764 114.484 101.764 31.801 0 50.882-12.72 69.963-25.441 25.441-19.081 31.801-50.882 25.441-76.323z" />
<glyph unicode="&#xe92d;" horiz-adv-x="4007" d="M2747.627 489.342h-108.124c-12.72 0-19.081-6.36-25.441-12.72l-139.925-216.248-63.602 203.528c-6.36 12.72-12.72 19.081-31.801 19.081h-101.764c-12.72 0-19.081-12.72-19.081-25.441l114.484-337.093-108.124-152.646c-6.36-12.72 0-31.801 12.72-31.801h101.764c12.72 0 19.081 6.36 25.441 12.72l349.814 502.46c19.081 19.081 6.36 38.161-6.36 38.161z" />
<glyph unicode="&#xe92e;" horiz-adv-x="4007" d="M3867.031 673.789l-89.043-572.422c0-12.72 6.36-19.081 19.081-19.081h89.043c12.72 0 25.441 12.72 31.801 25.441l89.043 559.702c0 12.72-6.36 19.081-19.081 19.081h-101.764c-6.36 6.36-12.72 0-19.081-12.72z" />
<glyph unicode="&#xe92f;" horiz-adv-x="4007" d="M731.429 883.677c-44.522 50.882-127.205 76.323-241.689 76.323h-318.012c-19.081 0-38.161-19.081-44.522-38.161l-127.205-833.193c0-19.081 12.72-31.801 25.441-31.801h197.168l50.882 311.652v-12.72c6.36 19.081 25.441 38.161 44.522 38.161h95.404c184.447 0 324.373 76.323 368.894 286.211v19.081c-6.36 0-6.36 0 0 0 6.36 82.683-6.36 133.565-50.882 184.447z" />
<glyph unicode="&#xe930;" horiz-adv-x="4007" d="M775.95 699.23v-19.081c-44.522-216.248-184.447-286.211-368.894-286.211h-95.404c-19.081 0-38.161-19.081-44.522-38.161l-63.602-387.975c0-12.72 6.36-25.441 25.441-25.441h165.366c19.081 0 38.161 12.72 38.161 31.801v6.36l31.801 197.168v12.72c0 19.081 19.081 31.801 38.161 31.801h25.441c159.006 0 286.211 63.602 318.012 254.41 12.72 76.323 6.36 146.286-31.801 190.807-6.36 12.72-19.081 25.441-38.161 31.801z" />
<glyph unicode="&#xe931;" horiz-adv-x="4007" d="M731.429 718.311c-6.36 0-12.72 6.36-19.081 6.36s-12.72 0-19.081 6.36c-25.441 6.36-50.882 6.36-82.683 6.36h-248.050c-6.36 0-12.72 0-19.081-6.36-12.72-6.36-19.081-19.081-19.081-31.801l-50.882-330.733v-12.72c6.36 19.081 25.441 38.161 44.522 38.161h95.404c184.447 0 324.373 76.323 368.894 286.211 0 6.36 0 12.72 6.36 19.081-12.72 6.36-19.081 12.72-31.801 12.72-19.081 6.36-19.081 6.36-25.441 6.36z" />
<glyph unicode="&#xe932;" glyph-name="logo-registradores-center" horiz-adv-x="1622" d="M964.776 773.158c0-60.752-56.931-106.603-121.887-106.603h-91.319s0 12.991 9.17 22.161 21.015 8.406 21.015 8.406h30.567c45.851 0 76.036 38.973 76.036 76.036 0 30.567-24.454 76.036-76.036 76.036h-91.319s-20.251 0.764-36.681 6.496c-20.251 7.642-39.355 24.072-39.355 24.072h167.355c13.373 0 29.421-0.764 46.233-3.439s34.006-7.26 50.054-14.519c11.845-5.349 22.543-12.609 31.713-21.779 3.057-3.057 5.731-6.496 8.406-9.934 9.552-14.137 16.048-33.624 16.048-56.931zM1041.194 574.854v304.143s0 76.8-76.8 76.8h-304.143s-76.8 0-76.8-76.8v-304.143s0-76.8 76.8-76.8h92.848l68.776-97.051s8.024-9.17 21.397-9.17h89.027c-12.609 0.764-19.869 9.17-19.869 9.17s-133.349 189.134-139.081 194.866c-8.788 8.788-19.487 9.17-21.397 9.17h90.937c11.845 0 19.487-6.878 21.397-8.788l0.382-0.382 69.922-97.815h30.185c-0.382 0 76.418 0 76.418 76.8zM1079.021-23.499h-27.128l11.081 40.119c0.382 1.528 1.146 2.293 2.293 2.293s1.91-0.764 2.293-2.293l11.463-40.119zM1100.8-61.325v0.764l-22.543 79.857c-1.91 7.642-8.024 9.17-12.227 9.17-4.585 0-10.316-1.91-12.609-9.17l-22.543-79.857v-0.764c0-1.146 0.764-1.91 1.91-1.91h7.26c1.146 0 1.91 0.764 2.293 1.91l8.024 28.275h31.713l8.024-28.275c0.382-1.146 1.146-1.91 1.91-1.91h7.26c0.764 0 1.528 0.764 1.528 1.91zM1008.716 46.042v2.675c0 1.146-0.764 1.91-1.91 1.91h-3.821c-1.146 0-1.91-1.146-1.91-1.91v-2.675c0-4.203-1.146-5.349-3.821-5.349-1.146 0-3.057 0.764-4.203 1.528l-8.788 6.878c-2.293 1.528-4.585 3.057-7.26 3.057-7.26 0-11.463-4.585-11.463-13.373v-2.675c0-1.146 0.764-1.91 1.91-1.91h3.821c1.146 0 1.91 1.146 1.91 1.91v2.675c0 3.821 0.764 5.731 3.821 5.731 1.528 0 1.91-0.382 4.967-2.675l7.642-6.113c2.293-1.528 4.967-2.675 8.024-2.675 8.024 0.382 11.081 4.585 11.081 12.991zM1020.179-59.415v85.206c0 1.146-0.764 2.293-2.293 2.293h-6.496c-1.146 0-2.293-1.146-2.293-2.293v-72.215l-0.382 0.382-37.445 71.451c-1.146 1.91-1.528 2.293-4.967 2.293h-6.878c-1.91 0-3.439-1.528-3.439-3.439v-85.97c0-1.146 1.146-1.528 2.293-1.528h6.496c1.146 0 2.293 1.146 2.293 2.293v71.833s0.382 0 0.382-0.382l37.827-71.833c0.764-1.146 1.91-1.91 3.821-1.91h7.642c1.91 0 3.439 1.528 3.439 3.821zM924.275-23.499h-27.128l11.081 40.119c0.382 1.528 1.146 2.293 2.293 2.293s1.91-0.764 2.293-2.293l11.463-40.119zM946.054-61.325v0.764l-22.543 79.857c-1.91 7.642-8.024 9.17-12.227 9.17-4.585 0-10.316-1.91-12.609-9.17l-22.543-79.857v-0.764c0-1.146 0.764-1.91 1.91-1.91h7.26c1.146 0 1.91 0.764 2.293 1.91l8.024 28.275h31.713l8.024-28.275c0.382-1.146 1.146-1.91 1.91-1.91h7.26c0.764 0 1.528 0.764 1.528 1.91zM866.197 0.573c0-12.609-6.496-17.958-23.307-17.958-3.057 0-9.552 0.382-12.227 0.382v35.916c3.057 0.382 8.406 0.382 12.227 0.382 15.666 0 23.307-4.967 23.307-17.194v-1.528zM877.278 0.573v1.528c0 19.869-14.519 26.746-34.388 26.746-7.26 0-14.901-0.382-20.251-1.146-1.91-0.382-3.057-1.528-3.057-3.057v-85.206c0-1.528 1.146-2.293 2.293-2.293h6.496c1.528 0 2.293 1.146 2.293 2.293v34.388c3.057-0.382 8.406-0.764 12.227-0.764 19.869 0 34.388 6.878 34.388 27.51zM806.973-39.546c0 9.934-4.967 16.43-19.104 24.836l-11.463 6.878c-9.17 5.731-13.373 9.17-13.373 14.901 0 8.788 5.349 11.463 17.958 11.463 7.26 0 15.666-0.382 21.015-0.764h0.382c1.146 0 1.91 0.764 1.91 1.91v5.349c0 1.146-0.764 1.91-1.91 1.91-4.585 0.764-14.137 1.528-21.397 1.528-18.722 0-29.421-6.878-29.421-21.779 0-9.934 5.731-16.048 16.812-22.925l11.845-7.26c11.081-6.878 14.519-10.316 14.519-16.43 0-8.406-3.821-14.519-18.722-14.519-5.731 0-14.519 0.382-20.251 0.764h-0.382c-1.146 0-1.91-0.764-1.91-1.91v-4.967c0-1.528 0.382-1.91 2.293-2.293 5.349-0.764 11.845-1.528 20.251-1.528 24.836 0.382 30.949 12.991 30.949 24.836zM742.018-61.707v6.113c0 0.764-0.382 1.528-1.528 1.528h-23.69c-12.991 0-14.901 3.439-14.901 12.609v20.633h37.445c1.528 0 2.293 1.146 2.293 2.293v4.585c0 1.528-1.146 2.293-2.293 2.293h-37.445v17.194c0 9.17 1.91 12.609 14.901 12.609h23.69c0.764 0 1.528 0.764 1.528 1.528v6.113c0 0.764-0.382 1.528-1.146 1.528-4.967 0.382-16.812 0.764-24.072 0.764-17.194 0-25.982-6.496-25.982-22.925v-46.233c0-16.43 8.788-22.925 25.982-22.925 7.26 0 19.104 0 24.072 0.764 0.764 0 1.146 0.764 1.146 1.528zM650.316-61.707v6.113c0 0.764-0.382 1.528-1.528 1.528h-23.69c-12.991 0-14.901 3.439-14.901 12.609v20.633h37.445c1.528 0 2.293 1.146 2.293 2.293v4.585c0 1.528-1.146 2.293-2.293 2.293h-37.445v17.194c0 9.17 1.91 12.609 14.901 12.609h23.69c0.764 0 1.528 0.764 1.528 1.528v6.113c0 0.764-0.382 1.528-1.146 1.528-4.967 0.382-16.812 0.764-24.072 0.764-17.194 0-25.982-6.496-25.982-22.925v-46.233c0-16.43 8.788-22.925 25.982-22.925 7.26 0 19.104 0 24.072 0.764 0.764 0 1.146 0.764 1.146 1.528zM574.663-25.791c0-22.161-11.463-28.657-25.982-28.657-5.731 0-9.552 0-13.755 0.382v72.979c4.203 0.382 8.024 0.382 13.755 0.382 14.519 0 25.982-6.496 25.982-28.657v-16.43zM585.743-25.791v16.43c0 26.364-14.519 38.209-37.063 38.209-9.17 0-18.722-0.764-22.161-1.146-1.528-0.382-2.675-1.528-2.675-3.057v-84.060c0-1.91 1.146-2.675 2.675-3.057 3.439-0.764 12.991-1.146 22.161-1.146 22.543-0.382 37.063 11.463 37.063 37.827zM159.713 93.803l-55.021 77.564 4.203 1.528c22.161 8.788 36.681 26.364 36.681 55.403v2.293c0 46.233-36.299 61.134-77.946 61.134-19.869 0-38.973-1.528-53.11-3.439-5.349-0.764-8.788-2.675-8.788-8.024v-186.46c0-3.057 2.293-5.349 5.349-5.349h27.128c3.057 0 4.967 2.293 4.967 5.349v164.681c4.967 0.382 18.34 1.146 24.072 1.146 27.128 0 40.501-8.788 40.501-29.039v-2.293c0-23.69-12.609-31.331-40.501-31.331h-8.024c-8.024 0-8.406-8.406-2.293-17.194 4.967-6.878 12.227-17.194 12.227-17.194l49.29-68.776c1.91-2.675 4.203-5.349 7.26-5.349h31.331c2.293 0 3.439 1.146 3.439 3.057 0 0.382-0.382 1.528-0.764 2.293zM295.737 159.14v15.284c0 40.501-22.925 68.776-64.573 68.776-41.266 0-64.955-26.364-64.955-68.776v-19.869c0-53.493 38.591-68.012 65.719-68.012 24.454 0 34.77 1.528 52.728 4.585 4.967 0.764 5.731 2.675 5.731 6.878v17.576c0 2.675-2.293 4.203-4.967 4.203h-0.764c-11.463-1.146-30.185-2.675-49.672-2.675-25.982 0-32.478 18.722-32.478 34.388l0.382 27.51c0 21.397 12.227 33.242 29.039 33.242s28.275-12.227 28.275-33.242v-1.146h-110.424c-6.878 0-3.821-5.731-2.293-7.642 1.146-1.91 10.316-14.519 10.316-14.519s1.146-1.528 2.293-2.293c1.146-0.764 3.439-0.764 3.439-0.764h126.472c3.821-0.382 5.731 1.91 5.731 6.496zM440.549 88.836v139.845c0 4.203-1.146 5.731-7.26 7.26-16.812 4.203-37.063 6.878-54.257 6.878-43.558 0-64.573-25.6-64.573-68.012v-21.015c0-42.412 21.015-68.012 64.573-68.012 3.057 0 7.26 0.382 11.845 0.764 5.349 0.764 5.731 0.764 6.878 1.146 6.496 1.528 0.764 9.17 0.764 9.17l-7.642 10.316s-2.675 4.203-4.967 6.113c-1.91 1.91-5.731 1.528-7.642 1.528-23.307 0-29.039 16.43-29.039 38.591v21.015c0 22.161 5.731 38.591 29.039 38.591 9.934 0 21.015-1.528 25.982-2.293v-124.179c0-18.722-3.439-24.072-25.218-24.072-12.609 0-38.209 2.293-50.436 3.439-3.057 0-4.967-1.91-4.967-4.585v-14.519c0-3.821 1.528-5.349 5.349-6.496 9.934-3.439 27.893-6.496 50.818-6.496 41.266 0.382 60.752 16.43 60.752 55.021zM506.269 266.89v23.69c0 3.057-2.293 5.349-5.349 5.349h-26.364c-3.057 0-5.731-2.293-5.731-5.349v-23.69c0-3.057 2.675-5.349 5.731-5.349h26.364c3.057 0 5.349 2.293 5.349 5.349zM505.504 94.185v141.755c0 3.057-2.293 5.349-5.349 5.349h-24.836c-3.057 0-5.349-2.293-5.349-5.349v-141.755c0-3.057 2.293-5.731 5.349-5.731h24.836c2.675 0 5.349 2.675 5.349 5.731zM637.325 128.573c0 13.755-3.439 27.51-25.982 41.266l-35.534 21.779c-6.878 4.203-10.699 6.878-10.699 11.081 0 8.406 5.731 11.463 18.722 11.463 15.284 0 37.063-2.293 44.704-3.439h1.146c2.675 0 4.203 1.91 4.203 4.967v15.666c0 3.439-1.528 5.349-4.967 6.113-13.755 3.057-26.364 5.349-48.143 5.349-34.388 0-51.582-13.373-51.582-40.501 0-15.666 9.552-29.421 22.925-37.445l37.063-22.925c8.788-5.349 11.845-8.788 11.845-13.755 0-7.26-2.293-12.991-19.104-12.991-8.024 0-32.478 1.528-45.469 3.057h-1.146c-2.675 0-4.585-2.293-4.585-4.203v-16.43c0-3.439 1.91-5.349 4.967-6.113 15.284-4.203 37.827-5.349 48.525-5.349 35.534 0 53.11 18.722 53.11 42.412zM724.060 113.29c-1.146 0.764-4.203 0.764-4.203 0.764h-8.024c-11.463 0-16.43 1.91-16.43 12.609v87.499h38.209c3.057 0 5.349 2.293 5.349 5.349v16.048c0 3.057-2.293 5.349-5.349 5.349h-38.209v26.364c0 2.675-2.293 5.349-4.585 5.349h-0.764l-25.218-4.203c-3.057-0.382-5.349-2.293-5.349-5.349v-136.406c0-31.331 16.048-40.501 42.794-40.501 11.463 0 25.218 1.146 31.713 2.293 3.439 0.382 4.585 2.675 4.585 3.821 0.382 0.764 0 2.293-1.146 3.821l-2.293 3.057-8.024 11.081-3.057 3.057zM826.46 217.6v20.633c0 4.203-4.585 4.585-8.024 4.585-23.307 0-37.827-2.293-55.021-8.024-4.967-1.528-7.26-4.585-7.26-8.024v-132.967c0-3.057 2.293-5.731 5.349-5.731h25.218c3.057 0 4.967 2.675 4.967 5.731v117.301c6.496 1.528 17.576 1.91 26.364 1.91 6.878 0 8.406 1.91 8.406 4.585zM957.134 93.803v97.433c0 34.77-21.015 51.582-59.606 51.582-18.722 0-34.388-2.293-45.087-4.203-3.439-0.764-4.967-2.675-4.967-5.731v-17.194c0-3.821 2.293-4.585 4.967-4.585h1.528c8.788 1.146 26.746 2.293 44.322 2.293 16.048 0 23.69-4.203 23.69-21.779v-11.845h-17.194c-46.997 0-66.101-16.048-66.101-46.997v-1.146c0-36.681 24.454-45.087 46.997-45.087 9.552 0 18.722 2.293 27.893 6.496 2.293 1.146 4.203 3.057 4.585 4.585 0.382 1.91-1.528 4.585-1.528 4.585l-6.878 9.552s-2.293 3.057-3.821 3.439c-1.528 0.382-3.439 0.382-5.731 0-1.91-0.382-3.821-0.382-5.731-0.382-13.373 0-19.487 3.439-19.487 16.812v1.146c0 15.284 5.349 22.925 30.185 22.925h17.194v-61.899c0-3.057 2.293-5.349 5.349-5.349h24.836c2.293 0 4.585 2.293 4.585 5.349zM1106.913 100.681v188.37c0 3.057-2.293 5.349-5.349 5.349h-24.836c-3.057 0-5.349-2.293-5.349-5.349v-171.558c-4.967-1.146-16.43-1.91-25.982-1.91-23.307 0-29.039 16.43-29.039 38.591v21.015c0 22.161 5.731 38.591 29.039 38.591 3.821 0 9.17-0.382 14.901-0.764 3.821-0.382 6.496 1.146 6.496 3.057 0 2.675-3.057 6.496-3.057 6.496l-9.934 13.755s-2.293 3.439-3.439 4.967c-1.146 1.528-3.821 1.91-4.967 1.91-43.558 0-64.573-25.6-64.573-68.012v-21.015c0-42.412 21.015-68.012 64.573-68.012 17.194 0 37.827 2.675 54.257 6.878 6.113 1.91 7.26 3.439 7.26 7.642zM1224.215 153.409c0-22.161-9.934-36.681-29.039-36.681s-29.039 14.519-29.039 36.681v21.779c0 22.161 9.934 36.681 29.039 36.681s29.039-14.519 29.039-36.681v-21.779zM1260.131 153.409v21.779c0 38.591-22.161 67.63-64.573 67.63s-64.573-28.657-64.573-67.63v-21.779c0-38.591 22.161-67.63 64.573-67.63 42.412 0.382 64.573 29.039 64.573 67.63zM1354.125 217.6v20.633c0 4.203-4.585 4.585-8.024 4.585-23.307 0-37.827-2.293-55.021-8.024-4.967-1.528-7.26-4.585-7.26-8.024v-132.967c0-3.057 2.293-5.731 5.349-5.731h25.218c3.057 0 4.967 2.675 4.967 5.731v117.301c6.496 1.528 17.576 1.91 26.364 1.91 6.878 0 8.406 1.91 8.406 4.585zM1618.913 128.573c0 13.755-3.439 27.51-25.982 41.266l-35.534 21.779c-6.878 4.203-10.699 6.878-10.699 11.081 0 8.406 5.731 11.463 18.722 11.463 15.284 0 37.063-2.293 44.704-3.439h1.146c2.675 0 4.203 1.91 4.203 4.967v15.666c0 3.439-1.528 5.349-4.967 6.113-13.755 3.057-26.364 5.349-48.143 5.349-34.388 0-51.582-13.373-51.582-40.501 0-15.666 9.552-29.421 22.925-37.445l37.063-22.925c8.788-5.349 11.845-8.788 11.845-13.755 0-7.26-2.293-12.991-19.104-12.991-8.024 0-32.478 1.528-45.469 3.057h-1.146c-2.675 0-4.585-2.293-4.585-4.203v-16.43c0-3.439 1.91-5.349 4.967-6.113 15.284-4.203 37.827-5.349 48.525-5.349 35.534 0 53.11 18.722 53.11 42.412zM1492.442 159.14v15.284c0 40.501-22.925 68.776-64.573 68.776-41.266 0-64.955-26.364-64.955-68.776v-19.869c0-53.493 38.591-68.012 65.719-68.012 24.454 0 34.77 1.528 52.728 4.585 4.967 0.764 5.731 2.675 5.731 6.878v17.576c0 2.675-2.293 4.203-4.967 4.203h-0.764c-11.463-1.146-30.185-2.675-49.672-2.675-25.982 0-32.478 18.722-32.478 34.388l0.382 27.51c0 21.397 12.227 33.242 29.039 33.242s28.275-12.227 28.275-33.242v-1.146h-109.66c-6.878 0-3.821-5.731-2.293-7.642 1.146-1.91 10.316-14.519 10.316-14.519s1.146-1.528 2.293-2.293c1.146-0.764 3.439-0.764 3.439-0.764h126.472c3.439-0.382 4.967 1.91 4.967 6.496z" />
<glyph unicode="&#xe933;" glyph-name="logo-registradores" horiz-adv-x="2426" d="M2330.579 732.817c0-75.541-71.064-132.616-151.642-132.616h-113.591s0 16.227 11.751 27.419c11.191 11.191 26.299 10.632 26.299 10.632h38.050c49.801 0 85.054 37.491 92.887 77.22 1.119 5.596 1.679 11.751 1.679 17.346 0 9.513-1.679 20.144-5.596 30.776-1.679 5.596-4.477 10.632-7.274 15.668s-6.155 10.072-10.072 15.108c-15.668 19.025-39.169 33.014-71.624 33.014h-113.591s-25.18 0.56-45.325 8.393c-25.18 9.513-49.242 29.657-49.242 29.657h208.157c16.787 0 36.931-1.119 57.635-4.477s42.527-8.953 62.111-17.906 36.931-21.823 49.801-39.729c11.751-17.346 19.585-41.967 19.585-70.505zM2425.705 486.050v378.824s0 95.126-95.126 95.126h-378.824s-95.126 0-95.126-95.126v-378.824s0-95.126 95.126-95.126h115.27c43.086-60.433 85.613-120.866 85.613-120.866s9.513-11.191 26.859-11.191h111.353c-15.668 1.119-24.621 11.191-24.621 11.191s-16.227 22.942-38.61 54.837c-4.477 6.155-9.513 12.87-13.989 20.144-12.31 17.346-25.74 36.372-39.169 54.837-26.299 37.491-52.599 73.303-67.707 94.566-4.477 6.155-8.393 11.191-10.632 14.549-1.679 2.238-2.798 3.357-3.357 3.917-10.632 10.632-24.061 11.191-26.859 11.191h113.591c8.393 0 15.108-2.798 19.585-5.596 2.238-1.679 3.917-2.798 5.036-3.917l1.679-1.679 87.292-121.985h37.491c-0.56-0.56 95.126-0.56 95.126 95.126zM1980.852-13.639h-33.574l13.989 50.361c0.56 1.679 1.119 2.798 2.798 2.798s2.238-1.119 2.798-2.798l13.989-50.361zM2007.711-60.643v1.119l-27.978 99.602c-2.798 9.513-9.513 11.191-15.668 11.191-5.596 0-12.87-2.238-15.668-11.751l-27.978-99.602v-1.119c0-1.119 1.119-2.238 2.798-2.238h8.953c1.119 0 2.238 1.119 2.798 2.238l9.513 35.252h39.729l10.072-35.252c0.56-1.119 1.119-2.238 2.798-2.238h8.953c1.119 0.56 1.679 1.679 1.679 2.798zM1893.001 73.093v3.357c0 1.119-1.119 2.798-2.238 2.798h-5.036c-1.119 0-2.798-1.119-2.798-2.798v-3.357c0-5.036-1.679-6.715-4.477-6.715-1.119 0-3.917 1.119-5.596 2.238l-10.632 8.393c-2.798 2.238-5.596 3.917-8.953 3.917-8.953 0-14.549-5.596-14.549-16.787v-3.357c0-1.119 1.119-2.798 2.238-2.798h4.477c1.119 0 2.798 1.119 2.798 2.798v3.357c0 4.477 1.119 7.274 4.477 7.274 1.679 0 2.798-0.56 6.155-3.357l9.513-7.274c2.798-2.238 6.155-3.357 9.513-3.357 11.191 0 15.108 5.596 15.108 15.668zM1907.55-58.404v106.317c0 1.679-1.119 2.798-2.798 2.798h-7.834c-1.679 0-2.798-1.119-2.798-2.798v-90.090l-0.56 0.56-47.003 88.97c-1.119 2.238-2.238 2.798-6.155 2.798h-8.393c-2.238 0-4.477-1.679-4.477-4.477v-107.436c0-1.679 1.119-1.679 2.798-1.679h7.834c1.679 0 2.798 1.119 2.798 2.798v89.53s0.56 0 0.56-0.56l47.003-89.53c0.56-1.679 2.238-2.238 5.036-2.238h9.513c2.238 0.56 4.477 2.798 4.477 5.036zM1787.803-13.639h-33.574l13.989 50.361c0.56 1.679 1.119 2.798 2.798 2.798s2.238-1.119 2.798-2.798l13.989-50.361zM1815.222-60.643v1.119l-27.978 99.602c-2.798 9.513-9.513 11.191-15.668 11.191-5.596 0-12.87-2.238-15.668-11.751l-27.978-99.602v-1.119c0-1.119 1.119-2.238 2.798-2.238h8.953c1.119 0 2.238 1.119 2.798 2.238l9.513 35.252h39.729l10.072-35.252c0.56-1.119 1.119-2.238 2.798-2.238h8.953c0.56 0.56 1.679 1.679 1.679 2.798zM1715.62 16.577c0-15.668-7.834-22.383-29.097-22.383-3.917 0-11.751 0.56-15.108 0.56v44.765c3.917 0.56 10.632 0.56 15.108 0.56 19.585 0 29.097-6.155 29.097-21.263v-2.238zM1729.049 16.577v2.238c0 24.621-17.906 33.014-42.527 33.014-8.953 0-19.025-0.56-25.18-1.119-2.238-0.56-3.917-1.679-3.917-3.917v-106.317c0-1.679 1.119-2.798 2.798-2.798h8.393c1.679 0 2.798 1.679 2.798 2.798v43.086c3.917-0.56 10.632-0.56 15.108-0.56 24.621-0.56 42.527 7.834 42.527 33.574zM1641.757-33.224c0 12.31-6.155 20.704-24.061 31.336l-13.989 8.393c-11.751 7.274-16.787 11.191-16.787 18.466 0 11.191 6.715 14.549 22.383 14.549 8.953 0 19.585-0.56 26.299-1.119h0.56c1.679 0 2.798 1.119 2.798 2.238v6.715c0 1.679-1.119 2.238-2.798 2.798-5.596 1.119-17.346 1.679-26.299 1.679-22.942 0-36.372-8.393-36.372-26.859 0-12.31 7.274-20.144 21.263-28.538l14.549-8.953c13.989-8.393 18.466-12.87 18.466-20.704 0-10.632-5.036-17.906-22.942-17.906-7.274 0-17.906 0.56-25.18 1.119h-0.56c-1.119 0-2.798-0.56-2.798-2.238v-6.155c0-1.679 0.56-2.238 2.798-2.798 6.715-1.119 14.549-2.238 25.18-2.238 29.657-0.56 37.491 15.108 37.491 30.216zM1560.621-61.202v7.834c0 1.119-0.56 1.679-1.679 1.679h-29.657c-16.227 0-19.025 4.477-19.025 15.668v25.74h47.003c1.679 0 2.798 1.119 2.798 2.798v5.596c0 1.679-1.119 2.798-2.798 2.798h-46.444v21.263c0 11.751 2.798 15.668 19.025 15.668h29.657c1.119 0 1.679 0.56 1.679 1.679v7.834c0 1.119-0.56 2.238-1.679 2.238-6.155 0.56-20.704 1.119-29.657 1.119-21.263 0-32.455-7.834-32.455-28.538v-58.754c0-20.144 11.191-28.538 32.455-28.538 8.953 0 24.061 0 29.657 0.56 0.56 1.679 1.119 2.798 1.119 3.357zM1446.47-61.202v7.834c0 1.119-0.56 1.679-1.679 1.679h-29.097c-16.227 0-19.025 4.477-19.025 15.668v25.74h47.003c1.679 0 2.798 1.119 2.798 2.798v5.596c0 1.679-1.119 2.798-2.798 2.798h-47.003v21.263c0 11.751 2.798 15.668 19.025 15.668h29.657c1.119 0 1.679 0.56 1.679 1.679v7.834c0 1.119-0.56 2.238-1.679 2.238-6.155 0.56-20.704 1.119-29.657 1.119-21.263 0-32.455-7.834-32.455-28.538v-58.754c0-20.144 11.191-28.538 32.455-28.538 8.953 0 24.061 0 29.657 0.56 0.56 1.679 1.119 2.798 1.119 3.357zM1352.463-16.437c0-27.419-13.989-35.812-32.455-35.812-7.274 0-12.31 0-16.787 0.56v91.209c5.036 0.56 9.513 0.56 16.787 0.56 18.466 0 32.455-7.834 32.455-35.812v-20.704zM1365.893-16.437v20.704c0 33.014-17.906 47.563-46.444 47.563-11.751 0-23.502-0.56-27.978-1.679-2.238-0.56-3.357-1.679-3.357-3.917v-104.638c0-2.238 1.119-3.357 3.357-3.917 4.477-0.56 16.227-1.679 27.978-1.679 28.538 0 46.444 15.108 46.444 47.563zM191.93 132.966l-68.826 96.245 5.596 1.679c27.419 10.632 45.325 33.014 45.325 68.826v2.798c0 57.635-45.325 76.101-97.364 76.101-24.621 0-48.682-1.679-66.028-4.477-6.715-1.119-10.632-3.357-10.632-10.072v-232.219c0-3.917 2.798-6.715 6.715-6.715h33.574c3.917 0 6.155 2.798 6.155 6.715v204.8c6.155 0.56 22.942 1.119 30.216 1.119 33.574 0 50.361-10.632 50.361-35.812v-2.798c0-29.657-15.668-39.169-50.361-39.169h-10.072c-10.072 0-10.632-10.632-2.798-21.263 6.155-8.393 15.668-21.263 15.668-21.263l61.552-85.613c2.238-3.357 5.596-6.715 8.953-6.715h38.61c2.798 0 4.477 1.679 4.477 3.917 0 1.679-0.56 2.798-1.119 3.917zM360.918 214.103v19.025c0 50.361-28.538 85.613-80.017 85.613s-81.137-33.014-81.137-85.613v-25.18c0-66.588 48.122-84.494 81.696-84.494 30.216 0 43.646 1.679 65.469 5.596 6.155 1.119 7.274 3.357 7.274 8.953v22.383c0 3.357-2.798 5.036-6.155 5.036h-1.119c-13.989-1.119-37.491-3.357-62.111-3.357-32.455 0-40.289 23.502-40.289 43.086l0.56 34.133c0 26.859 15.108 41.408 35.812 41.408s35.252-15.108 35.252-41.408v-1.119h-137.093c-8.393 0-4.477-7.274-2.798-9.513s12.87-17.906 12.87-17.906 1.119-1.679 2.798-2.798 4.477-1.119 4.477-1.119h157.237c5.036-1.119 7.274 1.679 7.274 7.274zM541.097 126.811v174.024c0 5.036-1.119 7.274-8.953 8.953-20.704 5.596-46.444 8.953-67.707 8.953-54.278 0-80.577-31.895-80.577-84.494v-25.74c0-52.599 26.299-84.494 80.577-84.494 3.917 0 8.953 0.56 14.549 1.119 6.715 0.56 7.274 1.119 8.953 1.119 7.834 2.238 1.119 11.751 1.119 11.751l-9.513 12.87s-3.357 5.596-6.155 7.834c-2.798 2.238-6.715 1.679-9.513 1.679-29.097 0-35.812 20.704-35.812 48.122v25.74c0 27.419 7.274 48.122 35.812 48.122 12.31 0 25.74-1.679 32.455-2.798v-154.999c0-23.502-3.917-30.216-31.336-30.216-15.668 0-47.563 2.798-62.671 3.917h-0.56c-3.917 0-6.155-2.238-6.155-5.596v-17.906c0-4.477 2.238-6.715 6.715-7.834 12.31-3.917 34.693-7.834 63.231-7.834 51.48-0.56 75.541 19.585 75.541 67.707zM623.353 348.398v29.657c0 3.917-2.798 6.715-6.715 6.715h-32.455c-3.917 0-7.274-2.798-7.274-6.715v-29.657c0-3.917 3.357-6.715 7.274-6.715h32.455c3.357 0 6.715 2.798 6.715 6.715zM622.234 132.966v176.262c0 3.917-2.798 6.715-6.715 6.715h-30.776c-3.917 0-6.715-2.798-6.715-6.715v-176.262c0-3.917 2.798-7.274 6.715-7.274h30.776c3.357 0.56 6.715 3.917 6.715 7.274zM786.186 176.052c0 17.346-3.917 34.133-32.455 51.48l-44.205 26.859c-8.393 5.036-13.43 8.393-13.43 13.989 0 10.632 7.274 13.989 23.502 13.989 19.025 0 46.444-2.798 55.397-3.917h1.119c3.357 0 5.596 2.238 5.596 6.155v19.585c0 3.917-2.238 6.715-6.155 7.834-17.346 3.917-32.455 6.715-59.873 6.715-43.086 0-63.79-16.787-63.79-50.361 0-19.585 11.751-36.372 28.538-46.444l46.444-28.538c10.632-6.715 15.108-10.632 15.108-17.346 0-8.953-2.798-16.227-24.061-16.227-10.072 0-40.289 1.679-56.516 3.917h-1.119c-3.357 0-5.596-2.798-5.596-5.596v-20.144c0-3.917 2.238-6.715 6.155-7.834 19.025-5.036 47.003-6.715 60.433-6.715 43.086 0 64.909 22.942 64.909 52.599zM894.181 157.027c-1.119 0.56-5.036 1.119-5.036 1.119h-10.632c-14.549 0-20.704 2.238-20.704 15.668v109.115h47.563c3.917 0 6.715 2.798 6.715 6.715v20.144c0 3.917-2.798 6.715-6.715 6.715h-47.563v33.014c0 3.357-2.798 6.715-5.596 6.715h-1.119l-31.336-5.596c-3.917-0.56-6.715-2.798-6.715-6.715v-170.107c0-39.169 20.144-50.361 53.158-50.361 13.989 0 31.336 1.119 39.169 2.798 4.477 0.56 5.596 3.357 6.155 4.477s0 2.798-1.679 5.036c-1.119 1.679-2.798 3.917-2.798 3.917l-10.072 13.989c1.119-0.56-1.679 2.798-2.798 3.357zM1021.762 287.405v25.74c0 5.036-5.596 5.596-9.513 5.596-29.097 0-47.003-2.798-68.267-9.513-6.155-2.238-8.953-5.596-8.953-10.072v-165.631c0-3.917 2.798-7.274 6.715-7.274h31.336c3.917 0 6.155 3.357 6.155 7.274v145.486c7.834 1.679 21.823 2.238 33.014 2.238 7.274 0 9.513 2.238 9.513 6.155zM1184.595 132.966v121.425c0 43.086-26.299 64.35-74.422 64.35-23.502 0-43.086-2.798-56.516-5.596-4.477-1.119-6.155-3.357-6.155-7.274v-21.823c0-4.477 2.798-5.596 6.155-5.596h1.679c11.191 1.119 33.574 2.798 54.837 2.798 20.144 0 29.657-5.596 29.657-27.419v-15.108h-21.263c-58.754 0-82.256-20.144-82.256-58.195v-1.119c0-45.325 30.216-56.516 58.195-56.516 11.751 0 23.502 2.798 34.693 7.834 2.798 1.119 5.036 3.917 5.596 6.155s-2.238 5.596-2.238 5.596l-8.393 11.751s-2.798 3.917-5.036 4.477c-1.679 0.56-4.477 0-6.715 0-2.238-0.56-5.036-0.56-7.274-0.56-16.787 0-24.061 4.477-24.061 20.704v1.119c0 19.025 6.715 28.538 37.491 28.538h21.263v-76.66c0-3.917 2.798-6.715 6.715-6.715h31.336c3.357 1.119 6.715 3.917 6.715 7.834zM1370.369 141.36v234.457c0 3.917-2.798 6.715-6.715 6.715h-30.776c-3.917 0-6.715-2.798-6.715-6.715v-213.753c-6.155-1.119-20.144-2.238-32.455-2.238-29.097 0-35.812 20.704-35.812 48.122v25.74c0 27.419 7.274 48.122 35.812 48.122 4.477 0 11.751-0.56 18.466-1.119 5.036-0.56 8.393 1.119 8.393 3.917 0 3.357-3.917 8.393-3.917 8.393l-12.31 17.346s-2.798 4.477-4.477 6.155c-1.679 1.679-4.477 2.238-6.155 2.238-54.278 0-80.577-31.895-80.577-84.494v-25.74c0-52.599 26.299-84.494 80.577-84.494 21.823 0 47.003 3.357 67.707 8.953 7.834 1.119 8.953 3.357 8.953 8.393zM1516.975 207.388c0-27.419-12.31-45.325-35.812-45.325s-35.812 17.906-35.812 45.325v27.419c0 27.419 12.31 45.325 35.812 45.325s35.812-17.906 35.812-45.325v-27.419zM1561.18 207.388v27.419c0 48.122-27.419 83.934-80.577 83.934s-80.577-35.812-80.577-83.934v-27.419c0-48.122 27.419-83.934 80.577-83.934s80.577 35.812 80.577 83.934zM1678.129 287.405v25.74c0 5.036-5.596 5.596-9.513 5.596-29.097 0-47.003-2.798-68.267-9.513-6.155-2.238-8.953-5.596-8.953-10.072v-165.631c0-3.917 2.798-7.274 6.715-7.274h31.336c3.917 0 6.155 3.357 6.155 7.274v145.486c7.834 1.679 21.823 2.238 33.014 2.238 7.834 0 9.513 2.238 9.513 6.155zM2008.271 176.052c0 17.346-3.917 34.133-32.455 51.48l-44.205 26.859c-8.393 5.036-13.43 8.393-13.43 13.989 0 10.632 7.274 13.989 23.502 13.989 19.025 0 46.444-2.798 55.397-3.917h1.119c3.357 0 5.596 2.238 5.596 6.155v19.585c0 3.917-2.238 6.715-6.155 7.834-17.346 3.917-32.455 6.715-59.873 6.715-43.086 0-63.79-16.787-63.79-50.361 0-19.585 11.751-36.372 28.538-46.444l46.444-28.538c10.632-6.715 15.108-10.632 15.108-17.346 0-8.953-2.798-16.227-24.061-16.227-10.072 0-40.289 1.679-56.516 3.917h-1.119c-3.357 0-5.596-2.798-5.596-5.596v-20.144c0-3.917 2.238-6.715 6.155-7.834 19.025-5.036 47.003-6.715 60.433-6.715 43.086 0 64.909 22.942 64.909 52.599zM1850.474 214.103v19.025c0 50.361-28.538 85.613-80.017 85.613s-81.137-33.014-81.137-85.613v-25.18c0-66.588 48.122-84.494 81.696-84.494 30.216 0 43.646 1.679 65.469 5.596 6.155 1.119 7.274 3.357 7.274 8.953v22.383c0 3.357-2.798 5.036-6.155 5.036h-1.119c-13.989-1.119-37.491-3.357-62.111-3.357-32.455 0-40.289 23.502-40.289 43.086l0.56 34.133c0 26.859 15.108 41.408 35.812 41.408s35.252-15.108 35.252-41.408v-1.119h-136.533c-8.393 0-4.477-7.274-2.798-9.513s12.87-17.906 12.87-17.906 1.119-1.679 2.798-2.798 4.477-1.119 4.477-1.119h157.237c5.036-1.119 6.715 1.679 6.715 7.274z" />
<glyph unicode="&#xe946;" glyph-name="logo-registradores-line" horiz-adv-x="5707" d="M5654.575 504.889h-79.464l32.508 117.39c1.806 3.612 3.612 7.224 7.224 7.224s5.418-1.806 7.224-7.224l32.508-117.39zM5717.785 394.723v1.806l-65.016 232.974c-5.418 21.672-23.478 27.090-36.12 27.090s-30.702-5.418-36.12-27.090l-65.016-231.168v-1.806c0-3.612 1.806-5.418 5.418-5.418h21.672c3.612 0 5.418 1.806 7.224 5.418l23.478 81.27h92.106l23.478-81.27c0-3.612 3.612-5.418 5.418-5.418h21.672c0-1.806 1.806 0 1.806 3.612zM5450.497 707.16v9.030c0 3.612-1.806 5.418-5.418 5.418h-10.836c-3.612 0-5.418-3.612-5.418-5.418v-9.030c0-12.642-3.612-16.254-10.836-16.254-3.612 0-9.030 1.806-12.642 5.418l-25.284 19.866c-7.224 5.418-12.642 9.030-21.672 9.030-21.672 0-34.314-12.642-34.314-37.926v-7.224c0-3.612 1.806-5.418 5.418-5.418h10.836c3.612 0 5.418 3.612 5.418 5.418v7.224c0 10.836 1.806 16.254 10.836 16.254 3.612 0 5.418-1.806 14.448-7.224l21.672-18.060c7.224-5.418 14.448-7.224 23.478-7.224 25.284-1.806 34.314 10.836 34.314 36.12zM5484.811 400.141v247.422c0 3.612-1.806 7.224-7.224 7.224h-18.060c-3.612 0-7.224-3.612-7.224-7.224v-207.69l-110.166 207.69c-3.612 5.418-5.418 7.224-14.448 7.224h-19.866c-5.418 0-10.836-3.612-10.836-10.836v-251.034c0-3.612 3.612-3.612 7.224-3.612h18.060c3.612 0 7.224 3.612 7.224 7.224v209.496l1.806-1.806 110.166-209.496c1.806-3.612 5.418-5.418 10.836-5.418h21.672c5.418 0 10.836 5.418 10.836 10.836zM5206.688 504.889h-79.464l32.508 117.39c1.806 3.612 3.612 7.224 7.224 7.224s5.418-1.806 7.224-7.224l32.508-117.39zM5268.092 394.723v1.806l-65.016 232.974c-5.418 21.672-23.478 27.090-36.12 27.090s-30.702-5.418-36.12-27.090l-65.016-231.168v-1.806c0-3.612 1.806-5.418 5.418-5.418h21.672c3.612 0 5.418 1.806 7.224 5.418l23.478 81.27h92.106l23.478-81.27c0-3.612 3.612-5.418 5.418-5.418h21.672c0-1.806 1.806 0 1.806 3.612zM5036.924 575.323c0-36.12-18.060-52.374-66.822-52.374-9.030 0-27.090 1.806-36.12 1.806v104.748c9.030 0 25.284 1.806 36.12 1.806 45.15 0 66.822-14.448 66.822-50.568v-5.418zM5069.432 575.323v5.418c0 57.792-41.538 77.658-99.33 77.658-19.866 0-43.344-1.806-59.598-3.612-5.418 0-9.030-3.612-9.030-9.030v-247.422c0-3.612 3.612-7.224 7.224-7.224h19.866c3.612 0 7.224 3.612 7.224 7.224v99.33c9.030 0 23.478-1.806 36.12-1.806 54.18-1.806 97.524 19.866 97.524 79.464zM4865.354 457.933c0 28.896-14.448 48.762-55.986 72.24l-32.508 19.866c-27.090 16.254-37.926 27.090-37.926 43.344 0 25.284 16.254 34.314 52.374 34.314 19.866 0 45.15-1.806 61.404-1.806 3.612 0 5.418 1.806 5.418 5.418v14.448c0 3.612-1.806 5.418-5.418 5.418-12.642 1.806-41.538 3.612-61.404 3.612-54.18 0-84.882-19.866-84.882-63.21 0-28.896 16.254-46.956 48.762-66.822l34.314-21.672c32.508-19.866 43.344-30.702 43.344-46.956 0-25.284-10.836-41.538-54.18-41.538-16.254 0-41.538 0-59.598 1.806h-1.806c-3.612 0-5.418-1.806-5.418-5.418v-14.448c0-3.612 0-5.418 7.224-7.224 16.254-1.806 34.314-5.418 59.598-5.418 68.628 3.612 86.688 39.732 86.688 74.046zM4675.725 392.917v18.060c0 1.806-1.806 3.612-3.612 3.612h-68.628c-37.926 0-43.344 10.836-43.344 36.12v59.598h110.166c3.612 0 7.224 3.612 7.224 7.224v12.642c0 3.612-3.612 7.224-7.224 7.224h-110.166v48.762c0 27.090 5.418 36.12 43.344 36.12h68.628c1.806 0 3.612 1.806 3.612 3.612v18.060c0 1.806-1.806 5.418-3.612 5.418-14.448 1.806-48.762 1.806-68.628 1.806-50.568 0-75.852-18.060-75.852-66.822v-137.256c0-46.956 25.284-66.822 75.852-66.822 21.672 0 55.986 0 68.628 1.806 1.806 7.224 3.612 9.030 3.612 10.836zM4410.243 392.917v18.060c0 1.806-1.806 3.612-3.612 3.612h-68.628c-37.926 0-43.344 10.836-43.344 36.12v59.598h110.166c3.612 0 7.224 3.612 7.224 7.224v12.642c0 3.612-3.612 7.224-7.224 7.224h-110.166v48.762c0 27.090 5.418 36.12 43.344 36.12h68.628c1.806 0 3.612 1.806 3.612 3.612v18.060c0 1.806-1.806 5.418-3.612 5.418-14.448 1.806-48.762 1.806-68.628 1.806-50.568 0-75.852-18.060-75.852-66.822v-137.256c0-46.956 25.284-66.822 75.852-66.822 21.672 0 55.986 0 68.628 1.806 1.806 7.224 3.612 9.030 3.612 10.836zM4189.912 497.665c0-63.21-32.508-83.076-75.852-83.076h-39.732v213.108c10.836 0 23.478 1.806 39.732 1.806 43.344 0 75.852-18.060 75.852-83.076v-48.762zM4222.42 497.665v48.762c0 77.658-41.538 110.166-108.36 110.166-27.090 0-54.18-1.806-65.016-3.612-5.418 0-7.224-3.612-7.224-9.030v-243.81c0-5.418 3.612-9.030 7.224-9.030 10.836-1.806 37.926-3.612 65.016-3.612 65.016 0 108.36 34.314 108.36 110.166zM1370.751 398.335l-95.718 135.45 7.224 3.612c39.732 14.448 63.21 46.956 63.21 97.524v3.612c0 81.27-63.21 106.554-137.256 106.554-34.314 0-68.628-1.806-92.106-5.418-9.030-1.806-14.448-5.418-14.448-14.448v-326.885c0-5.418 3.612-9.030 9.030-9.030h46.956c5.418 0 9.030 3.612 9.030 9.030v288.959c9.030 1.806 32.508 1.806 41.538 1.806 46.956 0 70.434-14.448 70.434-50.568v-3.612c0-41.538-21.672-54.18-70.434-54.18h-14.448c-14.448 0-14.448-14.448-3.612-28.896 9.030-12.642 21.672-30.702 21.672-30.702l86.688-121.002c3.612-3.612 7.224-9.030 12.642-9.030h54.18c3.612 0 7.224 1.806 7.224 5.418 0-1.806 0 0-1.806 1.806zM1609.143 512.113v27.090c0 70.434-39.732 121.002-113.778 121.002-72.24 0-113.778-46.956-113.778-121.002v-34.314c0-93.912 66.822-119.196 115.584-119.196 43.344 0 61.404 1.806 92.106 7.224 9.030 1.806 10.836 5.418 10.836 12.642v30.702c0 5.418-3.612 7.224-9.030 7.224h-1.806c-19.866-1.806-52.374-5.418-86.688-5.418-45.15 0-57.792 32.508-57.792 59.598v48.762c0 37.926 21.672 57.792 50.568 57.792s50.568-21.672 50.568-57.792v-1.806h-193.242c-12.642 0-7.224-10.836-3.612-12.642 1.806-3.612 18.060-25.284 18.060-25.284l3.612-3.612c1.806-1.806 7.224-1.806 7.224-1.806h220.332c7.224-1.806 10.836 3.612 10.836 10.836zM1861.982 389.305v245.616c0 7.224-1.806 10.836-12.642 12.642-28.896 7.224-65.016 12.642-95.718 12.642-75.852 0-113.778-45.15-113.778-119.196v-36.12c0-74.046 36.12-119.196 113.778-119.196 5.418 0 12.642 0 21.672 1.806s10.836 1.806 12.642 1.806c10.836 3.612 1.806 16.254 1.806 16.254l-12.642 18.060s-5.418 7.224-9.030 10.836c-3.612 1.806-10.836 1.806-14.448 1.806-41.538 0-50.568 28.896-50.568 68.628v36.12c0 39.732 10.836 68.628 50.568 68.628 16.254 0 36.12-1.806 45.15-3.612v-218.526c0-32.508-5.418-41.538-43.344-41.538-21.672 0-66.822 3.612-88.494 5.418h-1.806c-5.418 0-9.030-3.612-9.030-7.224v-25.284c0-7.224 3.612-9.030 9.030-10.836 18.060-5.418 48.762-10.836 88.494-10.836 74.046-3.612 108.36 25.284 108.36 92.106zM1977.566 701.743v41.538c0 5.418-3.612 9.030-9.030 9.030h-45.15c-5.418 0-10.836-3.612-10.836-9.030v-41.538c0-5.418 5.418-9.030 10.836-9.030h45.15c5.418-1.806 9.030 3.612 9.030 9.030zM1975.76 398.335v247.422c0 5.418-3.612 9.030-9.030 9.030h-43.344c-5.418 0-9.030-3.612-9.030-9.030v-247.422c0-5.418 3.612-10.836 9.030-10.836h43.344c5.418 0 9.030 5.418 9.030 10.836zM2206.928 457.933c0 23.478-5.418 48.762-45.15 72.24l-61.404 37.926c-12.642 7.224-19.866 12.642-19.866 19.866 0 14.448 10.836 19.866 32.508 19.866 27.090 0 65.016-3.612 77.658-5.418h1.806c5.418 0 7.224 3.612 7.224 9.030v27.090c0 5.418-3.612 9.030-9.030 10.836-23.478 5.418-45.15 9.030-84.882 9.030-59.598 0-90.3-23.478-90.3-70.434 0-27.090 16.254-50.568 39.732-65.016l65.016-39.732c14.448-9.030 21.672-14.448 21.672-23.478 0-12.642-3.612-23.478-34.314-23.478-14.448 0-57.792 1.806-79.464 5.418h-1.806c-5.418 0-7.224-3.612-7.224-7.224v-28.896c0-5.418 3.612-9.030 9.030-10.836 27.090-7.224 66.822-9.030 84.882-9.030 63.21-1.806 93.912 32.508 93.912 72.24zM2358.631 432.649c-1.806 1.806-7.224 1.806-7.224 1.806h-14.448c-19.866 0-28.896 3.612-28.896 21.672v153.51h66.822c5.418 0 9.030 3.612 9.030 9.030v27.090c0 5.418-3.612 9.030-9.030 9.030h-66.822v46.956c0 5.418-3.612 9.030-7.224 9.030h-1.806l-43.344-7.224c-5.418-1.806-9.030-3.612-9.030-9.030v-238.392c0-54.18 27.090-70.434 74.046-70.434 19.866 0 43.344 1.806 55.986 3.612 5.418 1.806 7.224 5.418 9.030 7.224 0 1.806 0 3.612-1.806 7.224s-3.612 5.418-3.612 5.418l-14.448 19.866c-1.806-1.806-5.418 1.806-7.224 3.612zM2537.425 615.055v36.12c0 7.224-7.224 7.224-14.448 7.224-41.538 0-65.016-3.612-95.718-14.448-9.030-3.612-12.642-7.224-12.642-14.448v-232.974c0-5.418 3.612-10.836 9.030-10.836h43.344c5.418 0 9.030 5.418 9.030 10.836v205.884c10.836 1.806 30.702 3.612 46.956 3.612 12.642 0 14.448 3.612 14.448 9.030zM2766.787 398.335v171.57c0 61.404-36.12 90.3-104.748 90.3-32.508 0-59.598-3.612-79.464-7.224-5.418-1.806-9.030-5.418-9.030-10.836v-30.702c0-7.224 3.612-7.224 9.030-7.224h1.806c16.254 1.806 46.956 3.612 77.658 3.612 27.090 0 41.538-7.224 41.538-37.926v-21.672h-30.702c-83.076 0-115.584-27.090-115.584-81.27v-1.806c0-63.21 43.344-79.464 81.27-79.464 16.254 0 32.508 3.612 48.762 10.836 3.612 1.806 7.224 5.418 7.224 9.030s-3.612 9.030-3.612 9.030l-12.642 16.254s-3.612 5.418-7.224 5.418h-19.866c-23.478 0-34.314 5.418-34.314 28.896v1.806c0 27.090 9.030 39.732 52.374 39.732h30.702v-108.36c0-5.418 3.612-9.030 9.030-9.030h43.344c10.836-1.806 14.448 3.612 14.448 9.030zM3028.656 409.171v330.497c0 5.418-3.612 9.030-9.030 9.030h-43.344c-5.418 0-9.030-3.612-9.030-9.030v-299.795c-9.030-1.806-28.896-3.612-45.15-3.612-41.538 0-50.568 28.896-50.568 68.628v36.12c0 39.732 10.836 68.628 50.568 68.628 7.224 0 16.254 0 25.284-1.806 7.224 0 10.836 1.806 10.836 5.418 0 5.418-5.418 10.836-5.418 10.836l-16.254 23.478s-3.612 5.418-5.418 9.030c-1.806 1.806-7.224 3.612-9.030 3.612-75.852 0-113.778-45.15-113.778-119.196v-36.12c0-74.046 36.12-119.196 113.778-119.196 30.702 0 66.822 5.418 95.718 12.642 9.030 1.806 10.836 3.612 10.836 10.836zM3234.54 503.083c0-39.732-18.060-63.21-50.568-63.21s-50.568 25.284-50.568 63.21v37.926c0 39.732 18.060 63.21 50.568 63.21s50.568-25.284 50.568-63.21v-37.926zM3297.75 503.083v37.926c0 68.628-39.732 117.39-113.778 117.39s-113.778-50.568-113.778-117.39v-37.926c0-68.628 39.732-117.39 113.778-117.39 74.046-1.806 113.778 48.762 113.778 117.39zM3462.095 615.055v36.12c0 7.224-7.224 7.224-14.448 7.224-41.538 0-65.016-3.612-95.718-14.448-9.030-3.612-12.642-7.224-12.642-14.448v-232.974c0-5.418 3.612-10.836 9.030-10.836h43.344c5.418 0 9.030 5.418 9.030 10.836v205.884c10.836 1.806 30.702 3.612 46.956 3.612 10.836 0 14.448 3.612 14.448 9.030zM3926.236 457.933c0 23.478-5.418 48.762-45.15 72.24l-61.404 37.926c-12.642 7.224-19.866 12.642-19.866 19.866 0 14.448 10.836 19.866 32.508 19.866 27.090 0 65.016-3.612 77.658-5.418h1.806c5.418 0 7.224 3.612 7.224 9.030v27.090c0 5.418-3.612 9.030-9.030 10.836-23.478 5.418-45.15 9.030-84.882 9.030-59.598 0-90.3-23.478-90.3-70.434 0-27.090 16.254-50.568 39.732-65.016l65.016-39.732c14.448-9.030 21.672-14.448 21.672-23.478 0-12.642-3.612-23.478-34.314-23.478-14.448 0-57.792 1.806-79.464 5.418h-1.806c-5.418 0-7.224-3.612-7.224-7.224v-28.896c0-5.418 3.612-9.030 9.030-10.836 27.090-7.224 66.822-9.030 84.882-9.030 63.21-1.806 93.912 32.508 93.912 72.24zM3704.099 512.113v27.090c0 70.434-39.732 121.002-113.778 121.002-72.24 0-113.778-46.956-113.778-121.002v-34.314c0-93.912 66.822-119.196 115.584-119.196 43.344 0 61.404 1.806 92.106 7.224 9.030 1.806 10.836 5.418 10.836 12.642v30.702c0 5.418-3.612 7.224-9.030 7.224h-1.806c-19.866-1.806-52.374-5.418-86.688-5.418-45.15 0-57.792 32.508-57.792 59.598v48.762c0 37.926 21.672 57.792 50.568 57.792s50.568-21.672 50.568-57.792v-1.806h-191.436c-12.642 0-7.224-10.836-3.612-12.642 1.806-3.612 18.060-25.284 18.060-25.284l3.612-3.612c1.806-1.806 7.224-1.806 7.224-1.806h220.332c7.224-1.806 9.030 3.612 9.030 10.836zM686.279 606.025c0-102.942-95.718-180.6-205.884-180.6h-155.316s0 21.672 16.254 37.926c16.254 16.254 36.12 14.448 36.12 14.448h52.374c66.822 0 115.584 50.568 126.42 104.748 1.806 7.224 1.806 16.254 1.806 23.478 0 12.642-1.806 27.090-7.224 41.538-1.806 7.224-5.418 14.448-9.030 21.672s-9.030 14.448-14.448 19.866c-21.672 25.284-54.18 45.15-97.524 45.15h-155.316s-34.314 1.806-61.404 10.836c-36.12 12.642-68.628 41.538-68.628 41.538h283.541c23.478 0 50.568-1.806 79.464-5.418s57.792-12.642 84.882-25.284 50.568-30.702 66.822-54.18c16.254-23.478 27.090-55.986 27.090-95.718zM814.504 270.109v514.709s0 130.032-130.032 130.032h-514.709s-130.032 0-130.032-130.032v-514.709s0-130.032 130.032-130.032h157.122c57.792-83.076 115.584-164.346 115.584-164.346s12.642-16.254 36.12-16.254h151.704c-21.672 1.806-34.314 14.448-34.314 14.448s-21.672 30.702-52.374 74.046c-5.418 9.030-12.642 18.060-19.866 27.090-16.254 23.478-34.314 48.762-52.374 74.046-36.12 50.568-70.434 99.33-92.106 128.226-5.418 9.030-10.836 14.448-14.448 19.866-1.806 3.612-3.612 5.418-3.612 5.418-14.448 14.448-32.508 16.254-36.12 16.254h155.316c10.836 0 21.672-3.612 27.090-7.224 3.612-1.806 5.418-3.612 7.224-5.418l1.806-1.806 119.196-166.152h50.568c0 1.806 128.226 1.806 128.226 131.838z" />
<glyph unicode="&#xe947;" horiz-adv-x="3378" d="M1511.874-37.194h-273.424l171.56 965.026h268.063z" />
<glyph unicode="&#xe948;" horiz-adv-x="3378" d="M1511.874-37.194h-273.424l219.812 965.026h219.812z" />
<glyph unicode="&#xe949;" horiz-adv-x="3378" d="M2482.262 917.11c-53.613 21.445-139.393 42.89-246.618 42.89-268.063 0-461.068-134.031-461.068-327.037 0-144.754 134.031-219.812 241.257-268.063s139.393-80.419 139.393-123.309c0-64.335-85.78-96.503-160.838-96.503-107.225 0-166.199 16.084-257.34 53.613l-37.529 16.084-37.529-219.812c64.335-26.806 182.283-53.613 305.592-53.613 284.147 0 471.791 134.031 471.791 337.759 0 112.586-69.696 198.366-230.534 268.063-96.503 48.251-155.476 75.058-155.476 123.309 0 42.89 48.251 85.78 155.476 85.78 91.141 0 155.476-16.084 203.728-37.529l26.806-10.723 42.89 209.089z" />
<glyph unicode="&#xe94a;" horiz-adv-x="3378" d="M2482.262 917.11c-53.613 21.445-139.393 42.89-246.618 42.89-268.063 0-412.817-134.031-412.817-327.037 0-144.754 85.78-219.812 193.005-268.063s139.393-80.419 139.393-123.309c0-64.335-85.78-96.503-160.838-96.503-107.225 0-166.199 16.084-257.34 53.613l-37.529 16.084-37.529-219.812c64.335-26.806 182.283-53.613 305.592-53.613 284.147 0 471.791 134.031 471.791 337.759 0 112.586-69.696 198.366-230.534 268.063-96.503 48.251-155.476 75.058-155.476 123.309 0 42.89 48.251 85.78 155.476 85.78 91.141 0 155.476-16.084 203.728-37.529l26.806-10.723 42.89 209.089z" />
<glyph unicode="&#xe94b;" horiz-adv-x="3378" d="M2943.33 927.832c-64.335 0-112.586-5.361-139.393-69.696l-402.094-895.33h289.508l53.613 160.838h343.12l32.168-160.838h257.34l-225.173 965.026h-209.089zM2820.021 284.482c16.084 48.251 107.225 284.147 107.225 284.147s21.445 58.974 37.529 96.503l16.084-91.141s53.613-241.257 64.335-294.869h-225.173v5.361z" />
<glyph unicode="&#xe94c;" horiz-adv-x="3378" d="M3007.665 927.832c-64.335 0-112.586-5.361-139.393-69.696l-466.429-895.33h289.508l53.613 160.838h343.12l32.168-160.838h257.34l-225.173 965.026h-144.754zM2820.021 284.482c21.445 53.613 107.225 284.147 107.225 284.147s21.445 58.974 37.529 96.503l16.084-91.141s53.613-241.257 64.335-294.869h-225.173v5.361z" />
<glyph unicode="&#xe94d;" horiz-adv-x="3378" d="M745.215 252.314l-26.806 139.393c-48.251 160.838-203.728 337.759-375.288 423.539l241.257-857.801h289.508l434.262 965.026h-289.508l-273.424-670.157z" />
<glyph unicode="&#xe94e;" horiz-adv-x="3378" d="M745.215 252.314l-26.806 139.393c-48.251 160.838-203.728 337.759-375.288 423.539l241.257-857.801h289.508l434.262 965.026h-235.895l-327.037-670.157z" />
<glyph unicode="&#xe94f;" horiz-adv-x="3378" d="M0 927.832l48.251-10.723c343.12-80.419 579.016-284.147 670.157-525.403l-96.503 455.707c-16.084 64.335-64.335 80.419-123.309 80.419h-498.597z" />
<glyph unicode="&#xe950;" horiz-adv-x="3378" d="M0 927.832c343.12-80.419 627.267-289.508 718.408-530.764l-91.141 380.649c-16.084 64.335-69.696 101.864-128.67 101.864l-498.597 48.251z" />
<glyph unicode="&#xe951;" horiz-adv-x="3378" d="M0 927.832c343.12-80.419 627.267-289.508 718.408-530.764l-64.335 209.089c-16.084 64.335-37.529 128.67-112.586 155.476l-541.487 166.199z" />
<glyph unicode="&#xe952;" horiz-adv-x="3378" d="M1013.277 284.482l-182.283 182.283-85.78-203.728-21.445 134.031c-48.251 160.838-203.728 337.759-375.288 423.539l241.257-857.801h289.508l134.031 321.675zM1511.874-37.194l-230.534 235.895-42.89-235.895zM2128.419 295.204c21.445-21.445 32.168-37.529 26.806-58.974 0-64.335-85.78-96.503-160.838-96.503-107.225 0-166.199 16.084-257.34 53.613l-37.529 16.084-37.529-219.812c64.335-26.806 182.283-53.613 305.592-53.613 171.56 0 310.953 48.251 391.372 134.031l-230.534 225.173zM2439.372-37.194h251.979l53.613 160.838h343.12l32.168-160.838h257.34l-91.141 391.372-321.675 310.953 16.084-85.78s53.613-241.257 64.335-294.869h-225.173c21.445 53.613 107.225 284.147 107.225 284.147s21.445 58.974 37.529 96.503z" />
<glyph unicode="&#xe953;" glyph-name="menu" d="M32 736h960c17.664 0 32 14.336 32 32s-14.336 32-32 32h-960c-17.664 0-32-14.336-32-32s14.336-32 32-32zM992 480h-960c-17.664 0-32-14.336-32-32s14.336-32 32-32h960c17.664 0 32 14.336 32 32s-14.336 32-32 32zM992 160h-960c-17.664 0-32-14.336-32-32s14.336-32 32-32h960c17.664 0 32 14.336 32 32s-14.336 32-32 32z" />
<glyph unicode="&#xe954;" glyph-name="print" horiz-adv-x="1280" d="M1280 618.667h-341.333v341.333h-597.333v-341.333h-341.333v-426.667h341.333v-256h597.333v256h341.333v426.667zM512 789.333h256v-170.667h-256v170.667zM853.333 21.333h-426.667v256h426.667v-256zM1109.333 277.333h-170.667v85.333h-597.333v-85.333h-170.667v170.667h938.667v-170.667z" />
<glyph unicode="&#xe955;" glyph-name="reduce-text" horiz-adv-x="1829" d="M374.857 960l-374.857-1024h246.857l73.143 228.571h365.714l73.143-228.571h246.857l-356.571 1024h-274.286zM374.857 338.286l109.714 347.429c9.143 27.429 18.286 54.857 18.286 91.429h9.143c0-36.571 9.143-64 18.286-91.429l109.714-347.429h-265.143zM1097.143 566.857h731.429v-182.857h-731.429z" />
<glyph unicode="&#xe956;" glyph-name="search" d="M621.664 274.336c-44.48-31.68-98.88-50.336-157.664-50.336-150.208 0-272 121.792-272 272s121.792 272 272 272 272-121.792 272-272c0-58.784-18.656-113.184-50.336-157.664l178.72-178.72c17.6-17.6 17.472-45.76 0-63.232l-0.768-0.768c-17.408-17.408-45.76-17.472-63.232 0l-178.72 178.72zM464 288c114.88 0 208 93.12 208 208s-93.12 208-208 208-208-93.12-208-208 93.12-208 208-208z" />
<glyph unicode="&#xe957;" glyph-name="sec-apply" horiz-adv-x="696" d="M258.898 324.347c-7.728 7.728-7.728 19.321 0 27.049s19.321 7.728 27.049 0l1.932-1.932c7.728-7.728 7.728-19.321 0-27.049s-19.321-7.728-28.981 1.932zM314.928 268.317c-7.728 7.728-7.728 19.321 0 27.049s19.321 7.728 27.049 0l1.932-1.932c7.728-7.728 7.728-19.321 0-27.049s-19.321-7.728-28.981 1.932zM268.558 536.875c-7.728-7.728-19.321-7.728-27.049 0s-7.728 19.321 0 27.049l1.932 1.932c7.728 7.728 19.321 7.728 27.049 0s5.796-21.253-1.932-28.981zM324.589 592.906c-7.728-7.728-19.321-7.728-27.049 0s-7.728 19.321 0 27.049l1.932 1.932c7.728 7.728 19.321 7.728 27.049 0 5.796-7.728 5.796-19.321-1.932-28.981zM512-25.358c79.215 0 144.906 65.691 144.906 144.906s-65.691 144.906-144.906 144.906-144.906-65.691-144.906-144.906 65.691-144.906 144.906-144.906zM512-64c-100.468 0-183.547 83.079-183.547 183.547s83.079 183.547 183.547 183.547 183.547-83.079 183.547-183.547-83.079-183.547-183.547-183.547zM123.653 345.6c46.37 0 85.011 38.642 85.011 85.011s-38.642 85.011-85.011 85.011-85.011-38.642-85.011-85.011c0-46.37 38.642-85.011 85.011-85.011zM123.653 306.958c-67.623 0-123.653 54.098-123.653 123.653 0 67.623 56.030 123.653 123.653 123.653s123.653-54.098 123.653-123.653c0-67.623-56.030-123.653-123.653-123.653zM512 631.547c79.215 0 144.906 65.691 144.906 144.906s-65.691 144.906-144.906 144.906-144.906-65.691-144.906-144.906 65.691-144.906 144.906-144.906zM512 592.906c-100.468 0-183.547 83.079-183.547 183.547s83.079 183.547 183.547 183.547 183.547-83.079 183.547-183.547-83.079-183.547-183.547-183.547z" />
<glyph unicode="&#xe958;" glyph-name="sec-car" horiz-adv-x="1365" d="M1260.308 644.923h-10.503l-68.267 315.077h-997.744l-68.267-315.077h-10.503c-57.764 0-105.026-47.262-105.026-105.026v-446.359c0-28.882 23.631-52.513 52.513-52.513h78.769v-52.513c0-28.882 23.631-52.513 52.513-52.513h236.308c28.882 0 52.513 23.631 52.513 52.513v52.513h446.359v-52.513c0-28.882 23.631-52.513 52.513-52.513h236.308c28.882 0 52.513 23.631 52.513 52.513v52.513h52.513c28.882 0 52.513 23.631 52.513 52.513v446.359c0 57.764-47.262 105.026-105.026 105.026zM446.359 41.026v-52.513c0-15.754-10.503-26.256-26.256-26.256h-236.308c-15.754 0-26.256 10.503-26.256 26.256v52.513h288.821zM1234.051 41.026v-52.513c0-15.754-10.503-26.256-26.256-26.256h-236.308c-15.754 0-26.256 10.503-26.256 26.256v52.513h288.821zM1312.821 93.538h-1260.308v446.359c0 28.882 23.631 52.513 52.513 52.513h52.513l7.877 42.010 60.39 273.067h913.723l57.764-273.067 10.503-42.010h52.513c28.882 0 52.513-23.631 52.513-52.513v-446.359zM183.795 618.667h997.744v-26.256h-997.744zM315.077 382.359h-105.026c-28.882 0-52.513-23.631-52.513-52.513v-78.769c0-28.882 23.631-52.513 52.513-52.513h105.026c28.882 0 52.513 23.631 52.513 52.513v78.769c0 28.882-23.631 52.513-52.513 52.513zM341.333 251.077c0-15.754-10.503-26.256-26.256-26.256h-105.026c-15.754 0-26.256 10.503-26.256 26.256v78.769c0 15.754 10.503 26.256 26.256 26.256h105.026c15.754 0 26.256-10.503 26.256-26.256v-78.769zM1155.282 382.359h-105.026c-28.882 0-52.513-23.631-52.513-52.513v-78.769c0-28.882 23.631-52.513 52.513-52.513h105.026c28.882 0 52.513 23.631 52.513 52.513v78.769c0 28.882-23.631 52.513-52.513 52.513zM1181.538 251.077c0-15.754-10.503-26.256-26.256-26.256h-105.026c-15.754 0-26.256 10.503-26.256 26.256v78.769c0 15.754 10.503 26.256 26.256 26.256h105.026c15.754 0 26.256-10.503 26.256-26.256v-78.769zM446.359 251.077h472.615v-26.256h-472.615zM446.359 329.846h472.615v-26.256h-472.615z" />
<glyph unicode="&#xe959;" glyph-name="sec-card" horiz-adv-x="1660" d="M1553.655 960h-1447.724c-60.028 0-105.931-45.903-105.931-105.931v-812.138c0-60.028 45.903-105.931 105.931-105.931h1447.724c60.028 0 105.931 45.903 105.931 105.931v812.138c0 60.028-45.903 105.931-105.931 105.931zM105.931 889.379h1447.724c21.186 0 35.31-14.124 35.31-35.31v-141.241h-1518.345v141.241c0 21.186 14.124 35.31 35.31 35.31zM70.621 571.586v35.31h1518.345v-35.31h-1518.345zM1588.966 536.276v-35.31h-1518.345v35.31h1518.345zM70.621 642.207v35.31h1518.345v-35.31h-1518.345zM1553.655 6.621h-1447.724c-21.186 0-35.31 14.124-35.31 35.31v423.724h1518.345v-423.724c0-21.186-14.124-35.31-35.31-35.31zM1059.31 218.483h70.621v-35.31h-70.621zM1200.552 218.483h211.862v-35.31h-211.862z" />
<glyph unicode="&#xe95a;" glyph-name="sec-company" horiz-adv-x="1047" d="M977.455 494.545h-209.455c-9.309 0-16.291-2.327-23.273-4.655v400.291c0 39.564-30.255 69.818-69.818 69.818h-605.091c-39.564 0-69.818-30.255-69.818-69.818v-884.364c0-39.564 30.255-69.818 69.818-69.818h605.091c18.618 0 34.909 6.982 46.545 18.618 11.636-11.636 27.927-18.618 46.545-18.618h209.455c39.564 0 69.818 30.255 69.818 69.818v418.909c0 39.564-30.255 69.818-69.818 69.818zM698.182 5.818c0-13.964-9.309-23.273-23.273-23.273h-605.091c-13.964 0-23.273 9.309-23.273 23.273v884.364c0 13.964 9.309 23.273 23.273 23.273h605.091c13.964 0 23.273-9.309 23.273-23.273v-884.364zM1000.727 5.818c0-13.964-9.309-23.273-23.273-23.273h-209.455c-13.964 0-23.273 9.309-23.273 23.273v418.909c0 11.636 11.636 23.273 23.273 23.273h209.455c13.964 0 23.273-9.309 23.273-23.273v-418.909zM442.182 285.091h69.818v-116.364h-69.818zM209.455 773.818h69.818v-116.364h-69.818zM209.455 541.091h69.818v-116.364h-69.818zM209.455 285.091h69.818v-116.364h-69.818zM814.545 331.636h116.364v-69.818h-116.364zM814.545 168.727h116.364v-69.818h-116.364zM442.182 541.091h69.818v-116.364h-69.818zM442.182 773.818h69.818v-116.364h-69.818z" />
<glyph unicode="&#xe95b;" glyph-name="sec-folder" horiz-adv-x="1164" d="M1093.818 797.091h-235.055c-16.291 90.764-128 162.909-265.309 162.909s-249.018-72.145-265.309-162.909h-258.327c-39.564 0-69.818-30.255-69.818-69.818v-721.455c0-39.564 30.255-69.818 69.818-69.818h1024c39.564 0 69.818 30.255 69.818 69.818v721.455c0 39.564-30.255 69.818-69.818 69.818zM593.455 913.455c107.055 0 200.145-51.2 218.764-116.364h-437.527c18.618 65.164 111.709 116.364 218.764 116.364zM69.818 750.545h1024c13.964 0 23.273-9.309 23.273-23.273v-139.636h-1070.545v139.636c0 13.964 9.309 23.273 23.273 23.273zM442.182 564.364h302.545v-23.273c0-25.6-20.945-46.545-46.545-46.545h-209.455c-25.6 0-46.545 20.945-46.545 46.545v23.273zM1093.818-17.455h-1024c-13.964 0-23.273 9.309-23.273 23.273v558.545h372.364v-23.273c0-39.564 30.255-69.818 69.818-69.818h209.455c39.564 0 69.818 30.255 69.818 69.818v23.273h349.091v-558.545c0-13.964-9.309-23.273-23.273-23.273z" />
<glyph unicode="&#xe95c;" glyph-name="sec-home" horiz-adv-x="1084" d="M542.118 960l-542.118-361.412v-100.392h100.392v40.157h-60.235v38.149l501.961 335.31 501.961-335.31v-38.149h-60.235v40.157l-441.725 281.098-441.725-281.098v-642.51h883.451v562.196h100.392v100.392l-542.118 361.412zM682.667-23.843h-281.098v441.725h281.098v-441.725zM943.686-23.843h-240.941v461.804h-321.255v-461.804h-240.941v582.275l401.569 252.988 401.569-254.996v-580.267zM481.882 197.020c0-11.089-8.989-20.078-20.078-20.078s-20.078 8.989-20.078 20.078c0 11.089 8.989 20.078 20.078 20.078s20.078-8.989 20.078-20.078z" />
<glyph unicode="&#xe95d;" glyph-name="sec-key" horiz-adv-x="956" d="M898.844 850.773c6.827 22.756 6.827 43.236-6.827 54.613-6.827 9.102-15.929 11.378-27.307 11.378-9.102 0-18.204-2.276-27.307-4.551-45.511 31.858-97.849 47.787-150.187 47.787-56.889 0-111.502-20.48-152.462-61.44-70.542-70.542-79.644-179.769-31.858-273.067-9.102-4.551-18.204-9.102-25.031-15.929-13.653-13.653-22.756-34.133-22.756-54.613l-439.182-436.907c-20.48-20.48-20.48-52.338 0-72.818l20.48-20.48c9.102-9.102 22.756-15.929 36.409-15.929s25.031 4.551 36.409 15.929l68.267 70.542 159.289-159.289 65.991 65.991c-4.551 2.276-6.827 4.551-9.102 6.827l-70.542 70.542c-13.653 13.653-13.653 38.684 0 52.338 6.827 6.827 18.204 11.378 27.307 11.378s18.204-4.551 27.307-11.378l70.542-70.542c2.276-2.276 4.551-6.827 6.827-9.102l68.267 68.267-159.289 159.289 172.942 172.942c6.827-2.276 11.378-2.276 18.204-2.276 22.756 0 43.236 6.827 59.164 22.756 9.102 9.102 13.653 18.204 18.204 29.582 36.409-15.929 72.818-25.031 109.227-25.031 56.889 0 111.502 20.48 152.462 61.44 81.92 79.644 81.92 213.902 4.551 311.751zM455.111 86.187l-61.44 61.44c-11.378 11.378-27.307 18.204-43.236 18.204s-31.858-6.827-43.236-18.204-18.204-27.307-18.204-43.236 6.827-31.858 18.204-43.236l61.44-61.44-31.858-31.858-141.084 138.809 152.462 152.462 141.084-138.809-34.133-34.133zM862.436 570.88c-31.858-31.858-75.093-47.787-120.604-47.787-29.582 0-61.44 6.827-91.022 20.48l-45.511 20.48-18.204-45.511c-2.276-4.551-4.551-9.102-6.827-11.378-9.102-9.102-18.204-11.378-27.307-11.378h-9.102l-22.756 4.551-18.204-18.204-427.804-425.529s-2.276-2.276-4.551-2.276-2.276 0-4.551 2.276l-20.48 20.48s-2.276 2.276-2.276 4.551 0 2.276 2.276 4.551l450.56 448.284v18.204c0 6.827 2.276 15.929 11.378 22.756 2.276 2.276 6.827 4.551 11.378 6.827l45.511 20.48-22.756 43.236c-40.96 77.369-31.858 166.116 22.756 220.729 31.858 31.858 75.093 47.787 122.88 47.787 40.96 0 86.471-13.653 122.88-40.96l18.204-13.653 22.756 6.827c2.276 0 4.551 2.276 6.827 2.276 0-2.276 0-2.276-2.276-4.551l-6.827-22.756 15.929-18.204c61.44-81.92 61.44-188.871-2.276-252.587zM698.596 832.569c-27.307 0-54.613-9.102-75.093-29.582-43.236-43.236-38.684-120.604 13.653-172.942 27.307-27.307 63.716-43.236 97.849-43.236 27.307 0 54.613 9.102 75.093 29.582 43.236 43.236 38.684 120.604-13.653 172.942-27.307 29.582-63.716 43.236-97.849 43.236zM794.169 634.596c-13.653-13.653-34.133-22.756-56.889-22.756-29.582 0-59.164 13.653-81.92 36.409s-36.409 52.338-36.409 81.92c0 22.756 9.102 43.236 22.756 56.889s36.409 22.756 56.889 22.756c29.582 0 59.164-13.653 81.92-36.409s36.409-52.338 36.409-81.92c0-20.48-9.102-40.96-22.756-56.889z" />
<glyph unicode="&#xe95e;" glyph-name="sec-payment" horiz-adv-x="762" d="M190.512 519.442h83.349c33.34-76.205 111.926-130.977 202.419-130.977v64.298c-54.772 0-100.019 26.195-128.595 66.679h54.772l23.814 54.772h-102.4c-2.381 9.526-2.381 19.051-2.381 28.577h80.967l23.814 54.772h-92.874c21.433 57.153 78.586 95.256 142.884 95.256v64.298c-102.4 0-188.13-69.060-214.326-159.553h-47.628l-23.814-54.772h64.298c0-9.526 0-19.051 2.381-28.577h-42.865l-23.814-54.772zM690.605 960h-619.163c-40.484 0-71.442-30.958-71.442-71.442v-881.116c0-40.484 30.958-71.442 71.442-71.442h619.163c40.484 0 71.442 30.958 71.442 71.442v881.116c0 40.484-30.958 71.442-71.442 71.442zM642.977-16.372h-571.535c-14.288 0-23.814 9.526-23.814 23.814v881.116c0 14.288 9.526 23.814 23.814 23.814h571.535v-928.744zM714.419 7.442c0-14.288-9.526-23.814-23.814-23.814h-23.814v928.744h23.814c14.288 0 23.814-9.526 23.814-23.814v-881.116zM190.512 293.209h333.395v-23.814h-333.395zM190.512 221.767h333.395v-23.814h-333.395zM190.512 150.326h333.395v-23.814h-333.395z" />
<glyph unicode="&#xe95f;" glyph-name="sec-pen" horiz-adv-x="1082" d="M938.989 664.392l137.177 127.517-13.525 13.525-133.313-125.585c-17.389 25.117-38.642 56.030-59.894 81.147-25.117 27.049-61.826 52.166-92.74 69.555l108.196 115.925-15.457 13.525-112.060-119.789c-23.185 11.592-42.506 19.321-44.438 21.253-3.864 1.932-7.728 1.932-13.525 1.932-11.592 0-21.253-3.864-28.981-13.525l-154.566-179.683-334.249-237.645c-13.525-7.728-27.049-27.049-40.574-54.098-15.457-36.709-125.585-355.502-139.109-390.279-7.728-19.321 3.864-42.506 23.185-48.302 5.796-3.864 9.66-3.864 13.525-3.864h11.592l3.864-5.796 5.796 5.796h7.728l359.366 96.604h3.864c5.796 1.932 52.166 19.321 79.215 48.302 21.253 23.185 220.257 285.947 253.102 330.385l191.275 168.091c13.525 11.592 17.389 32.845 7.728 48.302-1.932 1.932-9.66 15.457-23.185 36.709zM838.521 735.879c23.185-25.117 44.438-56.030 61.826-83.079l-113.992-106.264c-11.592 21.253-28.981 48.302-50.234 73.419-30.913 32.845-69.555 57.962-90.808 69.555l102.4 110.128c30.913-13.525 67.623-36.709 90.808-63.758zM268.558 171.713l13.525 13.525c-9.66 9.66-11.592 17.389-11.592 27.049 0 13.525 11.592 25.117 21.253 34.777 15.457 13.525 27.049 15.457 57.962 0 17.389-7.728 25.117-23.185 25.117-34.777 1.932-9.66-1.932-17.389-5.796-23.185-25.117-21.253-77.283-19.321-77.283-19.321l-210.596-189.343-23.185-5.796h-13.525l224.121 197.072c-1.932 0-1.932 0 0 0zM732.257 438.34s-231.849-307.2-253.102-330.385c-21.253-23.185-63.758-38.642-63.758-38.642l-295.608-77.283 175.819 156.498c17.389 0 57.962 3.864 83.079 23.185 9.66 7.728 15.457 23.185 13.525 38.642-1.932 21.253-15.457 40.574-36.709 50.234-34.777 19.321-57.962 17.389-79.215-3.864-11.592-9.66-27.049-27.049-27.049-48.302 0-7.728 1.932-15.457 5.796-23.185l-204.8-179.683c28.981 86.943 113.992 326.521 127.517 355.502 15.457 34.777 25.117 38.642 25.117 38.642l341.977 241.509 154.566 183.547s13.525-5.796 30.913-13.525l-112.060-121.721 5.796-3.864-1.932-1.932s59.894-30.913 100.468-75.351 63.758-102.4 63.758-102.4l17.389 7.728s-1.932 7.728-7.728 17.389l113.992 106.264c9.66-17.389 17.389-28.981 17.389-28.981l-195.14-170.023z" />
<glyph unicode="&#xe960;" glyph-name="sec-phone" horiz-adv-x="602" d="M542.118 960h-481.882c-34.133 0-60.235-26.102-60.235-60.235v-903.529c0-34.133 26.102-60.235 60.235-60.235h481.882c34.133 0 60.235 26.102 60.235 60.235v903.529c0 34.133-26.102 60.235-60.235 60.235zM60.235 919.843h481.882c12.047 0 20.078-8.031 20.078-20.078v-60.235h-522.039v60.235c0 12.047 8.031 20.078 20.078 20.078zM562.196 819.451v-722.824h-522.039v722.824h522.039zM542.118-23.843h-481.882c-12.047 0-20.078 8.031-20.078 20.078v80.314h522.039v-80.314c0-12.047-8.031-20.078-20.078-20.078zM220.863 36.392h140.549v-20.078h-140.549zM453.773 223.122c-76.298 2.008-166.651 76.298-228.894 138.541s-136.533 152.596-138.541 228.894c0 26.102 64.251 74.29 66.259 74.29 16.063 12.047 36.141 8.031 44.173-4.016 6.024-8.031 54.212-82.322 60.235-92.361 6.024-8.031 4.016-22.086-2.008-36.141-4.016-8.031-16.063-30.118-22.086-40.157 6.024-10.039 24.094-32.125 60.235-68.267s58.227-52.204 68.267-60.235c10.039 6.024 34.133 18.071 40.157 22.086 12.047 6.024 26.102 8.031 34.133 2.008 10.039-6.024 84.329-56.22 92.361-60.235 10.039-8.031 16.063-26.102 4.016-44.173-4.016 6.024-52.204-60.235-78.306-60.235zM172.675 652.8c-2.008 0-6.024 0-10.039-4.016-20.078-14.055-56.22-48.188-56.22-58.227 2.008-70.275 74.29-154.604 132.518-214.839 60.235-60.235 144.565-130.51 214.839-132.518 10.039 0 42.165 36.141 58.227 56.22 6.024 8.031 4.016 14.055 2.008 16.063-6.024 4.016-82.322 54.212-90.353 60.235-2.008 2.008-8.031 0-16.063-2.008-10.039-4.016-46.18-26.102-46.18-26.102l-6.024-2.008-6.024 2.008c-2.008 0-26.102 16.063-76.298 66.259s-64.251 74.29-66.259 76.298l-2.008 6.024 2.008 6.024s20.078 36.141 26.102 46.18c4.016 8.031 4.016 14.055 4.016 16.063-6.024 8.031-54.212 84.329-60.235 90.353 2.008-4.016 0-2.008-4.016-2.008z" />
<glyph unicode="&#xe961;" glyph-name="shield" horiz-adv-x="811" d="M746.411 205.952c-99.285-130.987-339.627-269.952-339.627-269.952s-238.165 157.867-330.496 279.253c-76.373 100.48-73.387 186.24-73.387 186.24v381.611s136.107 9.472 229.461 55.893c93.312 46.336 183.637 121.003 183.637 121.003s102.571-79.573 174.379-111.701c104.832-46.933 220.288-55.893 220.288-55.893v-400.213s4.181-96-64.256-186.24zM515.157 330.283c0 5.675-2.56 8.235-8.192 8.235h-2.048c-18.432-1.536-55.296-4.096-84.48-4.096-50.091 0-89.003 30.165-89.003 116.139v71.083c0 87.040 38.912 116.181 89.045 116.181 29.653 0 67.541-3.115 85.973-4.693h1.536c5.12 0 6.144 2.56 6.144 5.675v26.112c0 4.608-3.584 6.144-8.192 6.656-22.528 3.584-53.76 8.192-85.973 8.192-62.933 0-135.083-32.725-135.083-158.123v-71.125c0-124.373 72.107-158.165 135.083-158.165 43.52 0 63.445 2.56 84.907 6.656 5.675 0.981 10.24 4.053 10.24 10.24v20.907z" />
<glyph unicode="&#xe962;" glyph-name="user" horiz-adv-x="597" d="M384 533.333h-128v-42.667h128c93.867 0 170.667-76.8 170.667-170.667v-298.667c0-25.6-17.067-42.667-42.667-42.667h-426.667c-25.6 0-42.667 17.067-42.667 42.667v213.333h-42.667v-213.333c0-46.933 38.4-85.333 85.333-85.333h426.667c46.933 0 85.333 38.4 85.333 85.333v298.667c0 119.467-93.867 213.333-213.333 213.333zM320 618.667c106.667 0 192 42.667 192 149.333s-85.333 192-192 192-192-85.333-192-192 85.333-149.333 192-149.333zM320 917.333c81.067 0 149.333-68.267 149.333-149.333 0-89.6-81.067-106.667-149.333-106.667s-149.333 17.067-149.333 106.667c0 81.067 68.267 149.333 149.333 149.333z" />
<glyph unicode="&#xe963;" glyph-name="user-menu" horiz-adv-x="1096" d="M384.001 533.334h-128v-42.667h128c93.867 0 170.667-76.8 170.667-170.667v-298.667c0-25.6-17.067-42.667-42.667-42.667h-426.668c-25.6 0-42.667 17.067-42.667 42.667v213.334h-42.667v-213.334c0-46.933 38.4-85.334 85.334-85.334h426.668c46.933 0 85.334 38.4 85.334 85.334v298.667c0 119.467-93.867 213.334-213.334 213.334zM320.001 618.667c106.667 0 192.001 42.667 192.001 149.334s-85.334 192.001-192.001 192.001-192.001-85.334-192.001-192.001 85.334-149.334 192.001-149.334zM320.001 917.335c81.067 0 149.334-68.267 149.334-149.334 0-89.6-81.067-106.667-149.334-106.667s-149.334 17.067-149.334 106.667c0 81.067 68.267 149.334 149.334 149.334zM498.689 605.355v42.667h597.335v-42.667zM584.023 434.688v42.667h512.001v-42.667zM669.356 264.021v42.667h426.668v-42.667z" />
</font>
</defs>
</svg>
