<?xml version="1.0" standalone="no"?>
<!DOCTYPE svg PUBLIC "-//W3C//DTD SVG 20010904//EN"
 "http://www.w3.org/TR/2001/REC-SVG-20010904/DTD/svg10.dtd">
<svg version="1.0" xmlns="http://www.w3.org/2000/svg"
 width="320.000000pt" height="320.000000pt" viewBox="0 0 320.000000 320.000000"
 preserveAspectRatio="xMidYMid meet">
<metadata>
Created by potrace 1.11, written by Peter Selinger 2001-2013
</metadata>
<g transform="translate(0.000000,320.000000) scale(0.100000,-0.100000)"
fill="#000000" stroke="none">
<path d="M628 3185 c-153 -38 -260 -132 -306 -271 -20 -57 -20 -88 -20 -994
-1 -1001 -2 -980 49 -1090 45 -97 133 -174 234 -206 41 -14 109 -17 363 -19
173 -2 317 -7 322 -11 4 -5 95 -133 203 -285 176 -248 200 -278 236 -293 35
-13 83 -16 294 -15 240 0 250 1 216 16 -20 9 -47 32 -60 51 -13 20 -28 40 -34
46 -5 6 -30 40 -55 76 -80 117 -612 864 -657 923 -25 31 -61 66 -81 77 l-37
19 259 0 c234 0 263 -2 296 -19 29 -15 75 -73 211 -262 95 -134 176 -245 179
-248 3 -3 16 -22 30 -42 l25 -38 125 4 c95 3 141 9 190 26 158 53 252 155 279
305 16 83 15 1844 0 1917 -38 177 -148 297 -309 335 -84 19 -1871 17 -1952 -2z
m1202 -430 c279 -43 478 -151 568 -308 52 -92 79 -257 60 -372 -45 -264 -288
-473 -594 -510 -42 -5 -389 -9 -566 -6 l-47 1 14 46 c30 100 74 122 255 125
147 3 216 16 287 56 169 94 258 297 209 479 -41 155 -156 272 -306 315 -31 8
-145 13 -365 14 -176 1 -336 6 -355 9 -95 19 -128 29 -178 57 -65 36 -139 85
-148 100 -7 12 1086 7 1166 -6z"/>
</g>
</svg>
