<svg xmlns="http://www.w3.org/2000/svg" xmlns:xlink="http://www.w3.org/1999/xlink" preserveAspectRatio="xMidYMid" width="41" height="42" viewBox="0 0 41 42">
  <defs>
    <style>
      .cls-1 {
        fill: #af1e2d;
        fill-rule: evenodd;
      }
    </style>
  </defs>
  <path d="M40.826,18.876 L40.826,23.937 C40.826,23.937 40.603,24.411 40.111,24.659 C39.805,24.814 38.498,25.056 37.552,25.217 C37.088,27.118 36.316,28.896 35.289,30.492 L36.763,32.727 C36.763,32.727 36.953,33.301 36.761,33.748 C36.572,34.195 36.256,34.260 36.256,34.260 L32.710,37.838 C32.710,37.838 32.491,37.916 32.191,37.916 C32.041,37.916 31.871,37.897 31.697,37.838 C31.335,37.716 30.008,36.777 29.236,36.218 C27.703,37.082 26.025,37.717 24.249,38.077 L23.723,41.214 C23.723,41.214 23.454,41.744 23.006,41.920 C22.858,41.981 22.728,42.000 22.622,42.000 C22.409,42.000 22.290,41.920 22.290,41.920 L17.275,41.920 C17.275,41.920 16.806,41.700 16.560,41.214 C16.382,40.864 16.091,38.820 15.940,37.694 C14.348,37.216 12.854,36.511 11.492,35.615 L9.227,37.126 C9.227,37.126 8.988,37.205 8.698,37.205 C8.544,37.205 8.377,37.183 8.224,37.115 C7.783,36.921 7.718,36.604 7.718,36.604 L4.172,33.026 C4.172,33.026 3.994,32.534 4.161,32.013 C4.284,31.634 5.280,30.202 5.809,29.457 C5.106,28.177 4.559,26.797 4.193,25.345 L0.871,24.659 C0.871,24.659 0.346,24.388 0.171,23.937 C-0.004,23.485 0.171,23.214 0.171,23.214 L0.171,18.154 C0.171,18.154 0.389,17.678 0.871,17.431 C1.282,17.218 3.544,16.840 4.196,16.735 C4.566,15.274 5.118,13.886 5.829,12.599 L4.161,10.049 C4.161,10.049 3.979,9.482 4.172,9.037 C4.364,8.594 4.679,8.527 4.679,8.527 L8.224,4.949 C8.224,4.949 8.449,4.865 8.756,4.865 C8.900,4.865 9.062,4.884 9.225,4.936 C9.567,5.048 10.777,5.892 11.545,6.444 C12.900,5.561 14.385,4.865 15.966,4.391 L16.560,0.803 C16.560,0.803 16.828,0.261 17.275,0.079 C17.425,0.021 17.554,0.000 17.661,0.000 C17.873,0.000 17.992,0.079 17.992,0.079 L23.006,0.079 C23.006,0.079 23.477,0.306 23.723,0.803 C23.881,1.125 24.136,2.851 24.295,4.027 C26.048,4.386 27.706,5.015 29.222,5.869 L31.760,4.163 C31.760,4.163 32.013,4.078 32.312,4.078 C32.463,4.078 32.625,4.098 32.772,4.163 C33.216,4.354 33.279,4.674 33.279,4.674 L36.825,8.252 C36.825,8.252 36.999,8.747 36.825,9.274 C36.710,9.621 35.870,10.839 35.309,11.632 C36.331,13.231 37.102,15.012 37.562,16.915 L40.111,17.431 C40.111,17.431 40.646,17.702 40.826,18.154 C41.004,18.605 40.826,18.876 40.826,18.876 ZM38.834,19.214 L37.168,18.876 L35.926,18.625 L35.626,17.387 C35.225,15.726 34.555,14.154 33.632,12.713 L32.904,11.575 L33.685,10.472 C34.209,9.733 34.527,9.258 34.717,8.961 L32.112,6.334 L30.331,7.533 L29.314,8.216 L28.247,7.615 C26.886,6.846 25.422,6.299 23.895,5.987 L22.511,5.703 L22.321,4.295 C22.176,3.229 22.063,2.521 21.985,2.081 L18.367,2.081 L17.932,4.719 L17.728,5.953 L16.535,6.309 C15.156,6.721 13.842,7.331 12.630,8.123 L11.492,8.864 L10.388,8.072 C9.686,7.570 9.227,7.258 8.935,7.068 L6.320,9.706 L7.493,11.500 L8.155,12.512 L7.570,13.570 C6.935,14.723 6.449,15.953 6.127,17.228 L5.805,18.501 L4.512,18.710 C3.485,18.878 2.668,19.031 2.162,19.141 L2.162,22.884 L4.594,23.386 L5.817,23.638 L6.124,24.854 C6.443,26.122 6.924,27.344 7.554,28.490 L8.158,29.592 L7.430,30.617 C6.866,31.415 6.497,31.964 6.275,32.312 L8.889,34.951 L10.391,33.948 L11.484,33.219 L12.582,33.941 C13.802,34.741 15.124,35.360 16.512,35.778 L17.742,36.148 L17.914,37.428 C18.077,38.646 18.203,39.440 18.291,39.920 L21.920,39.920 L22.285,37.744 L22.514,36.387 L23.857,36.116 C25.401,35.803 26.883,35.251 28.260,34.473 L29.368,33.846 L30.400,34.594 C31.151,35.138 31.671,35.494 32.004,35.713 L34.609,33.084 L33.628,31.598 L32.909,30.506 L33.615,29.408 C34.539,27.970 35.213,26.400 35.619,24.741 L35.930,23.465 L37.219,23.245 C38.004,23.110 38.513,23.011 38.834,22.941 L38.834,19.214 ZM20.499,29.754 C15.463,29.754 11.380,25.638 11.380,20.562 C11.380,15.485 15.463,11.370 20.499,11.370 C25.535,11.370 29.618,15.485 29.618,20.562 C29.618,25.638 25.535,29.754 20.499,29.754 ZM20.499,12.371 C16.020,12.371 12.377,16.046 12.377,20.562 C12.377,25.080 16.020,28.754 20.499,28.754 C24.978,28.754 28.621,25.080 28.621,20.562 C28.621,16.046 24.978,12.371 20.499,12.371 ZM20.499,28.285 C16.339,28.285 12.967,24.883 12.967,20.687 C12.967,16.491 16.339,13.090 20.499,13.090 C24.659,13.090 28.031,16.491 28.031,20.687 C28.031,24.883 24.659,28.285 20.499,28.285 ZM20.499,14.091 C16.896,14.091 13.964,17.050 13.964,20.687 C13.964,24.324 16.896,27.284 20.499,27.284 C24.102,27.284 27.034,24.324 27.034,20.687 C27.034,17.050 24.102,14.091 20.499,14.091 Z" class="cls-1"/>
</svg>
