<svg xmlns="http://www.w3.org/2000/svg" xmlns:xlink="http://www.w3.org/1999/xlink" preserveAspectRatio="xMidYMid" width="37" height="35" viewBox="0 0 37 35">
  <defs>
    <style>
      .cls-1 {
        fill: #af1e2d;
        fill-rule: evenodd;
      }
    </style>
  </defs>
  <path d="M18.000,35.000 L18.000,30.000 L21.520,28.859 L21.001,27.575 L20.000,24.000 L14.000,24.000 C13.682,24.834 12.690,26.358 11.970,28.385 C11.909,28.554 11.860,28.699 11.820,28.823 C11.943,28.846 12.089,28.867 12.258,28.888 L12.349,28.900 L12.438,28.919 C12.175,28.868 16.000,29.000 16.000,29.000 L16.000,35.000 L-0.000,35.000 L-0.000,30.000 L1.518,29.388 C1.901,29.266 2.473,29.135 3.316,28.978 C4.066,28.831 4.469,28.722 4.670,28.658 C4.738,28.559 4.839,28.394 4.977,28.137 L9.642,15.867 L15.659,0.007 L20.828,0.007 L21.618,1.606 L25.697,11.316 C26.600,13.332 27.447,15.376 28.194,17.346 C28.917,19.257 29.539,20.814 30.045,21.977 C30.378,22.769 30.820,23.908 31.368,25.384 C31.631,26.136 32.033,27.076 32.577,28.214 C32.671,28.412 32.744,28.554 32.798,28.653 C32.865,28.668 32.956,28.685 33.076,28.700 C33.869,28.799 34.713,29.021 35.589,29.358 L37.000,30.000 L37.000,35.000 L18.000,35.000 ZM34.979,30.989 C34.139,30.962 33.458,30.783 32.830,30.705 C32.199,30.626 31.745,30.470 31.465,30.236 C31.309,30.127 31.076,29.744 30.765,29.088 C30.190,27.885 29.762,26.885 29.484,26.089 C28.939,24.621 28.512,23.519 28.202,22.785 C27.674,21.567 27.045,19.994 26.315,18.065 C25.584,16.136 24.761,14.147 23.845,12.101 L19.582,2.026 C19.582,2.026 17.578,2.026 17.044,2.026 L11.519,16.587 L6.811,28.971 C6.437,29.689 6.122,30.142 5.867,30.330 C5.609,30.517 4.883,30.728 3.685,30.962 C2.939,31.103 2.295,30.906 2.000,31.000 L2.000,33.000 C2.000,33.000 14.258,33.031 14.000,33.000 C14.008,32.951 14.020,31.738 14.000,31.000 C13.036,30.859 12.152,30.923 12.012,30.892 C11.001,30.767 10.317,30.556 9.960,30.259 C9.742,30.088 9.633,29.799 9.633,29.392 C9.633,29.096 9.781,28.533 10.076,27.706 C11.115,24.785 11.669,22.750 12.000,22.000 L21.000,22.000 L22.864,26.815 L23.791,29.111 C23.869,29.330 23.908,29.541 23.908,29.744 C23.908,29.947 23.830,30.127 23.674,30.283 C23.550,30.392 23.099,30.548 22.322,30.751 L19.733,31.314 C19.686,31.814 19.663,32.337 19.663,32.884 C19.663,32.884 33.798,32.907 34.961,32.907 C34.990,32.375 35.053,31.084 34.979,30.989 ZM13.000,20.000 L16.420,10.695 C16.887,11.664 17.493,13.074 18.240,14.925 C18.986,16.776 19.593,18.396 20.059,19.786 L20.000,20.000 C19.347,20.000 16.634,20.047 13.000,20.000 ZM17.308,15.304 C17.019,14.587 16.751,13.935 16.503,13.350 L14.490,18.748 C16.405,18.772 17.791,18.788 18.648,18.795 C18.269,17.744 17.821,16.575 17.308,15.304 Z" class="cls-1"/>
</svg>
