<svg xmlns="http://www.w3.org/2000/svg" preserveAspectRatio="xMidYMid" width="28" height="28" viewBox="0 0 28 28"><defs><style>.cls-1 { fill: #db5800; fill-rule: evenodd; }</style></defs><path d="M14 28C6.267 28 0 21.733 0 14S6.267 0 14 0s14 6.267 14 14-6.267 14-14 14zm0-26C7.382 2 2 7.38 2 14S7.38 26 14 26s12-5.382 12-12S20.62 2 14 2zm.5 20c-.83 0-1.5-.805-1.5-1.796 0-.992.67-1.797 1.5-1.797s1.5.805 1.5 1.797c0 .99-.67 1.796-1.5 1.796zm0-5.062c-.83 0-1.5-.672-1.5-1.5V9.5c0-.828.67-1.5 1.5-1.5s1.5.672 1.5 1.5v5.938c0 .828-.67 1.5-1.5 1.5z" class="cls-1"/></svg>