<svg xmlns="http://www.w3.org/2000/svg" xmlns:xlink="http://www.w3.org/1999/xlink" preserveAspectRatio="xMidYMid" width="33" height="39" viewBox="0 0 33 39">
  <defs>
    <style>
      .cls-1 {
        fill: #af1e2d;
        fill-rule: evenodd;
      }
    </style>
  </defs>
  <path d="M27.664,27.818 C23.970,29.966 19.584,29.799 16.124,27.782 L20.707,25.118 L20.041,19.603 L12.271,24.121 C12.138,23.918 11.999,23.720 11.877,23.507 L17.806,20.060 L17.141,14.545 L10.356,18.489 C10.048,14.180 12.116,9.878 16.062,7.584 C16.147,7.692 11.525,0.185 11.712,-0.004 C3.572,4.729 -0.011,14.340 2.422,23.102 L0.289,24.342 L0.954,29.857 L4.387,27.861 C4.509,28.075 4.652,28.268 4.781,28.475 L3.189,29.401 L3.855,34.915 L8.021,32.493 C14.362,38.555 24.099,40.008 32.014,35.406 C31.978,35.450 27.625,27.843 27.664,27.818 ZM22.000,36.126 C17.286,36.126 12.804,34.324 9.380,31.052 L8.311,30.029 L5.455,31.688 L5.307,30.465 L7.541,29.165 L6.454,27.418 C6.391,27.317 6.325,27.217 6.259,27.118 C6.204,27.036 6.147,26.954 6.097,26.867 L5.110,25.144 L2.555,26.631 L2.407,25.406 L4.736,24.052 L4.324,22.566 C2.266,15.156 4.973,7.351 10.946,2.879 C11.531,3.904 12.334,5.238 13.405,7.007 C9.950,9.771 8.059,14.063 8.387,18.633 L8.613,21.799 L15.540,17.771 L15.688,18.995 L9.176,22.781 L10.169,24.504 C10.282,24.702 10.405,24.890 10.530,25.077 L11.647,26.779 L18.441,22.830 L18.589,24.053 L12.179,27.780 L15.135,29.503 C17.209,30.713 19.567,31.352 21.951,31.352 C23.625,31.352 25.284,31.032 26.839,30.419 C27.156,30.981 27.574,31.713 28.124,32.674 C28.558,33.429 28.921,34.064 29.232,34.598 C26.954,35.601 24.488,36.126 22.000,36.126 Z" class="cls-1"/>
</svg>
