<svg xmlns="http://www.w3.org/2000/svg" height="45" width="32.884" viewBox="0 0 32.884 45"><defs><clipPath id="a"><path d="M0 0v45h45V0H0"/></clipPath></defs><g clip-path="url(#a)" transform="matrix(1.25 0 0 -1.25 -11.68 50.63)"><path d="M9.347 6.027v32.946c0 .843.684 1.527 1.527 1.527h13.35l11.43-11.43V6.027c0-.843-.685-1.527-1.528-1.527H10.874c-.843 0-1.527.684-1.527 1.527z" fill-rule="evenodd"/><path d="M24.223 40.5l11.43-11.43H25.75c-.843 0-1.527.684-1.527 1.527V40.5z" fill="#525252" fill-rule="evenodd"/><path d="M17.153 9.326v-.664h-4.086v.594l3.017 4.265h-2.927v.657h3.94v-.527l-3.062-4.324h3.118zm1.58 4.85V8.662h-.772v5.514h.775zm4.632-1.572c0-.49-.178-.884-.534-1.183-.303-.26-.75-.39-1.333-.392h-.776V8.662h-.772v5.514h1.55c.584 0 1.03-.13 1.334-.39.357-.31.535-.704.535-1.182zm-1.135-.738c.223.166.335.412.335.738 0 .325-.112.567-.335.725-.203.14-.47.213-.796.213h-.714V11.66h.714c.33 0 .595.068.796.206z" fill="#e6e6e6"/></g></svg>
