<svg xmlns="http://www.w3.org/2000/svg" height="45" width="32.884" viewBox="0 0 32.884 45"><defs><clipPath id="a"><path d="M0 0v45h45V0H0"/></clipPath></defs><g clip-path="url(#a)" transform="matrix(1.25 0 0 -1.25 -11.68 50.63)"><path d="M9.347 6.027v32.946c0 .843.684 1.527 1.527 1.527h13.35l11.43-11.43V6.027c0-.843-.685-1.527-1.528-1.527H10.874c-.843 0-1.527.684-1.527 1.527z" fill-rule="evenodd"/><path d="M24.223 40.5l11.43-11.43H25.75c-.843 0-1.527.684-1.527 1.527V40.5z" fill="#525252" fill-rule="evenodd"/><path d="M15.643 11.507l1.83-2.845h-.937l-1.397 2.342-1.39-2.342h-.93l1.823 2.845-1.694 2.67h.91l1.28-2.15 1.286 2.15h.91l-1.694-2.67zm5.135-2.18V8.66h-2.716v5.514h.773v-4.85h1.943zm4.058.87c0-.485-.192-.884-.577-1.2-.353-.29-.803-.432-1.35-.432-.226 0-.437.03-.636.094-.2.06-.376.15-.53.263-.156.114-.274.21-.354.287-.08.077-.167.172-.26.284l.452.52c.16-.215.362-.4.61-.558.25-.157.513-.236.79-.236.31 0 .567.084.772.252.204.168.306.394.306.677 0 .13-.03.25-.088.357-.06.107-.148.198-.267.275-.12.077-.21.13-.268.16-.058.03-.148.068-.27.115-.433.172-.725.296-.88.37-.222.102-.407.232-.553.39-.24.25-.36.57-.36.96 0 .428.17.782.505 1.062.323.27.747.407 1.27.41.6 0 1.127-.24 1.58-.715l-.406-.527c-.372.395-.776.592-1.213.592-.283 0-.514-.067-.692-.2-.18-.135-.268-.324-.268-.568 0-.123.02-.23.058-.324.04-.094.098-.174.176-.24.078-.066.15-.12.22-.156.07-.038.154-.078.256-.12l1.014-.425c.266-.123.474-.27.625-.445.223-.28.335-.588.335-.93z" fill="#e6e6e6"/></g></svg>
