<svg xmlns="http://www.w3.org/2000/svg" height="45" width="32.884" viewBox="0 0 32.884 45"><defs><clipPath id="a"><path d="M0 0v45h45V0H0"/></clipPath></defs><g clip-path="url(#a)" transform="matrix(1.25 0 0 -1.25 -11.66 50.72)"><path d="M9.347 6.027v32.946c0 .843.684 1.527 1.527 1.527h13.35l11.43-11.43V6.027c0-.843-.685-1.527-1.528-1.527H10.874c-.843 0-1.527.684-1.527 1.527z" fill-rule="evenodd"/><path d="M24.223 40.5l11.43-11.43H25.75c-.843 0-1.527.684-1.527 1.527V40.5z" fill="#525252" fill-rule="evenodd"/><path d="M17.625 9.95l.335-.57c-.484-.544-1.155-.816-2.013-.816-.814 0-1.488.263-2.022.79-.533.524-.8 1.21-.8 2.057 0 .85.27 1.535.806 2.06.54.526 1.21.79 2.018.79.81 0 1.46-.245 1.955-.73l-.324-.625c-.13.163-.34.317-.637.46-.297.143-.618.215-.964.215-.6 0-1.094-.2-1.478-.598-.383-.398-.575-.917-.575-1.555 0-.64.194-1.157.58-1.553.386-.397.877-.595 1.473-.595.687 0 1.236.22 1.647.67zm4.495.245c0-.483-.192-.883-.577-1.197-.352-.29-.802-.434-1.35-.434-.224 0-.436.032-.635.094-.2.062-.375.15-.53.265-.155.115-.273.21-.353.287-.08.077-.168.17-.262.283l.453.52c.158-.214.362-.4.61-.557.25-.157.512-.236.79-.236.31 0 .567.084.77.252.205.168.308.393.308.677 0 .13-.03.25-.088.357-.06.106-.148.198-.267.275-.12.077-.21.13-.27.16-.058.03-.15.068-.27.115-.433.172-.725.295-.88.37-.223.102-.407.232-.553.39-.24.25-.36.57-.36.96 0 .427.17.78.504 1.062.326.27.75.406 1.273.41.6 0 1.128-.24 1.58-.715l-.405-.527c-.373.394-.778.592-1.215.592-.283 0-.514-.067-.692-.2-.177-.135-.266-.324-.266-.57 0-.12.02-.23.058-.323.04-.094.098-.174.176-.24.078-.067.15-.12.22-.157.07-.037.154-.077.256-.12l1.014-.424c.265-.123.474-.27.625-.446.223-.278.335-.588.335-.93zm4.226 3.98h.816l-2.032-5.52h-.688l-2.03 5.52h.832l1.55-4.393 1.552 4.394z" fill="#e6e6e6"/></g></svg>
