<svg xmlns="http://www.w3.org/2000/svg" height="44.7" viewBox="0 0 62 44.700001" width="62"><path d="M8.5 0C3.7 0 0 3.1 0 8.5v15.4c.4 1.9 2.4 3.3 4.6 3.3 2.5 0 4.3-1.8 4.3-4v-7.8h6.8v7.7c0 4.3-5.5 6.5-9.5 6.5-2.3 0-4.5-.7-6.1-1.9v17h10.8c3.8 0 8.2-3.6 8.2-8.2V0H8.5z" fill="#1174ce"/><path d="M0 8.5v15.4c.4 1.9 2.4 3.3 4.6 3.3 2.5 0 4.3-1.8 4.3-4v-7.8h6.8v7.7c0 4.3-5.5 6.5-9.5 6.5-2.3 0-4.5-.7-6.1-1.9v17h10.8c3.8 0 8.2-3.6 8.2-8.2V0" fill="#0f549d"/><path d="M15.6 15.4v7.7c0 4.3-5.5 6.5-9.5 6.5-2.3 0-4.5-.7-6.1-1.9v17h10.8c3.8 0 8.2-3.6 8.2-8.2" fill="#02375e"/><path d="M46.3 27H51c1.2 0 2.3-1.1 2.3-2.3 0-1.2-1.1-2.3-2.3-2.3h-4.7V27z" fill="#146643"/><path d="M51.6 0c-4.9 0-8.5 3.1-8.5 8.4v7h12.6c1.8 0 3.3 1.5 3.3 3.3 0 1.8-1.5 3.3-3.3 3.3 2 0 3.6 1.4 3.6 3.2 0 1.8-1.5 3.2-3.6 3.2H43v16.3h10.8c3.8 0 8.2-3.6 8.2-8.2V0H51.6z" fill="#1bcc38"/><path d="M43 8.5v6.9h12.6c1.8 0 3.3 1.5 3.3 3.3 0 1.8-1.5 3.3-3.3 3.3 2 0 3.6 1.4 3.6 3.2 0 1.8-1.5 3.2-3.6 3.2H43v16.3h10.8c3.8 0 8.2-3.6 8.2-8.2V0" fill="#329947"/><path d="M58.9 18.7c0 1.8-1.5 3.3-3.3 3.3 2 0 3.6 1.4 3.6 3.2 0 1.8-1.5 3.2-3.6 3.2H43v16.3h10.8c3.8 0 8.2-3.6 8.2-8.2m-8.8-17.4c0-1.2-1.1-2.3-2.3-2.3h-4.6v4.5H51c1.2 0 2.2-1 2.2-2.2z" fill="#146643"/><path d="M29.9 0c-4.9 0-8.5 3.1-8.5 8.4V17c1.2-1 2.7-1.7 4.3-1.7h11.4v2.4c-2.7-.6-5.3-.9-6.6-.9-2.8 0-5.1 2.3-5.1 5.1s2.3 5.1 5.1 5.1c1.3 0 3.9-.2 6.6-.8v2.2H25.7c-1.6 0-3.2-.6-4.3-1.7v18h10.8c3.8 0 8.2-3.6 8.2-8.2V0H29.9z" fill="#e20e37"/><path d="M21.4 8.5v8.6c1.2-1 2.7-1.7 4.3-1.7h11.4v2.4c-2.7-.6-5.3-.9-6.6-.9-2.8 0-5.1 2.3-5.1 5.1s2.3 5.1 5.1 5.1c1.3 0 3.9-.2 6.6-.8v2.1H25.7c-1.6 0-3.2-.6-4.3-1.7v18h10.8c3.8 0 8.2-3.6 8.2-8.2V0" fill="#b41f36"/><path d="M37.1 15.4v2.4c-2.7-.6-5.3-.9-6.6-.9-2.8 0-5.1 2.3-5.1 5.1s2.3 5.1 5.1 5.1c1.3 0 3.9-.2 6.6-.8v2.1H25.7c-1.6 0-3.2-.6-4.3-1.7v18h10.8c3.8 0 8.2-3.6 8.2-8.2" fill="#720a1e"/></svg>