<svg xmlns="http://www.w3.org/2000/svg" height="16.1" viewBox="0 0 63 16.1" width="63"><path d="M48.7 4.2h-3.4c-.2 0-.4.2-.5.4l-1.4 8.8c0 .2.1.3.3.3h1.8c.2 0 .3-.1.3-.3l.4-2.5c0-.2.2-.4.5-.4h1.1c2.3 0 3.6-1.1 3.9-3.3.2-.9 0-1.7-.4-2.2-.6-.5-1.5-.8-2.6-.8m.4 3.3c-.2 1.2-1.1 1.2-2 1.2h-.6l.4-2.3c0-.1.1-.2.3-.2h.2c.6 0 1.2 0 1.5.4.2.1.2.4.2.9" fill="#139ad6"/><path d="M24.2 4.2h-3.4c-.2 0-.4.2-.5.4l-1.4 8.8c0 .2.1.3.3.3h1.6c.2 0 .4-.2.5-.4l.4-2.4c0-.2.2-.4.5-.4h1.1c2.3 0 3.6-1.1 3.9-3.3.2-.9 0-1.7-.4-2.2-.6-.5-1.4-.8-2.6-.8m.4 3.3c-.2 1.2-1.1 1.2-2 1.2h-.5l.4-2.3c0-.1.1-.2.3-.2h.2c.6 0 1.2 0 1.5.4.1.1.2.4.1.9m9.9-.1h-1.6c-.1 0-.3.1-.3.2l-.1.5-.1-.2c-.4-.5-1.1-.7-1.9-.7-1.8 0-3.4 1.4-3.7 3.3-.2 1 .1 1.9.6 2.5.5.6 1.2.8 2.1.8 1.5 0 2.3-.9 2.3-.9l-.1.5c0 .2.1.3.3.3h1.5c.2 0 .4-.2.5-.4l.9-5.6c-.1-.1-.3-.3-.4-.3m-2.3 3.2c-.2.9-.9 1.6-1.9 1.6-.5 0-.9-.2-1.1-.4-.2-.3-.3-.7-.3-1.2.1-.9.9-1.6 1.8-1.6.5 0 .8.2 1.1.4.3.3.4.8.4 1.2" fill="#263b80"/><path d="M58.9 7.4h-1.6c-.1 0-.3.1-.3.2l-.1.5-.1-.2c-.4-.5-1.1-.7-1.9-.7-1.8 0-3.4 1.4-3.7 3.3-.2 1 .1 1.9.6 2.5.5.6 1.2.8 2.1.8 1.5 0 2.3-.9 2.3-.9l-.1.5c0 .2.1.3.3.3h1.5c.2 0 .4-.2.5-.4l.9-5.6c-.1-.1-.2-.3-.4-.3m-2.3 3.2c-.2.9-.9 1.6-1.9 1.6-.5 0-.9-.2-1.1-.4-.2-.3-.3-.7-.3-1.2.1-.9.9-1.6 1.8-1.6.5 0 .8.2 1.1.4.4.3.5.8.4 1.2" fill="#139ad6"/><path d="M43.2 7.4h-1.7c-.2 0-.3.1-.4.2L38.9 11l-1-3.2c-.1-.2-.2-.3-.5-.3h-1.6c-.2 0-.3.2-.3.4l1.8 5.3-1.7 2.4c-.1.2 0 .5.2.5h1.6c.2 0 .3-.1.4-.2L43.3 8c.3-.3.1-.6-.1-.6" fill="#263b80"/><path d="M60.8 4.5l-1.4 9c0 .2.1.3.3.3h1.4c.2 0 .4-.2.5-.4L63 4.6c0-.2-.1-.3-.3-.3h-1.6c-.1-.1-.2 0-.3.2" fill="#139ad6"/><path d="M11.5 1.2C10.8.4 9.5 0 7.7 0h-5c-.3 0-.6.3-.7.6L0 13.7c0 .3.2.5.4.5h3.1l.8-4.9v.2c.1-.3.4-.6.7-.6h1.5c2.9 0 5.1-1.2 5.8-4.5v-.3c-.1 0-.1 0 0 0 .1-1.3-.1-2.1-.8-2.9" fill="#263b80"/><path d="M12.2 4.1v.3c-.7 3.4-2.9 4.5-5.8 4.5H4.9c-.3 0-.6.3-.7.6l-1 6.1c0 .2.1.4.4.4h2.6c.3 0 .6-.2.6-.5v-.1l.5-3.1v-.2c0-.3.3-.5.6-.5h.4c2.5 0 4.5-1 5-4 .2-1.2.1-2.3-.5-3-.1-.2-.3-.4-.6-.5" fill="#139ad6"/><path d="M11.5 3.8c-.1 0-.2-.1-.3-.1-.1 0-.2 0-.3-.1-.4-.1-.8-.1-1.3-.1H5.7c-.1 0-.2 0-.3.1-.2.1-.3.3-.3.5l-.8 5.2v.2c.1-.3.4-.6.7-.6h1.5c2.9 0 5.1-1.2 5.8-4.5 0-.1 0-.2.1-.3-.2-.1-.3-.2-.5-.2-.3-.1-.3-.1-.4-.1" fill="#232c65"/></svg>