<svg xmlns="http://www.w3.org/2000/svg" viewBox="0 0 119.8 147.59999" height="157439.992" width="127786.67"><path d="M99.8 47.8c0 15.9-14.9 27.9-31.9 27.9H44s0-3.4 2.4-5.8 5.5-2.2 5.5-2.2h8c12 0 19.9-10.2 19.9-19.9 0-8-6.4-19.9-19.9-19.9H36s-5.3-.2-9.6-1.7c-5.3-2-10.3-6.3-10.3-6.3h43.8c3.5 0 7.7.2 12.1.9 4.4.7 8.9 1.9 13.1 3.8 3.1 1.4 5.9 3.3 8.3 5.7.8.8 1.5 1.7 2.2 2.6 2.5 3.7 4.2 8.8 4.2 14.9m20 51.9V20.1S119.8 0 99.7 0H20.1S0 0 0 20.1v79.6s0 20.1 20.1 20.1h24.3l18 25.4s2.1 2.4 5.6 2.4h23.6-.3c-3.3-.2-5.2-2.4-5.2-2.4s-34.9-49.5-36.4-51c-2.3-2.3-5.1-2.4-5.6-2.4h23.8c3.1 0 5.1 1.8 5.6 2.3l.1.1 18.3 25.6h7.9c-.1 0 20 0 20-20.1" class="st0"/></svg>