<svg xmlns="http://www.w3.org/2000/svg" xmlns:xlink="http://www.w3.org/1999/xlink" preserveAspectRatio="xMidYMid" width="43" height="41" viewBox="0 0 43 41">
  <defs>
    <style>
      .cls-1 {
        fill: #af1e2d;
        fill-rule: evenodd;
      }
    </style>
  </defs>
  <path d="M38.000,19.000 L38.000,41.000 L32.845,41.014 L32.041,39.438 L29.753,35.074 C29.664,34.897 29.443,34.548 28.899,33.883 C28.310,33.159 28.055,32.954 27.987,32.905 C27.786,32.761 27.358,32.526 26.462,32.232 L23.064,31.115 L26.556,30.331 C27.474,30.125 28.191,29.871 28.687,29.576 C29.474,29.109 30.075,28.516 30.522,27.766 C30.958,27.038 31.178,26.142 31.178,25.105 C31.178,23.899 30.898,22.917 30.321,22.102 C29.753,21.300 29.028,20.766 28.105,20.472 C27.083,20.145 25.540,19.979 23.519,19.979 L13.007,19.979 L13.007,41.014 L4.000,41.000 L4.000,19.025 C2.901,18.965 -0.000,19.000 -0.000,19.000 L-0.000,16.000 L21.000,-0.000 L22.000,-0.000 L43.000,16.000 L43.000,19.000 L38.000,19.000 ZM6.000,39.000 L12.003,39.000 L12.003,18.991 L23.519,18.991 C25.653,18.991 27.285,19.170 28.414,19.531 C29.542,19.892 30.453,20.561 31.144,21.537 C31.836,22.513 32.182,23.703 32.182,25.105 C32.182,26.327 31.917,27.381 31.388,28.267 C30.859,29.153 30.131,29.873 29.205,30.423 C28.615,30.773 27.807,31.064 26.779,31.294 C27.602,31.565 28.202,31.836 28.578,32.106 C28.832,32.287 29.200,32.672 29.682,33.264 C30.166,33.856 30.488,34.311 30.651,34.632 L32.940,39.000 L36.000,39.000 L36.000,18.000 L36.000,18.000 C31.286,14.408 24.422,9.369 21.500,7.143 C11.769,14.557 6.000,19.000 6.000,19.000 L6.000,39.000 ZM41.000,16.000 L21.500,1.143 L2.000,16.000 L2.000,18.000 L5.250,18.000 C15.984,9.822 21.000,6.000 21.000,6.000 L22.000,6.000 C22.000,6.000 27.279,9.832 38.000,18.000 C38.410,18.000 38.559,18.000 38.536,18.000 L41.000,18.000 L41.000,16.000 ZM25.203,23.253 C25.679,23.649 26.245,24.385 26.245,25.645 C26.245,26.348 26.029,26.980 25.602,27.526 C25.160,28.090 24.582,28.446 23.907,28.578 C22.595,28.868 22.108,28.902 21.855,28.902 L17.939,28.902 L17.939,22.449 L21.978,22.449 C23.519,22.449 24.543,22.704 25.203,23.253 ZM18.943,27.914 L21.855,27.914 C22.171,27.914 22.781,27.814 23.686,27.614 C24.144,27.524 24.517,27.293 24.807,26.922 C25.097,26.553 25.242,26.126 25.242,25.645 C25.242,24.935 25.013,24.389 24.556,24.008 C24.098,23.628 23.238,23.437 21.978,23.437 L18.943,23.437 L18.943,27.914 ZM21.834,31.786 C22.338,32.145 22.831,32.792 23.379,33.813 L26.549,39.588 L27.283,41.014 L17.939,41.014 L17.939,31.087 L19.553,31.087 C20.390,31.087 21.152,31.319 21.834,31.786 ZM18.943,39.000 L25.000,39.000 L22.496,34.283 C22.029,33.412 21.611,32.847 21.246,32.586 C20.748,32.245 20.183,32.075 19.553,32.075 L18.943,32.075 L18.943,39.000 Z" class="cls-1"/>
</svg>
