<svg id="Capa_1" xmlns="http://www.w3.org/2000/svg" viewBox="0 0 45 44"><style>.st0{fill:#AF1E2D;}</style><path class="st0" d="M42 20h-9c-.4 0-.7.1-1 .2V3c0-1.7-1.3-3-3-3H3C1.3 0 0 1.3 0 3v38c0 1.7 1.3 3 3 3h26c.8 0 1.5-.3 2-.8.5.5 1.2.8 2 .8h9c1.7 0 3-1.3 3-3V23c0-1.7-1.3-3-3-3zM30 41c0 .6-.4 1-1 1H3c-.6 0-1-.4-1-1V3c0-.6.4-1 1-1h26c.6 0 1 .4 1 1v38zm13 0c0 .6-.4 1-1 1h-9c-.6 0-1-.4-1-1V23c0-.5.5-1 1-1h9c.6 0 1 .4 1 1v18z"/><path class="st0" d="M19 29h3v5h-3zM9 8h3v5H9zM9 18h3v5H9zM9 29h3v5H9zM35 27h5v3h-5zM35 34h5v3h-5zM19 18h3v5h-3zM19 8h3v5h-3z"/></svg>