<svg id="Capa_1" xmlns="http://www.w3.org/2000/svg" viewBox="0 0 42 45"><style>.st0{fill:#AF1E2D;}</style><path class="st0" d="M39.5 4.8c.3-1 .3-1.9-.3-2.4-.3-.4-.7-.5-1.2-.5-.4 0-.8.1-1.2.2C34.8.7 32.5 0 30.2 0c-2.5 0-4.9.9-6.7 2.7-3.1 3.1-3.5 7.9-1.4 12-.4.2-.8.4-1.1.7-.6.6-1 1.5-1 2.4L.7 37c-.9.9-.9 2.3 0 3.2l.9.9c.4.4 1 .7 1.6.7.6 0 1.1-.2 1.6-.7l3-3.1 7 7 2.9-2.9c-.2-.1-.3-.2-.4-.3l-3.1-3.1c-.6-.6-.6-1.7 0-2.3.3-.3.8-.5 1.2-.5s.8.2 1.2.5l3.1 3.1c.1.1.2.3.3.4l3-3-7-7 7.6-7.6c.3.1.5.1.8.1 1 0 1.9-.3 2.6-1 .4-.4.6-.8.8-1.3 1.6.7 3.2 1.1 4.8 1.1 2.5 0 4.9-.9 6.7-2.7 3.6-3.5 3.6-9.4.2-13.7zM20 38.4l-2.7-2.7c-.5-.5-1.2-.8-1.9-.8s-1.4.3-1.9.8-.8 1.2-.8 1.9.3 1.4.8 1.9l2.7 2.7-1.4 1.4-6.2-6.1 6.7-6.7 6.2 6.1-1.5 1.5zm17.9-21.3c-1.4 1.4-3.3 2.1-5.3 2.1-1.3 0-2.7-.3-4-.9l-2-.9-.8 2c-.1.2-.2.4-.3.5-.4.4-.8.5-1.2.5h-.4l-1-.2-.8.8L3.3 39.7s-.1.1-.2.1-.1 0-.2-.1l-.9-.9s-.1-.1-.1-.2 0-.1.1-.2l19.3-19.2.5-.5v-.8c0-.3.1-.7.5-1 .1-.1.3-.2.5-.3l2-.9-1-1.9c-1.8-3.4-1.4-7.3 1-9.7C26.2 2.7 28.1 2 30.2 2c1.8 0 3.8.6 5.4 1.8l.8.6 1-.3c.1 0 .2-.1.3-.1 0 .1 0 .1-.1.2l-.3 1 .7.8c2.7 3.6 2.7 8.3-.1 11.1z"/><path class="st0" d="M30.7 5.6c-1.2 0-2.4.4-3.3 1.3-1.9 1.9-1.7 5.3.6 7.6 1.2 1.2 2.8 1.9 4.3 1.9 1.2 0 2.4-.4 3.3-1.3 1.9-1.9 1.7-5.3-.6-7.6-1.2-1.3-2.8-1.9-4.3-1.9zm4.2 8.7c-.6.6-1.5 1-2.5 1-1.3 0-2.6-.6-3.6-1.6s-1.6-2.3-1.6-3.6c0-1 .4-1.9 1-2.5.6-.6 1.6-1 2.5-1 1.3 0 2.6.6 3.6 1.6s1.6 2.3 1.6 3.6c0 .9-.4 1.8-1 2.5z"/></svg>