<svg id="Capa_1" xmlns="http://www.w3.org/2000/svg" viewBox="0 0 32 43"><style>.st0{fill:#AF1E2D;}</style><path class="st0" d="M8 18.5h3.5c1.4 3.2 4.7 5.5 8.5 5.5v-2.7c-2.3 0-4.2-1.1-5.4-2.8h2.3l1-2.3h-4.3c-.1-.4-.1-.8-.1-1.2h3.4l1-2.3H14c.9-2.4 3.3-4 6-4V6c-4.3 0-7.9 2.9-9 6.7H9L8 15h2.7c0 .4 0 .8.1 1.2H9l-1 2.3z"/><path class="st0" d="M29 0H3C1.3 0 0 1.3 0 3v37c0 1.7 1.3 3 3 3h26c1.7 0 3-1.3 3-3V3c0-1.7-1.3-3-3-3zm-2 41H3c-.6 0-1-.4-1-1V3c0-.6.4-1 1-1h24v39zm3-1c0 .6-.4 1-1 1h-1V2h1c.6 0 1 .4 1 1v37z"/><path class="st0" d="M8 28h14v1H8zM8 31h14v1H8zM8 34h14v1H8z"/></svg>