<svg id="Capa_1" xmlns="http://www.w3.org/2000/svg" viewBox="0 0 30 51"><style>.st0{fill:#AF1E2D;}</style><path class="st0" d="M27 0H3C1.3 0 0 1.3 0 3v45c0 1.7 1.3 3 3 3h24c1.7 0 3-1.3 3-3V3c0-1.7-1.3-3-3-3zM3 2h24c.6 0 1 .4 1 1v3H2V3c0-.6.4-1 1-1zm25 5v36H2V7h26zm-1 42H3c-.6 0-1-.4-1-1v-4h26v4c0 .6-.4 1-1 1z"/><path class="st0" d="M11 46h7v1h-7zM22.6 36.7c-3.8-.1-8.3-3.8-11.4-6.9-3.1-3.1-6.8-7.6-6.9-11.4 0-1.3 3.2-3.7 3.3-3.7.8-.6 1.8-.4 2.2.2.3.4 2.7 4.1 3 4.6.3.4.2 1.1-.1 1.8-.2.4-.8 1.5-1.1 2 .3.5 1.2 1.6 3 3.4 1.8 1.8 2.9 2.6 3.4 3 .5-.3 1.7-.9 2-1.1.6-.3 1.3-.4 1.7-.1.5.3 4.2 2.8 4.6 3 .5.4.8 1.3.2 2.2-.2-.3-2.6 3-3.9 3zm-14-21.4c-.1 0-.3 0-.5.2-1 .7-2.8 2.4-2.8 2.9.1 3.5 3.7 7.7 6.6 10.7 3 3 7.2 6.5 10.7 6.6.5 0 2.1-1.8 2.9-2.8.3-.4.2-.7.1-.8-.3-.2-4.1-2.7-4.5-3-.1-.1-.4 0-.8.1-.5.2-2.3 1.3-2.3 1.3l-.3.1-.3-.1c-.1 0-1.3-.8-3.8-3.3s-3.2-3.7-3.3-3.8l-.1-.3.1-.3s1-1.8 1.3-2.3c.2-.4.2-.7.2-.8-.3-.4-2.7-4.2-3-4.5.1.2 0 .1-.2.1z"/></svg>