<svg xmlns="http://www.w3.org/2000/svg" preserveAspectRatio="xMidYMid" width="19" height="24" viewBox="0 0 19 24"><path d="M17.494 17.673C15.167 20.743 9.534 24 9.534 24s-5.582-3.7-7.746-6.545C-.002 15.1.068 13.09.068 13.09V4.146s3.19-.222 5.378-1.31C7.633 1.75 9.75 0 9.75 0s2.404 1.865 4.087 2.618C16.294 3.718 19 3.928 19 3.928v9.38s.098 2.25-1.506 4.365zm-5.42-2.914c0-.133-.06-.193-.192-.193h-.048c-.432.036-1.296.096-1.98.096-1.174 0-2.086-.707-2.086-2.722v-1.666c0-2.04.912-2.723 2.087-2.723.695 0 1.583.073 2.015.11h.036c.12 0 .144-.06.144-.133v-.612c0-.108-.084-.144-.192-.156-.528-.084-1.26-.192-2.015-.192-1.475 0-3.166.767-3.166 3.706v1.667c0 2.915 1.69 3.707 3.166 3.707 1.02 0 1.487-.06 1.99-.156.133-.023.24-.095.24-.24v-.49z"/></svg>