<svg xmlns="http://www.w3.org/2000/svg" xmlns:xlink="http://www.w3.org/1999/xlink" preserveAspectRatio="xMidYMid" width="54" height="26" viewBox="0 0 54 26">
  <defs>
    <style>
      .cls-1 {
        fill: #af1e2d;
        stroke: #af1e2d;
        fill-rule: evenodd;
      }
    </style>
  </defs>
  <path d="M52.000,26.000 L2.000,26.000 L-0.000,26.000 L-0.000,26.000 L-0.000,24.000 L-0.000,24.000 L-0.000,14.000 L-0.000,13.000 L2.000,13.000 L4.429,13.000 L10.000,0.000 L11.000,0.000 L12.000,0.000 L42.000,0.000 L43.000,0.000 L44.000,0.000 L50.500,13.000 L52.000,13.000 L54.000,13.000 L54.000,13.000 L54.000,24.000 L54.000,26.000 L52.000,26.000 ZM11.000,2.333 L6.429,13.000 L8.429,13.000 L11.000,7.000 L11.000,2.333 ZM42.000,2.000 L12.000,2.000 L12.000,7.000 L42.000,7.000 L42.000,2.000 ZM42.429,8.000 L11.571,8.000 L9.429,13.000 L19.000,13.000 L20.000,13.000 L20.000,14.000 L20.000,19.000 L35.000,19.000 L35.000,14.000 L35.000,13.000 L36.000,13.000 L44.571,13.000 L42.429,8.000 ZM43.000,2.000 L43.000,7.000 L45.571,13.000 L48.500,13.000 L43.000,2.000 ZM52.000,14.000 L51.000,14.000 L49.000,14.000 L46.000,14.000 L45.000,14.000 L36.000,14.000 L36.000,19.000 L36.000,20.000 L35.000,20.000 L20.000,20.000 L19.000,20.000 L19.000,19.000 L19.000,14.000 L9.000,14.000 L8.000,14.000 L6.000,14.000 L4.000,14.000 L2.000,14.000 L2.000,24.000 L52.000,24.000 L52.000,14.000 Z" class="cls-1"/>
</svg>
